<?xml version="1.0" encoding="utf-8"?>
<!-- Generator: Adobe Illustrator 28.3.0, SVG Export Plug-In . SVG Version: 6.00 Build 0)  -->
<svg version="1.1" id="Ebene_1" xmlns="http://www.w3.org/2000/svg" xmlns:xlink="http://www.w3.org/1999/xlink" x="0px" y="0px"
	 viewBox="0 0 608.5 100" style="enable-background:new 0 0 608.5 100;" xml:space="preserve">
<style type="text/css">
	.st0{fill:#00366D;}
</style>
<g>
	<path class="st0" d="M25.7,38c0.1,0.7,0,1.3-0.2,2c-0.2,0.7-0.4,1.4-0.6,2.1c-0.1,0.2-0.1,0.4-0.3,0.6c-0.1,0.2-0.3,0.4-0.2,0.6
		c0,0,0,0.1-0.1,0.1c-0.5,0.4-0.5,1.1-1,1.6c-0.1,0.2-0.3,0.4-0.4,0.6c0,0-0.1,0-0.1,0c0,0.5-0.5,0.7-0.7,1.1
		c-0.1,0.3-0.3,0.6-0.5,0.8c-0.2,0.3-0.4,0.6-0.6,0.8c-0.5,0.5-1,1.1-1.5,1.7c-0.3,0.4-0.7,0.7-1.1,1.1c-0.3,0.3-0.7,0.5-0.9,1
		c0,0.1-0.3,0.1-0.4,0.2l-0.7,0.6c-0.4,0-0.5,0.5-0.9,0.7c0,0,0,0.2-0.2,0.1c-0.1,0-0.2,0-0.2,0.1c-0.2,0.2-0.4,0.5-0.7,0.6
		c-0.3,0-0.5,0.2-0.7,0.5c-0.1,0-0.1,0-0.2,0c-0.3,0.1-0.5,0.1-0.7,0.3c-0.2,0.1-0.3,0.2-0.5,0.2c-0.9,0.3-1.7,0.6-2.6,0.8
		c-1.1,0.1-2.3-0.1-3.2-0.7c-0.8-0.5-1.5-1.2-2-2c-0.1-0.1-0.2-0.1-0.2,0l-0.3,0.9c-0.2,0.6-0.4,1.2-0.5,1.7c-0.3,1-0.5,2-0.7,2.9
		c-0.2,1.4-0.5,2.8-0.7,4.3S2.2,66.5,2,68.1c0,1,0,1.8,0,2.7c0,0.2,0,0.5,0,0.7c0,0.2-0.1,0.3-0.3,0.2S1,71.5,0.9,71.2
		S0.5,71,0.4,70.7C0,69.8-0.1,68.9,0,68c0.1-0.9,0.1-1.8,0.1-2.6c0.1-1.3,0.2-2.7,0.3-4c0.1-0.4,0.2-0.9,0.4-1.3
		c0-0.1,0.3-0.3-0.1-0.4v-0.1c0.3-0.6,0.5-1.3,0.5-2l0.3-1c0-0.1,0.1-0.1,0.2-0.2c0-0.1-0.1-0.1-0.1-0.2c0.3-0.4,0.2-1,0.4-1.4
		l0.4-1.1h0.1v0.2V54h0.1v-0.2l-0.1-0.1v-0.3c0.1-0.2,0.3-0.4,0-0.5c-0.1-0.2-0.1-0.4,0.1-0.5l0.2,0.5c0,0,0.1,0,0.1,0v-0.4
		c0.1-0.1,0.4-0.2,0-0.3v0.3c-0.1,0-0.2,0-0.3-0.1c0.1-0.7,0.3-1.4,0.6-2c0-0.1-0.1-0.2-0.1-0.3s0.1-0.5,0.2-0.7l0.3-1.2
		c0-0.1,0.1-0.1,0.2-0.2l0.3-1.2l0,0l0,0l0,0L4.8,45c0-0.2,0.1-0.4,0.1-0.5l0.4-1.2c0-0.1,0.1-0.2,0.2-0.3l0.3-1.2l0.1-0.5
		C6,41,6.1,40.8,6.1,40.6s0.1-0.3,0.2-0.3s0.2-0.2,0.1-0.4c0-0.2,0-0.5,0-0.7c0.1-0.3,0.3-0.6,0.4-0.9c0-0.1,0-0.3,0-0.4
		c0,0.1-0.1,0.2-0.2,0.4s-0.1,0.7-0.4,0.9v-0.5c0.3-0.6,0.5-1.2,0.6-1.8c0-0.5,0.2-0.9,0.5-1.3c0-0.1,0.1-0.3,0.1-0.4
		c-0.2-0.3,0.1-0.4,0.1-0.6l0.2-0.7l0,0C8.1,32.9,8.4,32,8.6,31c0.1-0.5,0.3-1,0.4-1.5c0.1-0.3,0.1-0.6,0.1-0.8c0-0.4,0-0.4,0.4-0.2
		c0.5,0.2,1,0.4,1.4,0.5c0.2,0.2,0.3,0.5,0.2,0.8c-0.3,0.7-0.6,1.4-0.9,2.1c-0.4,1.2-0.9,2.5-1.3,3.7l-1.9,5.7l-1.1,3.6
		c-0.2,0.6-0.4,1.2-0.6,1.8c-0.3,0.9-0.5,1.8-0.8,2.7l-0.6,2c-0.1,0.3-0.1,0.6,0,0.9c0,0,0,0.2-0.1,0.3c-0.3,0-0.2,0.2-0.1,0.4
		c-0.1,0.2-0.3,0.3-0.1,0.5l-0.1,0.4c0.3-0.1,0.1-0.3,0.1-0.4L4,53.3l0.1-0.2v0.2c0,0.1,0,0.1,0,0.2c0,0,0.1-0.1,0.1-0.1
		c0.1-0.2,0.1-0.5,0.1-0.8c0-0.3,0.1-0.6,0.3-0.9c0.4-0.6,0.7-1.2,1-1.8s0.7-1.5,1.1-2.2c0.5-0.9,1.1-1.8,1.7-2.6
		c0.8-1.2,1.6-2.3,2.5-3.3l2.8-3c0.2-0.2,0.5-0.4,0.7-0.6c0.4-0.5,0.9-0.8,1.4-1.2s1-0.7,1.5-1s0.7-0.5,1.1-0.8
		c0.6-0.3,1.2-0.5,1.9-0.8c0.5-0.1,0.9-0.2,1.3-0.3c0,0,0.1,0,0.1-0.1c0,0-0.1,0-0.1,0c-0.6,0.1-1.2,0.2-1.8,0.3
		c-0.9,0.3-1.8,0.7-2.6,1l0.4-0.4c0.5-0.3,1.1-0.6,1.7-0.8c0.9-0.4,1.9-0.5,2.8-0.5c0.3,0,0.7,0.1,1,0.2c0.3,0.1,0.6,0.3,0.9,0.5
		c0.3,0.1,0.6,0.3,0.7,0.7c0,0.1,0.2,0.1,0.2,0.2c0.3,0.3,0.4,0.7,0.5,1.1c0,0.1,0,0.2,0.1,0.3C25.7,37.2,25.8,37.6,25.7,38z
		 M1.2,64.2l-0.1-0.3V64C1.1,64.1,1.1,64.2,1.2,64.2L1.2,64.2z M3.2,53.7C3.5,52.9,3.8,52,4,51.2c0.1-0.3,0.1-0.5,0.2-0.8
		c0,0,0-0.1-0.1-0.1s0,0-0.1,0l-0.1,0.4c-0.1,0.5-0.2,1-0.3,1.4c-0.4,1.3-0.8,2.7-1.1,4.1c-0.3,1-0.5,2.1-0.6,3.1
		c-0.3,1.4-0.4,2.8-0.7,4.3l0.1,0.2v-0.2c0.2-1,0.3-2.1,0.5-3.1s0.4-2.2,0.7-3.4L3.2,53.7z M2.5,52.8v0.5C2.4,53.2,2.2,53,2.5,52.8
		L2.5,52.8z M3.2,51.5L3.2,51.5l0.3-0.4c0-0.1-0.1-0.1-0.1-0.2s-0.1,0-0.1,0.1L3.2,51.5z M3.5,50.7c0-0.1,0.1-0.1,0.1-0.2L4,48.9
		c-0.1,0-0.1,0.1-0.2,0.2l-0.3,1c0,0.1,0,0.2,0,0.3C3.5,50.4,3.5,50.6,3.5,50.7L3.5,50.7z M4.1,48.8c0.1-0.3,0.3-0.7,0.4-1
		c0,0,0-0.1,0-0.2s-0.1,0-0.1,0.1C4.1,48.1,4.1,48.4,4.1,48.8L4.1,48.8z M6.5,42.4c-0.2,0.5-0.4,1-0.6,1.6s-0.5,1.4-0.7,2.1v0.1
		C5.1,46.6,5,47,4.9,47.5l-0.7,2.3c0,0,0,0.1,0,0.1s0.1,0,0.1-0.1L5,47.5l1.3-4.2C6.4,43,6.5,42.7,6.5,42.4 M4.4,47.3L4.4,47.3
		c0.1,0.1,0.2,0,0.2,0L5,45.7C4.7,46.1,4.7,46.8,4.4,47.3z M5.2,42.9c-0.1,0.1-0.1,0.2-0.1,0.3L5,43C4.9,42.8,5,42.8,5.2,42.9z
		 M5.1,45.4c0.1-0.2,0.2-0.3,0.3-0.5c0,0,0-0.1,0-0.1l-0.1,0.1L5.1,45.4z M21.1,46.9v-0.2c0.4-0.2,0.5-0.6,0.6-0.9h-0.2
		c0.3-0.4,0.5-0.8,0.8-1.3c0.1-0.2,0.2-0.5,0.3-0.8c-0.3,0.4-0.6,0.8-0.9,1.2c-0.1,0.2-0.1,0.3-0.4,0.3l0.8-1.3
		c0.5-0.8,0.9-1.7,1.3-2.5c0.3-1,0.6-1.9,0.8-2.9c0.1-0.3,0.1-0.6,0-0.8c0-0.7-0.1-1.3-0.2-2c0-0.3-0.2-0.5-0.5-0.7
		c-0.5-0.3-1.2-0.4-1.8-0.4c-1.2,0.1-2.3,0.5-3.4,1.1c-1,0.6-2,1.3-2.9,2c-1.2,0.9-2.3,2-3.4,3.1c-1.1,1.3-2.2,2.7-3.2,4.2
		c-1.5,2.1-2.7,4.4-3.8,6.8c0,0.1,0,0.2,0,0.2c0.1,0,0.2,0,0.3,0c0,0,0.1-0.1,0.2-0.1l0.9-0.6h0.2c0,0,0,0.1,0,0.2
		c-0.1,0.2-0.3,0.4,0.1,0.6c0,0,0,0.1,0.1,0.2c0,0.3-0.2,0.4-0.3,0.6c-0.3,0.3-0.5,0.7-0.4,1.1c0.3,0.6,0.8,1,1.4,1.2
		c1,0.1,2.1,0,3-0.4c1.3-0.5,2.5-1.2,3.6-2.2c0.6-0.5,1.2-1,1.8-1.5h0.1c0.1-0.3,0.3-0.5,0.6-0.5h0c0.5-0.6,1-1.2,1.5-1.7
		c0.1,0,0.2,0,0.2,0c-0.1,0.1-0.2,0.2-0.2,0.3c-0.2,0.3-0.5,0.5-0.8,0.9c-0.6,0.8-1.3,1.6-2.1,2.2c-0.4,0.4-0.9,0.8-1.4,1.1
		c-0.2,0.2-0.4,0.3-0.6,0.4c-0.5,0.3-1,0.6-1.5,0.8c-0.5,0.2-1,0.5-1.6,0.6c-0.5,0.1-1,0.2-1.5,0.3l-0.1,0.1c0.1,0,0.1,0.1,0.1,0.1
		c0.4,0.1,0.7,0.1,1.1,0c0.6-0.1,1.1-0.3,1.7-0.5c1.1-0.3,2.1-0.8,2.9-1.5l0,0c0.2-0.2,0.5-0.4,0.7-0.6l1.4-1.3l0.1-0.2
		c0.1,0,0.3,0,0.4-0.1c0.4-0.5,0.9-0.9,1.3-1.5c0.3,0,0.4-0.3,0.6-0.5s0.3-0.4,0.5-0.5s0.5-0.4,0.5-0.5c0.2-0.3,0.4-0.5,0.6-0.8
		C20.6,47.5,20.9,47.2,21.1,46.9 M5.9,41.2c-0.2,0.2-0.4,0.5-0.4,0.8c-0.1,0.3-0.2,0.5-0.3,0.9c0-0.2,0-0.4,0-0.6
		c0.1-0.4,0.2-0.8,0.4-1.2L5.7,41c-0.1-0.4,0.2-0.6,0.3-0.9c0.1-0.3,0.2-0.7,0.4-1l0,0c0.1,0.3,0,0.7-0.2,0.9
		C6,40.4,5.8,40.8,5.9,41.2z M6.5,41c0,0,0,0,0.1,0.1l0.1-0.3v-0.2c0,0-0.1,0.1-0.1,0.1S6.5,40.9,6.5,41z M6.8,41.6
		c0,0.1,0,0.2-0.1,0.3c0,0,0,0.1,0,0.1l0.1,0V41.6C6.9,41.7,6.9,41.6,6.8,41.6L6.8,41.6z M7.3,36.4C7.3,36.4,7.3,36.4,7.3,36.4
		L7.6,36l0.1-0.1c0,0,0-0.1-0.1-0.1s-0.1,0-0.1,0L7.3,36.4z M17.3,35.4L17.3,35.4l-0.5,0.4c0,0,0-0.1,0-0.1
		C16.9,35.5,17,35.3,17.3,35.4L17.3,35.4z M18.6,50.7c0-0.1,0-0.1,0-0.1l-0.3,0.3c0,0,0,0,0,0.1L18.6,50.7z M19.2,48l-0.8,0.8
		c0.1-0.4,0.3-0.7,0.6-0.9l0.2-0.1C19.2,47.9,19.2,47.9,19.2,48L19.2,48z M18.9,50.2C18.9,50.2,18.9,50.2,18.9,50.2
		c-0.1,0-0.1,0.1-0.1,0.2L18.9,50.2C18.9,50.3,18.9,50.2,18.9,50.2L18.9,50.2z M20.2,48.8L20.2,48.8c-0.3,0.4-0.8,0.6-0.9,1.1
		l0.3-0.3c0.2-0.2,0.3-0.4,0.5-0.6C20.1,48.9,20.2,48.8,20.2,48.8L20.2,48.8z M21.2,47.5c-0.2,0.1-0.4,0.3-0.4,0.5l-0.3,0.2
		c-0.1,0.1-0.1,0.2-0.2,0.4c0.1-0.1,0.3-0.2,0.4-0.3c0.1,0,0.1-0.2,0.1-0.3S21.2,47.7,21.2,47.5L21.2,47.5z M21.9,46.6
		c-0.1,0-0.1,0-0.1,0l-0.4,0.6l0.5-0.5C21.9,46.8,21.9,46.6,21.9,46.6L21.9,46.6z M24.5,41.6c-0.2,0.1-0.3,0.2-0.4,0.3l0,0v-0.3
		c-0.1,0.1-0.3,0.1-0.3,0.2c-0.1,0.4-0.2,0.7-0.3,1.1h0.2c0,0.1,0,0.2,0,0.3l-1.2,2.3c-0.1,0.3-0.2,0.5-0.4,0.8
		c0.2-0.2,0.5-0.5,0.7-0.6l0.4-0.7c0.2-0.4,0.4-0.8,0.7-1.2 M23.7,43.9l0.3-0.5l0.2-0.5L23.7,43.9z M23.1,43.8l-0.3,0.5
		c0,0,0,0.1,0,0.1s0,0,0,0.1l0.1,0L23.1,43.8C23.1,43.9,23.1,43.8,23.1,43.8L23.1,43.8z M23.7,43l0.5-1.1C24,42.2,24.1,42.7,23.7,43
		L23.7,43z M24.9,40.1c0-0.1,0-0.2,0-0.4l-0.1,0.3c-0.1,0.3-0.1,0.6-0.4,0.9c0,0-0.2,0-0.2-0.1l0.1-0.4l0.3-1.6c0,0,0-0.1,0-0.2
		c0,0-0.1,0.1-0.1,0.1l-0.6,2.3c0,0,0,0.1,0,0.1c0.1,0,0.2,0,0.4-0.1c0,0,0-0.2,0-0.3l0.3,0.7c0.1,0,0.1-0.1,0.1-0.2V41
		C24.7,40.7,24.8,40.3,24.9,40.1L24.9,40.1z M24.5,37.7V38v0l0-0.1c0-0.1,0-0.3,0-0.5l-0.1-0.5C24.5,37.3,24.5,37.5,24.5,37.7
		L24.5,37.7z M25.1,39C25,38.9,25,38.8,25,38.7c0,0.1-0.1,0.1-0.1,0.2c0,0.2,0,0.3,0,0.5h0L25.1,39z M25.5,38.3L25.5,38.3l0-0.6
		c0-0.1-0.1-0.1-0.1-0.2l0,0.1c0,0.6,0,1.3-0.1,1.8v0.2c0,0,0,0.1,0.1,0.1c0,0,0.1-0.1,0.1-0.1L25.5,38.3z"/>
	<path class="st0" d="M33.9,53.4c-0.4,0.5-0.8,0.6-1.3,0.2c-0.3-0.2-0.6-0.5-0.9-0.8c-0.8-1-2.3-1.1-3.3-0.3
		c-0.9,0.6-1.6,1.4-2.2,2.3c-0.8,1.3-1.5,2.7-2.3,4.1c-0.3,0.6-0.6,1.2-0.9,1.9c-0.2,0.4-0.3,0.8-0.5,1.2c-0.1,0.3-0.3,0.3-0.6,0.1
		c-0.4-0.3-0.7-0.7-0.7-1.2c-0.2-0.7-0.1-1.4,0.3-2.1c0.4-0.8,0.7-1.8,1.1-2.7c0.2-0.4,0.4-0.9,0.5-1.4c0.1-0.2,0.2-0.5,0.3-0.7
		c0.2-0.5,0.5-1,0.7-1.6c0.7-1.6,1.3-3.3,1.7-5c0-0.2,0.2-0.5-0.2-0.6c0,0-0.1,0-0.1,0c0.1-0.1,0.2-0.3,0.3-0.4
		c0.1-0.1,0.2-0.1,0.4-0.1c0,0,0,0,0.1,0.1c0.3,0.3,0.7,0.6,1.2,0.8c0.3,0.2,0.4,0.5,0.4,0.8c0,0.2-0.1,0.4-0.2,0.5
		c-0.3,0.8-0.6,1.6-0.9,2.4v0.2c0.1,0,0.2,0,0.2,0c0,0,0.1,0,0.1,0c0.4,0.2,0.8,0,1-0.3c0.1-0.1,0.1-0.1,0.3,0s0.2,0.1,0.2,0.1
		c0.4-0.2,0.9-0.1,1.3,0.1c0.9,0.4,1.7,1.1,2.3,1.8c0.3,0.3,0.8,0.5,1.2,0.6C33.6,53.4,33.8,53.4,33.9,53.4
		C33.9,53.5,33.9,53.4,33.9,53.4z M27.2,52.2C27.1,52.2,27.1,52.1,27.2,52.2c-0.1-0.1-0.2-0.1-0.3-0.1c-0.1,0.1-0.2,0.3-0.3,0.5
		c0,0,0,0.2,0,0.2c0.1,0,0.1,0,0.2-0.1C26.9,52.6,27.1,52.4,27.2,52.2z M28.1,51.4c-0.2,0.1-0.4,0.2-0.6,0.4c-0.1,0-0.1,0.2-0.2,0.3
		s0.2,0,0.3-0.1c0.2-0.1,0.5-0.3,0.7-0.4C28.4,51.4,28.2,51.4,28.1,51.4"/>
	<path class="st0" d="M41.1,47.8c0,0,0.2-0.1,0.2-0.1c0-0.4,0.3-0.3,0.4-0.2c0.6,0.3,1.2,0.7,1.8,1l0.1-0.1c0,0,0,0,0,0.1
		s0.2,0,0.2,0.2c0.1,0.3,0.1,0.7,0,1c-0.5,1.5-1.4,2.9-2.6,4.1C40,55.1,38,55.8,36,55.4c-0.2,0-0.4,0-0.4,0.2
		c-0.3,1-0.4,2.1-0.2,3.1c0.1,0.3,0.2,0.7,0.4,1c0.1,0.3,0.4,0.5,0.7,0.6c0.9,0.3,1.8,0.2,2.7-0.1c0.3-0.1,0.7-0.1,1-0.2
		c0.1,0,0.1-0.1,0.2-0.2c0.3-0.2,0.6-0.3,0.9-0.5c0.6-0.4,1.2-0.8,1.8-1.2l-0.1,0.4c0,0,0.1,0,0.2-0.1c0.1-0.1,0.2-0.2,0.3-0.3h-0.4
		c0-0.2,0.1-0.4,0.2-0.5c0.2-0.2,0.4-0.4,0.6-0.6l0.7-0.7c0,0,0.2,0,0.2,0l-0.1,0.1c-0.2,0.2-0.4,0.5-0.6,0.7s-0.3,0.4-0.4,0.6
		c0,0.1-0.1,0.1,0,0.2c0.1,0,0.2,0.1,0.2,0c0.1,0,0.2-0.1,0.2-0.1c0.5-0.5,1-1,1.4-1.5c0,0,0.1,0,0.1,0c0,0,0,0.1,0,0.1
		c0,0.1-0.1,0.3-0.2,0.4l1.4-1.3c0.6-0.6,1.2-1.1,1.8-1.7s0.8-0.9,1.2-1.3s1-1,1.5-1.5s1.2-1,1.7-1.5c0.2-0.2,0.3-0.4,0.4-0.6
		l-0.1-0.1c0-0.1,0-0.1,0.1-0.2c0,0,0.1,0.1,0.2,0.2l0.2-0.3c0,0,0,0-0.1,0c-0.1-0.1-0.1-0.1-0.1-0.2c0-0.1,0.1-0.1,0.2-0.1
		c0.1,0,0.1,0,0.2,0c0.5,0.2,0.9,0.5,1.3,0.8c0.1,0.1,0.2,0.3,0.2,0.4c0,0.5-0.1,0.9-0.3,1.4l-0.8,1.8c0,0.1,0,0.2,0,0.2
		s0.1-0.1,0.2-0.1s0-0.1,0-0.1c0.1-0.1,0.2-0.1,0.4-0.1c0.1,0.2-0.1,0.2-0.2,0.3s0,0.2,0,0.3h-0.2v0.1c0.1,0,0.1-0.1,0.2-0.1
		c0.3-0.2,0.6-0.4,0.8-0.7c0.3-0.2,0.5-0.4,0.8-0.6c0,0,0-0.2,0-0.2s0.2,0,0.3,0c0.4,0.2,0.8,0.3,1.1,0.5c0.2,0.1,0.4,0.3,0.5,0.5
		c0.3,0.8,0.3,1.7,0.2,2.5c0,0.3,0,0.6-0.1,0.9l0.7-0.6c0.3-0.3,0.6-0.5,1-0.8c0.3,0.2,0.2-0.2,0.3-0.2c0.1-0.1,0.3-0.1,0.4-0.2
		c0.1-0.1,0.2-0.2,0-0.2c0.1-0.2,0.2-0.3,0.3-0.5c0,0,0,0,0,0.1l0,0c0,0-0.1,0-0.1,0c0-0.2,0-0.4,0.3-0.2c0,0,0.1-0.1,0.2-0.2
		c0.1,0,0.1,0,0.1-0.1c0.1-0.1,0.3-0.3,0.4-0.3c0.2,0,0.5,0.1,0.7,0.3c0.2,0.1,0.4,0.3,0.6,0.4c0.4,0.3,0.7,0.8,0.8,1.3
		c0.3,1.6,0.7,3.1,1.3,4.6c0.2,0.5,0.4,0.6,0.9,0.4c0.9-0.5,1.8-1,2.7-1.6v0.1l0,0c0,0,0-0.1,0-0.1l0.1-0.1c0.3,0.2,0.4-0.1,0.5-0.2
		H70c-0.2,0.4-0.4,0.9-0.7,1.3c-0.1,0.2-0.4,0.3-0.3,0.6v0.1c0.4,0.5-0.1,0.6-0.4,0.8c-0.2,0.2-0.5,0.3-0.8,0.4
		c-0.8,0.3-1.7,0.1-2.3-0.4c-0.8-0.7-1.3-1.6-1.6-2.6c-0.2-0.8-0.4-1.8-0.6-2.6c-0.1-0.4-0.2-0.8-0.4-1.2c0-0.1,0-0.1-0.1,0
		c-0.8,0.6-1.5,1.3-2,2.1c-0.7,0.9-1.3,1.8-2,2.6c-0.2,0.2-0.5,0.4-0.8,0.6c-0.2,0-0.3,0-0.5,0c-0.2,0-0.2-0.1-0.3-0.3l-0.5-0.6
		c-0.3-0.3-0.2-0.8-0.2-1.2c0-0.1,0.2-0.3,0.2-0.5s0-0.3,0.1-0.5h0c-0.4-0.3,0-0.6,0-1l0.1,0.1c0,0,0,0.1,0.1,0.1c0,0,0-0.1,0-0.1
		c0-0.3,0-0.5,0-0.8c0-0.1,0-0.1,0-0.2c0,0.1,0,0.1,0,0.2c0,0.1,0,0.2,0,0.2c0-0.1-0.1-0.1,0-0.2c0.1-0.4,0.1-0.8,0.2-1.1l-0.1-0.3
		c0-0.2-0.1-0.2-0.2,0c-0.3,0.3-0.6,0.6-0.8,0.9c-0.7,0.9-1.4,1.8-2.1,2.7c-0.3,0.3-0.5,0.8-0.8,1.1s-0.6,0.8-1.1,1.1
		c-0.4,0.3-0.9,0.1-1.2-0.3c0-0.1-0.1-0.1-0.1-0.2c-0.1-0.2-0.1-0.4-0.2-0.6s-0.3-0.4,0.1-0.5c0.1,0,0.1-0.1,0.1-0.2
		c0.3-1.1,0.6-2.1,1.2-3c0-0.2,0-0.3,0.1-0.4l0.8-1.4c0-0.2,0-0.4-0.1-0.5l0,0c0.2-0.5,0.4-0.9,0.6-1.4v-0.2c-0.1,0-0.2,0-0.2,0.1
		c-0.5,0.4-1,0.8-1.5,1.3s-0.9,1-1.4,1.5c-0.8,0.8-1.5,1.6-2.2,2.3c-1.4,1.5-2.9,2.9-4.4,4.2c-0.9,0.8-2,1.5-3.1,1.9
		c-1.2,0.5-2.5,0.4-3.6-0.1c-0.8-0.4-1.5-1.1-2-1.9c-0.7-1-0.9-2.1-0.6-3.3c0-0.2,0.1-0.4-0.2-0.5c0,0,0-0.4,0.1-0.5
		c0.1-0.3,0.1-0.6,0-0.9c0-0.3,0-0.5,0-0.8c0.1-0.1,0.2-0.2,0.3-0.2c0.3,0,0.5-0.2,0.6-0.5c0.4-0.9,1-1.8,1.7-2.5
		c0.5-0.6,1-1.1,1.7-1.6c0.3-0.1,0.6-0.5,1-0.7c0.2-0.1,0.5-0.3,0.8-0.4l0.9-0.4c0.2-0.1,0.3,0,0.3,0.2v0.3 M35.2,53.6l1.2-2
		c0.1-0.2,0.1-0.3,0.2-0.5c-0.1,0.1-0.3,0.2-0.4,0.3c-0.4,0.6-0.7,1.1-1.1,1.8C35,53.3,35,53.4,35,53.6c0,0,0,0.1,0,0.2
		C35.1,53.8,35.1,53.7,35.2,53.6L35.2,53.6z M40.9,51.4c0.2-0.1,0.4-0.3,0.4-0.5c0-0.1,0-0.1,0.1-0.1c0.5,0.2,0.3-0.2,0.4-0.4
		c0-0.1,0-0.1,0.1-0.1c0.2,0,0.2-0.2,0.2-0.4c0-0.1,0-0.3,0.1-0.4c0.1-0.2,0.2-0.5,0.3-0.8c0,0,0-0.1-0.1-0.1c-0.4,0-0.8-0.2-1,0.2
		c-0.1,0.1-0.2,0.1-0.3,0.2c-0.6,0.4-1.1,0.8-1.7,1.2s-0.7,0.6-1,0.9c-0.8,0.7-1.5,1.6-1.9,2.6c-0.1,0.2,0,0.3,0.2,0.2
		c0.6,0,1.1-0.2,1.7-0.5c0.3-0.2,0.6-0.4,0.9-0.6C40.1,52.4,40.6,51.9,40.9,51.4 M45.3,56c0.1-0.1,0.2-0.2,0.3-0.3h0
		c-0.1,0.5-0.2,0.5-0.6,0.4L45.3,56z M45.6,55.7L45.6,55.7c0.1-0.1,0.2-0.2,0.3-0.3c0,0,0,0.1,0,0.1c-0.2,0.2-0.4,0.2-0.5,0.2
		L45.6,55.7z M57.1,56.1c0,0,0-0.1,0-0.1V56.1c-0.2,0.1-0.2,0.1-0.2,0L57.1,56.1z"/>
	<path class="st0" d="M77.5,56.8c0.1-0.1,0.2-0.1,0.3-0.1c0,0.1,0,0.2-0.1,0.3c-0.1,0.1-0.2,0.2-0.3,0.3c-0.1,0.2-0.2,0.3-0.3,0.5
		L77,58c-0.2,0.2-0.5,0.3-0.7,0.5c-0.2,0.2-0.5,0.4-0.8,0.6c-0.7,0.5-1.4,1-2.1,1.5c-0.5,0.3-1,0.6-1.5,0.7c-0.5,0.1-1,0-1.4-0.3
		c-1.1-0.7-1.7-2.1-1.3-3.4c0.2-1.5,0.8-3,1.6-4.2l1.2-2c0.1-0.1,0.2-0.3-0.1-0.4s0-0.3,0.1-0.4c0.2-0.4,0.2-0.3,0.5-0.2l1.1,0.7
		c0.4,0.2,0.5,0.6,0.3,0.9c-0.6,1-1.3,2.1-1.9,3.1c-0.7,1.1-1.2,2.4-1.5,3.7c-0.1,0.8,0,0.9,0.8,0.7c0.5-0.2,1-0.4,1.6-0.6
		c0.3-0.1,0.7-0.4,1-0.4s0.4-0.1,0.6-0.3s0.8-0.1,1-0.4c0.1-0.1,0.4-0.2,0.5-0.3s0.2-0.2,0.3-0.2C76.9,57.4,77.2,57.1,77.5,56.8z
		 M75.4,43.7l-0.6-0.3c0.1-0.2,0.2-0.3,0.3-0.5c0.7-0.5,1.3-1,2-1.4c0.5-0.3,1.1-0.4,1.7-0.1c0.3,0.1,0.5,0.5,0.5,0.8
		c0,0.3-0.2,0.5-0.5,0.6c-0.6,0.2-1.2,0.4-1.8,0.6C76.5,43.6,75.9,43.7,75.4,43.7z M79.9,54c0,0.1,0,0.2-0.1,0.2
		c-0.2,0.3-0.5,0.5-0.7,0.8s-0.2,0.1-0.2,0.2c-0.1,0.1-0.1,0.3-0.2,0.4c-0.1,0,0-0.3-0.3-0.2v-0.1l1-0.8l0.1-0.3l0.1-0.2
		C79.7,54,79.8,54,79.9,54z"/>
	<path class="st0" d="M95.8,55.4c-0.3,0.3-0.6,0.7-0.9,1.1c-0.3,0.6-0.7,1.1-1.2,1.5c-0.4,0.4-1,0.7-1.5,0.9c-0.5,0.3-1,0.4-1.5,0.5
		c-0.5,0.1-0.9,0-1.4-0.2c-1.3-0.4-2.2-1.6-2.2-3c0-0.4,0-0.8,0-1.1c0-0.1,0-0.2,0-0.3c0,0.1-0.1,0.2-0.2,0.2
		c-0.5,0.3-0.5,1-0.9,1.4c-0.4,0.4-0.8,0.8-1.2,1.2c-0.4,0.5-0.8,1-1.2,1.4c-0.7,0.9-1.6,1.6-2.7,2c-0.5,0.3-1.1,0.2-1.5-0.2
		c-0.1-0.1-0.4-0.1-0.5-0.3c-0.7-0.6-1.1-1.5-0.9-2.4c0.2-0.7,0.4-1.4,0.7-2.1c0.2-0.8,0.6-1.6,1-2.3c0.3-0.4,0.5-0.9,0.8-1.3
		c0.2-0.7,0.8-1.3,0.7-2.1c0.1-0.3,0.1-0.5,0.3-0.7c0.1-0.1,0.2-0.1,0.3,0c0.3,0.3,0.8,0.5,1.2,0.4c0.4,0,0.7,0.5,0.5,0.8
		c-0.1,0.3-0.2,0.6-0.4,0.9c-0.6,1-1.2,2-1.7,3.1c-0.4,0.9-0.8,1.8-1.2,2.7c-0.2,0.6-0.4,1.2-0.5,1.9c0,0.1,0,0.2,0,0.3
		c0.1-0.1,0.2-0.1,0.3-0.1c0.6-0.4,1.2-0.9,1.8-1.4c0.2-0.2,0.5-0.3,0.8-0.5s0.4-0.7,0.9-0.7c0.1,0,0.1,0,0.1-0.1
		c0-0.4,0.5-0.5,0.7-0.8s0.5-0.5,0.8-0.8c0.4-0.3,0.7-0.7,1-1.1c0,0,0-0.2,0-0.3c0.2-0.1,0.3-0.2,0.5-0.2h-0.1
		c0.4-0.5,0.8-0.9,1.1-1.5c0.2-0.2,0.3-0.5,0.4-0.8c0.2-0.3,0.2-0.2,0.4-0.1s0.6,0.3,0.7,0.6c0.1,0.1,0.2,0.2,0.3,0.3
		c0.3,0.1,0.3,0.4,0.2,0.6c-0.1,0.2-0.2,0.5-0.3,0.7c-0.5,1.1-0.8,2.4-0.9,3.6v0.1c0.1,0.7,0.3,0.9,0.9,0.7s1.3-0.6,2-0.8
		c0.2-0.1,0.4-0.2,0.6-0.3c0.2,0,0.3-0.3,0.6-0.2h0.1c0.3-0.5,0.8-0.6,1.3-0.9l0,0c0,0,0.1,0,0.1,0c0.1,0,0.2,0,0.2,0
		s0.1-0.1,0.2-0.2c-0.3-0.1-0.1-0.1,0-0.2c0.1,0,0.2,0,0.3,0l0,0l0.3-0.4c0,0,0.2,0,0.2,0l-0.1,0.2c0.1,0,0.2,0,0.3,0s0.2-0.2,0.3,0
		C96,55.2,95.9,55.3,95.8,55.4z"/>
	<path class="st0" d="M101.6,52.4c0.1-0.1,0.3-0.2,0.3-0.3c0-0.3,0.2-0.3,0.4-0.3c0.1-0.4,0.5-0.4,0.8-0.7c0.2-0.2,0.4-0.3,0.6-0.5
		c-0.3-0.2-0.5,0.2-0.7,0.2c-0.2,0.1-0.4,0.1-0.7,0.2c0.1-0.1,0.3-0.4,0.5-0.5c0.4-0.2,0.8-0.4,1.2-0.5c0.3,0,0.5,0,0.8,0.1l0.8,0.3
		c0.2,0.1,0.3,0.2,0.5,0.4c0.3,0.5,0.4,1.1,0.3,1.6c-0.3,1.1-0.8,2.1-1.3,3.1c-0.4,0.8-0.8,1.7-1.1,2.5c0,0.1,0,0.2,0,0.3
		c0.1-0.1,0.2-0.1,0.2-0.2l1.2-1.2c0.5-0.5,1.1-1,1.6-1.6s1-1.1,1.4-1.7c0.2-0.3,0.5-0.4,0.8-0.1c0.2,0.2,0.4,0.3,0.7,0.2
		c0.3-0.1,0.5,0.1,0.6,0.3c0.1,0.2,0.1,0.5,0.1,0.7c0,1-0.1,2-0.3,3c0,0.3,0,0.7,0,1c0,0.3,0,0.4,0.4,0.3c0.4-0.1,0.7-0.2,1-0.4
		c0.6-0.4,1.1-0.8,1.6-1.3c0.6-0.5,1.1-0.9,1.7-1.4l-0.1-0.1h0.2l0.3-0.1c0,0.1,0,0.2,0,0.3c-0.1,0.2-0.2,0.3-0.3,0.5l-0.4,1
		c-0.2,0.8-0.7,1.5-1.4,1.9c-0.3,0.1-0.4,0.4-0.7,0.5c-0.9,0.5-2,0.4-2.8-0.2c-0.8-0.5-1.2-1.4-1-2.4c0-0.5,0.1-1,0.2-1.5
		c0-0.1,0-0.2-0.1-0.2c0,0.1,0,0.1,0,0.2c-0.2,0.2-0.5,0.5-0.7,0.7s-0.2,0.3-0.3,0.4c-0.7,0.9-1.4,1.7-2.3,2.5
		c-0.3,0.3-0.7,0.6-1,0.8c-0.3,0.2-0.7,0.2-1,0.1c-0.6-0.2-1-0.6-1.1-1.2c0-0.2,0-0.3,0-0.5c0.2-0.7,0.4-1.3,0.7-2
		c0.2-0.2,0.2-0.6,0.1-0.8H103c0.3,0,0.3-0.2,0.3-0.4c0-0.4,0.1-0.7,0.3-1c0.4-0.8,0.7-1.7,0.9-2.6v-0.2c-0.1,0-0.2,0-0.2,0
		c-0.4,0.3-0.8,0.6-1.2,0.9c-0.2,0.2-0.5,0.4-0.8,0.7c-0.4,0.4-0.8,0.8-1.2,1.2c-1.5,1.5-2.9,3.1-4.3,4.7c-0.5,0.6-1.1,1.1-1.7,1.8
		c-0.2,0.2-0.4,0.4-0.7,0.5c-0.2,0-0.3,0.3-0.5,0.2c-0.2-0.1-0.5-0.3-0.7-0.5c-0.1-0.1-0.1-0.4-0.2-0.6s0-0.2-0.1-0.2
		c-0.4,0-0.3-0.2-0.2-0.4c0.3-0.6,0.6-1.3,0.9-1.9c0.5-0.9,1-1.8,1.5-2.8c0.7-1.3,1.3-2.5,1.9-3.8c0.1-0.3,0.3-0.7,0.4-1
		c0-0.1,0-0.3,0-0.4c0-0.2,0-0.4,0.1-0.6c0-0.2,0.2-0.3,0.5-0.2s0.9,0.2,1.4,0.4c0.4,0.2,0.6,0.7,0.4,1.1c0,0.1-0.1,0.1-0.1,0.2
		l-1.8,3.6c-0.2,0.3-0.4,0.6-0.6,0.9v0.2c0,0,0.1,0,0.2-0.1l1-1c0.1-0.2,0.3-0.3,0.6-0.3c-0.1,0.1-0.1,0.2-0.1,0.2
		c-0.1,0.1-0.1,0.2-0.1,0.2c0.1,0,0.2,0,0.3,0s0.2-0.1,0.2-0.2c0.3-0.3,0.6-0.6,0.8-0.8l0.1-0.2c0.1-0.1,0.2-0.1,0.3,0
		C100.8,53.2,101.2,52.8,101.6,52.4 M94.5,57.1c0,0-0.1,0.1-0.1,0.1c0,0.1,0,0.1,0,0.2c-0.3,0-0.2,0.3-0.2,0.5l-0.8,1.3
		c-0.1,0.1-0.2,0.3-0.2,0.5c0.2-0.1,0.3-0.3,0.5-0.4c0.1-0.2,0.2-0.5,0.3-0.8l0.1-0.6c0.1-0.2,0.1-0.3,0.2-0.5c0,0,0.1-0.1,0.1-0.1
		S94.5,57.2,94.5,57.1z M100.6,52.6C100.6,52.6,100.6,52.6,100.6,52.6c-0.1-0.1,0-0.2,0.1-0.2c0,0,0.1,0,0.2,0.1L100.6,52.6z"/>
	<path class="st0" d="M145.6,61.6l-0.3,0.3c-0.3,0.1-0.6,0.1-0.8,0.6c-0.2,0.2-0.4,0.4-0.6,0.5c-0.8,0.5-1.6,0.9-2.3,1.4
		c-1.1,0.7-2.3,1.3-3.5,1.8c-1.2,0.6-2.5,0.8-3.8,0.7c-0.9,0-1.8-0.2-2.6-0.6c-1-0.6-1.8-1.3-2.5-2.2c-1.3-1.6-2-3.5-2.2-5.6
		c-0.3-2-0.1-3.9,0.5-5.8c0.2-0.7,0.5-1.4,0.8-2c0.4-0.8,0.8-1.6,1.2-2.4c0.3-0.5,0.7-1,1.1-1.6l0.7-1l0,0l0.2-0.2
		c0.1-0.3,0.3-0.6,0.5-0.8c0.8-0.8,1.6-1.6,2.3-2.5c0.9-0.9,1.9-1.7,2.9-2.5c0.8-0.6,1.6-1.1,2.4-1.6c1.5-1,3.1-1.7,4.9-2
		c0.6-0.1,1.1-0.1,1.7-0.1c0.1,0,0.1,0,0.2,0.1l0.9,0.3h0.1l1.3,1c0.2,0.2,0.4,0.4,0.6,0.6c0.5,0.5,0.7,1.1,0.8,1.8
		c0.2,1,0.2,2-0.1,3c-0.2,1-0.6,2-1,2.9c-0.4,0.8-0.8,1.6-1.2,2.3c-0.3,0.5-0.7,0.9-1.1,1.3c-0.4,0.4-1,0.4-1.5,0.2
		c-0.8-0.3-1.4-0.8-1.8-1.6c-0.2-0.4-0.2-0.8-0.2-1.2l0.2-0.2l0.1,0.2c0.2,0.4,0.4,0.9,0.6,1.3c0.1,0.3,0.5,0.3,0.7,0.1
		c0.8-0.9,1.5-1.9,2-3c0.3-0.6,0.7-1.3,0.9-1.9c0.3-0.9,0.6-1.8,0.7-2.7c0-0.1,0-0.3-0.1-0.4c-0.1-0.1,0-0.3,0.1-0.4
		c0.1-0.1,0.1-0.2,0-0.2s-0.1-0.1-0.1-0.1c0-0.6-0.2-1.3-0.6-1.8c-0.1-0.1-0.2-0.2-0.3-0.3c-1.3-0.3-2.7-0.1-4,0.4
		c-2.2,0.9-4.2,2.2-6,3.7c-1.8,1.5-3.5,3.3-4.9,5.2c-0.7,1-1.4,2-1.9,3c-0.5,0.8-0.9,1.7-1.3,2.6c-0.3,0.7-0.5,1.4-0.7,2.1
		c-0.2,0.8-0.3,1.6-0.3,2.4c0,0.9,0,1.7,0.1,2.6c0,0.5,0.1,1.1,0.2,1.6c0.1,0.6,0.3,1.2,0.6,1.8c0,0.2,0,0.3,0.2,0.4
		s0.2,0.2,0.3,0.4s0.2,0.2,0.3,0.4c0.7,1,1.9,1.6,3.1,1.6c1.3,0,2.6-0.3,3.8-0.8c0.5-0.2,1-0.4,1.5-0.7c0.8-0.4,1.6-0.8,2.4-1.2
		c0.6-0.3,1.1-0.7,1.6-1.1c0.2-0.1,0.3-0.2,0.5-0.3c-0.1,0.4,0.2,0.3,0.4,0.2c-0.1,0.1-0.1,0.3,0.1,0.2c0.2-0.1,0.4-0.2,0.6-0.3
		l1.3-0.8l0,0c0.8-0.6,1.5-1.1,2.3-1.6c0.2-0.1,0.4-0.2,0.6-0.2l1.7-1.5c0.9-0.8,1.9-1.5,2.8-2.3c0.1,0.1,0.3,0.2,0.1,0.4l-0.3,0.4
		l-0.1,0.2c0.3,0.4-0.1,0.5-0.3,0.6c-0.4,0.3-0.7,0.6-1.1,0.9c-0.1,0-0.2,0.1-0.2,0.2c0,0.3-0.2,0.4-0.5,0.5
		c-0.4,0.1-0.5,0.6-0.9,0.8l-0.1-0.1c-0.2,0.3-0.8,0.2-0.9,0.7c0,0.1-0.2,0.1-0.3,0.2l-1.8,1.2c-0.1,0.1-0.3,0.3-0.5,0.4
		c0,0.1-0.2,0.1-0.2,0.1 M128.1,60.2l0.1-0.6c0-0.1,0-0.1-0.1-0.2l0,0v-1.2c0-0.1,0-0.2,0-0.2c0,0.1,0,0.2,0,0.3V59l0.1,0.4
		c0,0,0,0.1,0,0.1L128.1,60.2L128.1,60.2z M131.6,45.8L131.6,45.8L131.6,45.8L131.6,45.8z M135.6,40.6h-0.1v-0.1l0.9-0.8
		c0,0.2-0.1,0.4-0.3,0.5C135.9,40.3,135.7,40.5,135.6,40.6L135.6,40.6z M136.8,39.5l-0.4,0.2L136.8,39.5c0-0.1,0.1-0.2,0.2-0.2
		C137,39.5,136.9,39.5,136.8,39.5L136.8,39.5z M136.9,39.3c0.5-0.4,1.1-0.8,1.6-1.1c0.7-0.5,1.4-0.9,2.1-1.3c1.1-0.6,2.3-1,3.5-1.2
		c0.4-0.1,0.8-0.1,1.1,0c0.2,0,0.3,0.1,0.4,0.2c0.1,0,0.1,0.1,0.1,0.1c-0.1,0-0.1,0-0.2,0c-0.7-0.1-1.4,0-2,0.2
		c-1.1,0.3-2.3,0.8-3.3,1.3c-0.2,0.1-0.5-0.1-0.5,0.2c-0.3,0.3-0.6,0.5-1,0.6c-0.3,0.1-0.5,0.2-0.7,0.4
		C137.8,39.1,137.4,39.3,136.9,39.3L136.9,39.3z M143.3,62C143.3,62,143.3,61.9,143.3,62l-0.2-0.1l-1.3,1c0,0,0,0.1,0,0.1
		c0,0,0.1,0,0.1,0l1.4-0.9C143.3,62.1,143.4,62.1,143.3,62L143.3,62z M143.4,61.3h-0.3C143.1,61.2,143.3,61.2,143.4,61.3L143.4,61.3
		z M143.5,61.5l-0.1-0.1C143.5,61.4,143.5,61.4,143.5,61.5L143.5,61.5z M143.5,61.6L143.5,61.6c0.1-0.2,0.3-0.3,0-0.5
		c0.2-0.3,0.8-0.3,0.9-0.7l0.1,0.1c0,0.1,0,0.2,0,0.3C144.1,60.9,144.1,61.6,143.5,61.6L143.5,61.6z M145.2,60.1L145.2,60.1
		c0-0.3,0.3-0.1,0.5-0.2c0,0.1,0,0.2,0,0.2c-0.2,0.2-0.4,0.4-0.6,0.5h-0.1v-0.1c0-0.1,0-0.2,0-0.3C145,60.1,145.1,60,145.2,60.1z
		 M145.6,59.8c0.1-0.1,0.1-0.2,0.2-0.3c0,0,0.1,0.1,0.1,0.1C145.9,59.8,145.8,59.9,145.6,59.8L145.6,59.8z M145.6,61.6
		c0,0,0.1-0.1,0.1-0.1L145.6,61.6z M146.1,59.3c0.1,0,0.2,0,0.3,0H146.1L146.1,59.3z M146.6,59v0.2l-0.1,0.2h-0.1
		C146.4,59.2,146.4,59.1,146.6,59L146.6,59z M146.9,59.3l-0.1-0.3h-0.1c0,0,0-0.1,0.1-0.2c0,0,0.1,0,0.1,0V59
		C146.9,59,147.2,59.2,146.9,59.3L146.9,59.3z M148,58.3c0.1,0.6-0.7,0.3-0.7,0.7h-0.1c0-0.1,0-0.2,0-0.3c0.1-0.1,0.2-0.2,0.2-0.3
		c0.2,0.2,0.2,0,0.3-0.2c0.1-0.1,0.2-0.3,0.3-0.4l0.2,0.2c0,0,0,0.1-0.1,0.2S148,58.2,148,58.3L148,58.3z M148.2,58.1l0.1-0.3l0,0
		l0,0c-0.1-0.3,0.5,0,0.3-0.3c0,0,0.2-0.2,0.4-0.3l0.1-0.2c0.1,0.1,0.1,0.1,0.2,0.2c-0.1,0.1-0.1,0.3-0.3,0.3v-0.2H149l0.1,0.1
		C148.8,57.6,148.7,57.9,148.2,58.1L148.2,58.1z M149.9,56.7c-0.1,0.1-0.3,0-0.4,0v-0.1l1.1-0.8c-0.1,0.2-0.4,0.3-0.1,0.6l-0.1,0.1
		h-0.2l0,0 M151.2,55.3c-0.1,0.1-0.5,0.3,0,0.5L151,56h0c-0.2,0.2-0.2,0.5-0.6,0.5v-0.2c0.3-0.2,0.3-0.2,0.1-0.6
		c0-0.1,0.1-0.2,0.2-0.3l1-0.8c0,0.1,0,0.2,0,0.3s0,0.1,0,0.1l0.1,0.1h0.1c-0.2,0.5-0.3,0.5-0.7,0.3L151.2,55.3 M153.1,53.6
		c-0.2,0.7-0.7,1.2-1.3,1.6l-0.1-0.1c0-0.1,0.4-0.3,0-0.4l0.4-0.5c0.2-0.2,0.4-0.5,0.7-0.7c0.1,0,0.2,0,0.3,0
		C153.2,53.5,153.2,53.5,153.1,53.6L153.1,53.6z M152.3,54.2L152.3,54.2l-0.1,0.1C152.2,54.4,152.4,54.3,152.3,54.2L152.3,54.2z"/>
	<path class="st0" d="M166.2,54.2C166.2,54.2,166.2,54.2,166.2,54.2c-0.5,0.6-1.1,1.1-1.8,1.3c-0.5,0.2-1.1,0.4-1.6,0.5
		c-1.4,0.3-2.9,0.1-4.2-0.3c-0.2-0.1-0.4,0-0.4,0.2c-0.3,1.3-0.9,2.5-1.8,3.4c-0.5,0.6-1,1-1.6,1.4c-0.5,0.4-1.1,0.6-1.7,0.7
		c-0.7,0-1.3-0.2-1.8-0.8c-1-1.1-1.1-2.7-0.4-3.9c0.1-0.6,0.4-1.1,0.9-1.4c0-0.4,0.2-0.7,0.5-1c0.5-0.6,0.9-1.1,1.3-1.8
		c0.5-0.6,1.1-1.1,1.8-1.4c0.2-0.1,0.4-0.1,0.6,0c0.6,0.2,1.2,0.5,1.6,0.9c0,0,0,0.2,0,0.2c-0.3,0.3-0.6,0.6-1,0.8
		c-1.3,0.7-2.4,1.7-3.2,3c-0.7,0.9-1.3,2-1.5,3.2c0,0.5,0.1,0.6,0.5,0.5c0.8-0.3,1.6-0.9,2.1-1.6l1-1.1c0.2-0.2,0.4-0.4,0.4-0.7
		c0-0.3,0.1-0.1,0.2,0s0.1,0,0.1,0c0.2-0.5,0.3-1.1,0.2-1.6c-0.3-0.1-0.2-0.6-0.4-0.8c0.1,0,0.1-0.1,0.2-0.1
		c0.6,0.1,1.2,0.3,1.7,0.6c0.9,0.5,1.8,0.6,2.8,0.5c0.9,0,1.9-0.2,2.7-0.3l2.2-0.4h0.5C166.2,54.1,166.2,54.1,166.2,54.2z
		 M156.5,54.7L156.5,54.7z"/>
	<path class="st0" d="M164.8,58c0,0.3,0,0.7,0,1c0,0,0,0.1,0,0.1c0,0,0-0.1-0.1-0.1C164.7,58.6,164.6,58.2,164.8,58z M164.9,57.5
		c0,0,0,0.1-0.1,0.2C164.8,57.6,164.8,57.5,164.9,57.5c-0.1-0.1-0.1-0.2-0.1-0.3C164.9,57.3,164.9,57.4,164.9,57.5L164.9,57.5z
		 M164.9,56.8c0,0-0.1-0.1,0-0.1c0.1-0.3,0.2-0.7,0.3-1c-0.1,0.3-0.1,0.7-0.2,1C165,56.8,165,56.8,164.9,56.8L164.9,56.8z M177.2,48
		c0.1-0.2,0.3-0.3,0.1-0.6c-0.1-0.1,0.1-0.3,0.3-0.4s0.3-0.2,0.2-0.4c-0.1-0.4,0.1-0.6,0.3-0.8l0.1-0.2c0,0,0.1-0.1,0.1-0.2l0,0
		l0.5-0.9l0,0c0.1-0.1,0.2-0.2,0.2-0.4l0.1-0.2v0.2c0-0.1,0-0.2,0.1-0.2h0.1c0-0.1,0-0.2-0.1-0.2l0.1-0.2c0,0,0-0.1,0-0.1
		s0,0.1,0,0.1l0.1-0.3v-0.2c0.1-0.3,0.2-0.6,0.4-0.9c0.1-0.1,0.1-0.1,0.2-0.1s0.3-0.1,0-0.3l0,0c0.1-0.2,0.2-0.3,0.3-0.5
		c0.1-0.3,0.3-0.5,0.4-0.7l0,0l0.8-1.3c0.2-0.5,0.5-0.9,0.8-1.3c0,0,0-0.1,0-0.1c-0.1,0-0.1,0-0.2,0c-0.3,0.4-0.6,0.8-0.8,1.2
		l-1,1.5c-0.3,0.6-0.7,1.2-1,1.8c0,0,0,0.1-0.1,0.2c0,0-0.1,0.1-0.2,0.1v-0.1c0.3-0.7,0.6-1.4,1.1-2c0.4-0.5,0.7-1.2,1-1.8
		c0,0,0-0.1,0-0.2c0.8-1.4,1.8-2.7,2.8-3.9l0.1-0.1c0.2-0.2,0.4-0.4,0.6-0.4s0.3,0.2,0.5,0.3l0.7,0.4c0.1,0.1,0.2,0.1,0.3,0.1
		c0.5,0.1,0.9,0.3,1.2,0.7c0.2,0.3,0.4,0.7,0.4,1.1c0.2,0.9,0.2,1.8,0,2.7c-0.2,1.3-0.6,2.6-1,3.8c-0.2,0.6-0.4,1.2-0.7,1.7l-1,2.3
		c-0.2,0.6-0.5,1.1-0.8,1.6c-0.4,0.5-0.7,1-1,1.5c-0.1,0.2-0.2,0.3-0.2,0.5l0,0c0,0.1-0.1,0.1-0.1,0.2c-0.1,0.1-0.2,0.2-0.3,0.3
		c-0.5,0.8-1.1,1.5-1.6,2.2c-0.4,0.6-0.8,1.1-1.2,1.6c-0.2,0.2,0,0.4-0.3,0.6s-0.3,0.4-0.5,0.6l-0.4,0.6c-0.1,0.1-0.2,0.3-0.3,0.4
		l-2.1,2.3c-0.1,0.2-0.3,0.1-0.4,0.2l0,0c0,0.2,0,0.4-0.3,0.5s-0.4,0.4-0.6,0.6c-0.5,0.4-0.7,0.9-0.6,1.5c0,0.1,0,0.1-0.1,0.2
		c0.1,0.2,0.2,0.4,0.2,0.6c0.2,1.1,0.4,2.2,0.9,3.2v0.1c-0.1,0-0.2,0-0.2,0.2l0.3,0.7c0.2,0.3,0.4,0.5,0.6,0.8
		c0.1,0.1,0.2,0.1,0.3,0l0,0c0.5,0.3,1.1,0.4,1.6,0.1c0,0,0.1,0,0.2,0s-0.3,0.2,0,0.4c0.2,0.1,0.3,0.3,0.4,0.5v0.1
		c-0.3,0.1-0.6,0.1-0.9,0.2s-0.1-0.2-0.2-0.2s-0.2,0.1-0.3,0.1c-0.1,0-0.2,0-0.2-0.1c-0.4-0.3-0.9-0.6-1.3-0.9
		c-0.2-0.2-0.4-0.5-0.6-0.7c-0.5-0.8-0.9-1.6-1.1-2.4c0-0.1,0-0.3,0-0.4c0-0.1,0-0.1,0.1-0.2v-0.1c-0.1,0-0.1,0.1-0.1,0.1v0.2
		c-0.1-0.4-0.2-0.8-0.3-1.1c0-0.4-0.1-0.8-0.2-1.2c0,0,0,0-0.1,0l0,0c-0.3,0.5-0.6,0.9-1.1,1.2c-0.2,0.2-0.4,0.4-0.7,0.4
		c0.1-0.1,0.1-0.2,0.2-0.3l-0.4,0.3h0.2c0,0.1,0,0.2-0.1,0.2c-0.6,0.5-1.3,0.9-2,1.2c-0.4,0.2-0.9,0.2-1.4,0.2c-0.1,0-0.2,0-0.3-0.1
		c-1.5-0.6-2.6-2-2.9-3.6c-0.2-0.9-0.2-1.9-0.1-2.8c0.1-1.1,0.3-2.2,0.6-3.2c0-0.1,0-0.2,0-0.2c0.2-0.3,0.2-0.4-0.1-0.6
		c0,0-0.1-0.2-0.1-0.2c0.2-0.3,0.1-0.6,0-0.9c0-0.1,0-0.3,0.2-0.2s0.3,0,0.3-0.2c0.3-0.9,0.7-1.8,1.1-2.7c0.1-0.3,0.2-0.6,0.3-0.9
		c0-0.1,0.1-0.2,0.2-0.2c0.3-0.6,0.6-1.3,0.9-1.9c0.6-1.1,1.2-2.2,1.8-3.2c0.3-0.5,0.8-1,1.1-1.5l0.6-0.8c0.1-0.3,0.4-0.4,0.6-0.6
		c0.3-0.4,0.7-0.8,1-1.1l0.6-0.7h0.1c0.1-0.1,0.3-0.3,0.5-0.4h0.3c0.2,0.1,0.5,0.2,0.7,0.3l0,0c0.2,0.3,0.5,0.4,0.8,0.4
		c0.9,0.1,1.3,0.6,1,1.5c-0.2,0.5-0.4,1-0.6,1.5s-0.6,1.2-0.9,1.7c-0.1,0.2-0.3,0.5-0.4,0.7s-0.4,0.7-0.7,1.1s-0.4,0.5-0.6,0.7
		c-0.6,0.9-1.3,1.8-2,2.7c-0.9,1-1.7,2-2.6,3c-0.3,0.3-0.5,0.6-0.8,0.8c-0.4,0.4-0.9,0.7-1.4,1c-0.3,0.2-0.4,0.3-0.5,0.6
		s-0.3,0.8-0.5,1.3c-0.4,1.6-0.6,3.3-0.5,5c0,0.2,0.1,0.4,0.2,0.6c0.2,0.5,0.2,1.1,0.8,1.5c0.2,0.1,0.4,0.2,0.6,0.2
		c0.7,0,1.4-0.2,2-0.4c0.2-0.1,0.4,0,0.6,0c0.3-0.2,0.6,0,0.9-0.2h0.1c0.5-0.4,1-0.7,1.5-1.2c0.2-0.2,0.5-0.4,0.7-0.6
		c0.2-0.2,0.4-0.5,0.4-0.8c0-0.8,0.1-1.6,0.3-2.4l0,0c0.1-1,0.3-2,0.5-2.9c0.1-0.5,0.2-0.9,0.4-1.3c0.1-0.3,0.2-0.6,0.4-0.8
		c0,0,0-0.1,0-0.1l0,0l0.1-0.4l0.1-0.2h-0.1c0-0.3,0.1-0.5,0.2-0.8c0.2-0.4,0.3-0.7,0.4-1.1c0-0.4,0.3-0.6,0.3-0.9
		c0.1-0.3,0.2-0.7,0.4-1 M176.8,49c0.1-0.2,0.2-0.3,0.3-0.5 M165.2,56c-0.1-0.2,0-0.3,0.1-0.4s0.1-0.1,0.1-0.1v0.2
		c-0.1,0-0.2,0.1-0.3,0.1L165.2,56z M165.9,57.2c0-0.1-0.1-0.2-0.1-0.3C165.9,57,165.9,57,165.9,57.2c-0.2,0.1-0.2,0.2-0.2,0.3V58
		c0.1-0.1,0.1-0.3,0.1-0.4L165.9,57.2z M166,56.5C166,56.5,166.1,56.5,166,56.5c0.1-0.2,0.1-0.3,0.2-0.4h-0.1c0,0-0.1,0-0.1,0v0.1
		 M166.3,53.4c0.1-0.1,0.1-0.1,0.2-0.1c0,0,0-0.1,0.1-0.2c0.2-0.5,0.4-0.9,0.6-1.4c0.3-0.8,0.6-1.5,1-2.3c0.2-0.6,0.6-1.1,0.8-1.6
		s0.6-1,0.9-1.5c0.4-0.7,0.8-1.4,1.2-2c0.1-0.2,0.2-0.5,0.3-0.7c-0.2,0.2-0.4,0.3-0.5,0.5c-0.7,0.9-1.2,2-1.9,2.9
		c-0.4,0.6-0.7,1.3-0.9,2c-0.1,0.2-0.1,0.5-0.4,0.6c0,0.2-0.1,0.5-0.1,0.7l-0.8,1.8c-0.1,0.3-0.3,0.7-0.4,1.1
		C166.3,53.3,166.3,53.4,166.3,53.4L166.3,53.4z M168,51.4c0.1-0.3,0.3-0.5,0.4-0.8c0.2-0.3,0.3-0.7,0.3-1c0.4-0.5,0.7-1,0.9-1.6
		c0.1-0.1,0.1-0.3,0.2-0.4c0.1,0,0.2-0.1,0.1-0.3c0,0.1,0,0.2-0.1,0.3c-0.2,0.1-0.3,0.3-0.2,0.4c-0.4,0.4-0.7,1-0.9,1.6
		c-0.1,0-0.1,0.1-0.2,0.2c-0.3,0.5-0.5,1-0.7,1.5c-0.2,0.5-0.3,0.7-0.5,1.1c0,0,0,0.1,0,0.1c0.1,0,0.1,0,0.2-0.1
		C167.7,52.1,167.8,51.8,168,51.4L168,51.4z M171.7,45.3c-0.5,0.7-1,1.5-1.4,2.3c-0.3,0.6-0.5,1.1-0.9,1.6c-0.3,0.8-0.7,1.5-1.1,2.3
		h0.2c0,0.1-0.1,0.3-0.1,0.4l0.2-0.3l0.1-0.1c1.1-1.2,2.1-2.4,3.1-3.6c0.3-0.4,0.5-0.8,0.9-1l-0.1,0.2c-0.2,0.2-0.4,0.5-0.6,0.8
		c-0.3,0.3-0.5,0.7-0.8,1.1c-0.3,0.4-0.6,0.9-0.9,1.3v0.2c0.1,0,0.1,0,0.2-0.1c0.2-0.2,0.4-0.4,0.5-0.6c0.2-0.3,0.5-0.5,0.8-0.8
		c0.5-0.6,1-1.2,1.4-1.9c0.4-0.4,0.7-0.9,1-1.4c0.2-0.4,0.5-0.8,0.8-1.2h-0.1c0.3-0.4,0.5-0.8,0.7-1.2c0.3-0.5,0.5-1.2,0.7-1.7
		c0.1-0.3,0.1-0.6,0.1-0.8c0-0.1-0.1-0.2-0.1-0.2c-0.1,0.1-0.2,0.1-0.2,0.2l-0.4,0.8c0-0.2,0.1-0.4,0.2-0.6s0-0.2,0-0.2
		c-0.1-0.1-0.1-0.1-0.2,0c0,0,0,0,0,0c-0.5,0.2-0.9,0.4-1.3,0.8C173.6,42.7,172.6,44,171.7,45.3L171.7,45.3z M170,47.1
		c0,0,0.1,0,0.1,0c0.1-0.1,0.1-0.3,0.2-0.5L170,47.1C170,47.1,170,47.1,170,47.1z M170.3,46.5l0.4-0.7c0,0,0-0.1,0.1-0.1l0,0
		c0,0,0,0.1,0,0.1C170.5,45.9,170.4,46.2,170.3,46.5L170.3,46.5z M171.2,45.1c0,0,0.1-0.1,0.1-0.1L171.2,45.1l-0.1,0.1
		C171.1,45.2,171.2,45.2,171.2,45.1L171.2,45.1z M173.2,62.5c-0.1,0-0.1,0-0.2,0c-0.3,0.3-0.6,0.6-0.9,0.8
		C172.6,63.1,173,62.9,173.2,62.5L173.2,62.5z M172.9,47L172.9,47C172.9,47,172.9,47,172.9,47L172.9,47z M173.2,46.5
		c-0.1,0.1-0.2,0.2-0.2,0.3C172.9,46.7,173,46.6,173.2,46.5L173.2,46.5z M173.7,62.2c0,0,0-0.1-0.1-0.1s-0.1,0.1-0.1,0.1H173.7z
		 M174.6,63.1V63l0.1-0.1c-0.1,0-0.1,0-0.1,0c0,0.1,0,0.1,0,0.2c-0.2-0.3-0.2-0.7-0.2-1.1c0-0.1,0-0.1,0-0.2l-0.1,0.1
		c-0.2,0.3,0,0.7,0,1.1c0,0.5,0.1,1,0.3,1.5v-0.8c0-0.1,0-0.2,0.1-0.2c0.1,0,0.1,0,0.2,0L174.6,63.1z M176,52
		c-0.3,0.8-0.5,1.7-0.7,2.6c-0.5,1.9-0.9,3.8-1,5.8c0,0.1,0,0.3,0,0.4c0.1-0.1,0.2-0.2,0.2-0.3s0-0.2,0-0.3c0.1-0.8,0.2-1.6,0.3-2.4
		c0.1-0.4,0.2-0.8,0.2-1.1c0-0.3,0.2-0.1,0.3-0.2c0,0.1,0.1,0.1,0.1,0.2c-0.1,0.7-0.2,1.4-0.3,2.2c0,0.2-0.1,0.5-0.2,0.7v-0.3
		c0,0-0.1,0.1-0.1,0.1c0,0,0.1,0.1,0.1,0.2c0,0.1,0,0.2,0,0.3c0,0.1,0,0.1,0.1,0.2l0.1-0.1c0.4-0.3,0.7-0.6,1-1l1-1.2
		c0.4-0.4,0.8-0.8,1.2-1.3c0.6-0.7,1.1-1.5,1.7-2.2s1.2-1.6,1.7-2.4s1.2-1.7,1.7-2.6s0.9-1.7,1.3-2.5l0.9-1.9h-0.1
		c0.1-0.1,0.1-0.2,0.2-0.3c0.2,0.1,0.2,0,0.3-0.1c0.1-0.3,0.3-0.6,0.4-0.9c0-0.3,0.1-0.6,0.2-0.9c0.3-0.4,0.4-0.9,0.4-1.4l0,0
		c0,0,0,0,0-0.1l0.1-1.1c0.1-0.4,0.2-0.7,0.2-1.1c0-0.4,0-0.7,0-1.1c0-0.3,0.1-0.6,0-0.9s-0.1-0.9-0.4-1.3c-0.1-0.1-0.1-0.1-0.2-0.1
		c0,0.1,0,0.2,0,0.2s0,0.4,0,0.6c0,0.1,0,0.1,0,0.2c0-0.1,0-0.1-0.1-0.2c0-0.2-0.1-0.5-0.2-0.7c0-0.1-0.2-0.2-0.2-0.2
		c-0.4,0-0.7,0.1-1,0.3c-1.1,1.2-2.1,2.6-2.9,4c-0.3,0.5-0.5,0.9-0.8,1.4c-0.6,1.1-1.2,2.1-1.8,3.2c-0.4,0.8-0.7,1.6-1.1,2.4
		c0,0.1-0.1,0.1-0.2,0.3c-0.1-0.2,0-0.4,0.2-0.6c0.2-0.4,0.3-0.8,0.4-1.2c0.6-1.3,1.2-2.6,2-3.9c0.3-0.5,0.6-1,0.9-1.5
		s0.6-1.2,1-1.8c-0.3,0-0.2,0.3-0.4,0.5c-0.4,0.6-0.8,1.3-1.2,2l-0.7,1.2c-0.1,0.3-0.3,0.6-0.4,0.9c-0.6,1-1.1,2.1-1.6,3.2l-0.6,1.4
		c-0.2,0.5-0.5,1-0.7,1.5l-1.1,3.2C176.1,52,176,52,176,52 M174.8,63.7v0.5c0,0.2,0,0.4,0.2,0.3s0.1-0.3,0-0.4
		C174.9,64,174.9,63.8,174.8,63.7z M175,64.8c0,0.1,0,0.1,0,0.2c0.1,0.6,0.3,1.1,0.6,1.6c0-0.2,0.1-0.5,0-0.6s0-0.5-0.1-0.5
		s-0.1-0.3-0.2-0.3c0-0.1,0-0.2,0.1-0.2C175.3,64.9,175.1,64.8,175,64.8L175,64.8z M175.2,53.2L175.2,53.2l-0.2,0.1
		C175.1,53.2,175.2,53.2,175.2,53.2z M175.2,56.1c0-0.1,0.1-0.2,0.2-0.3l0.1,0.3c0,0,0.1,0,0.1,0c0,0.1-0.1,0.1-0.1,0.2
		C175.3,56.2,175.2,56.1,175.2,56.1z M177.4,49.5c0.1-0.1,0.2-0.3,0.3-0.4c0,0.2-0.1,0.4-0.2,0.5c-0.2,0.6-0.4,1.2-0.7,1.7
		c-0.5,1.2-0.6,2.5-1.1,3.7c-0.1,0.2,0,0.6-0.3,0.8h-0.2c0.1-0.4,0.2-0.7,0.3-1c0-0.1,0-0.2,0.1-0.3c0-0.3,0.2-0.6,0.2-0.9
		s0.2-0.6,0.3-0.9s0.3-0.7,0.4-1.1c0.1-0.1,0.1-0.2,0.1-0.3c0.1-0.5,0.3-1,0.6-1.5C177.4,49.7,177.4,49.5,177.4,49.5z M176.7,48
		c-0.1,0.1-0.1,0.2-0.2,0.3L176.7,48z M176.8,47.4L176.8,47.4c0.1,0.2,0,0.3,0,0.4l-0.1-0.1C176.7,47.6,176.8,47.5,176.8,47.4z
		 M177.2,48v0.2C176.9,48,177.1,48.1,177.2,48L177.2,48z M177.2,48.2L177.2,48.2L177.2,48.2z M177.3,46.4l0.1-0.2c0,0,0,0.1,0,0.1
		L177.3,46.4C177.3,46.4,177.2,46.4,177.3,46.4L177.3,46.4z M177.9,46.6l-0.1,0.1c0,0-0.1,0-0.1,0s0-0.1,0.1-0.1
		S177.8,46.6,177.9,46.6L177.9,46.6z M178.6,47.1c0,0.1,0,0.3,0,0.4c-0.2,0.4-0.4,0.8-0.6,1.3c0,0-0.1,0-0.1,0h-0.1
		c-0.1-0.1-0.1-0.3,0.1-0.4c0.1,0,0.1-0.1,0.2-0.1c-0.1-0.5,0.3-0.7,0.3-1.1C178.3,47,178.4,47,178.6,47.1L178.6,47.1z M178,45.1
		c0,0,0-0.1,0-0.1c0.1-0.3,0.3-0.5,0.4-0.8l0.1-0.1c0,0,0,0.1,0,0.1c-0.1,0.3-0.3,0.6-0.4,0.8L178,45.1z M179,43.1l-0.1,0.1
		c0-0.1,0-0.1,0-0.2c0-0.1,0.1-0.3,0.2-0.4c0,0,0.1,0,0.1,0c0,0,0,0.1,0,0.1C179.1,42.8,179,43,179,43.1L179,43.1z M179.2,43.8
		L179.2,43.8v-0.2V43.8z M180.2,41.5L180.2,41.5z M186.9,41.5c0,0,0,0.1,0,0.2l-0.1,0.3l-0.1-0.1C186.8,41.7,186.8,41.6,186.9,41.5
		L186.9,41.5z"/>
	<path class="st0" d="M200.1,53.9c0.1,0,0.2,0,0.3,0c-0.1,0.3-0.3,0.5-0.5,0.7c-0.5,0.3-0.7,1-1.4,1c-0.1,0-0.3-0.1-0.2,0.1
		c-0.3,0.3-0.6,0.7-1,1c-0.3,0.3-0.6,0.5-0.9,0.7c-0.4,0.2-0.9,0.5-1.2,0.7c-0.1,0-0.1,0.1-0.2,0.1c-0.3,0.1-0.6,0.4-0.9,0.5
		c-0.2,0-0.4,0.2-0.5,0.3c-0.4,0.2-0.8,0.5-1.3,0.7c-0.7,0.4-1.5,0.7-2.3,1c-0.9,0.4-1.9,0.6-2.9,0.6c-1-0.1-1.9-0.5-2.5-1.2
		c-0.4-0.4-0.7-0.9-0.9-1.5c-0.3-1.2-0.1-2.4,0.5-3.5c0.5-0.9,1.1-1.8,1.8-2.6c0.4-0.4,0.9-0.8,1.3-1.2c0.1-0.1,0.3-0.1,0.1-0.3
		s-0.1-0.4,0-0.5c0.2-0.2,0.6-0.2,0.8-0.1c0.2,0.1,0.5,0.1,0.8,0.1c0.4,0,0.7,0.3,1,0.5c0.1,0.8,0.9,1.4,0.6,2.2
		c-0.1,0.9-0.7,1.8-1.5,2.3c-0.4,0.2-0.8,0.5-1.2,0.8c-0.1,0.1-0.3,0.1-0.5,0.2l-1.3,0.6c-0.4,0.2-0.9,0.3-1.3,0.1
		c-0.2,0-0.3,0-0.3,0.2c0,0.4,0,0.9,0.1,1.3c0.1,0.5,0.6,0.9,1.1,0.9c0.6,0.1,1.3,0.1,1.9,0c0.7-0.2,1.3-0.4,1.9-0.7
		c0.3-0.1,0.7-0.3,1-0.5c0.2-0.1,0.3-0.1,0.5-0.1c0.8-0.1,1.6-0.4,2.3-0.8c0.6-0.2,1.1-0.5,1.6-0.8c0.3-0.1,0.7-0.2,1-0.4v0.1
		c0.1,0,0.1,0.1,0.1,0.1l0,0c0,0,0-0.1,0-0.1c0,0-0.1,0-0.1,0c0-0.1,0.1-0.2,0.2-0.2c0.8-0.4,1.6-0.9,2.4-1.4l0.8-0.4L200.1,53.9z
		 M184.8,56.9c0,0,0.1,0,0.2,0c-0.1-0.2,0.1-0.2,0.3-0.3c0.2,0,0.3-0.2,0.2-0.4c0,0,0,0,0,0c-0.1,0,0-0.1,0.1-0.2
		c0.9-0.7,1.8-1.5,2.5-2.4c0.4-0.4,0.6-0.9,0.7-1.5c0-0.4,0-0.5-0.4-0.3c-0.1,0-0.2,0.1-0.2,0.2c-0.4,0.4-0.8,0.8-1.2,1.2
		c-0.6,0.8-1.2,1.5-1.8,2.2c-0.3,0.4-0.5,0.8-0.5,1.3C184.7,56.8,184.7,56.9,184.8,56.9L184.8,56.9z M200.1,53.6L200.1,53.6
		c0,0,0.1,0,0.1,0S200.1,53.6,200.1,53.6L200.1,53.6z M200.5,53.4c-0.1,0-0.1,0-0.2,0.1C200.3,53.5,200.4,53.4,200.5,53.4
		L200.5,53.4z M200.6,53.7c-0.1,0.1-0.2,0.1-0.2,0.1C200.4,53.8,200.5,53.8,200.6,53.7L200.6,53.7z"/>
	<path class="st0" d="M210.9,57.1c0.1,0,0.2,0,0.3,0.1l-0.2,0.2c-0.5,0.4-1,0.8-1.7,0.9c-0.8,0.3-1.6,0.7-2.4,0.9
		c-1.3,0.4-2.6,0.8-4,1.2c-1.3,0.3-2.6,0.2-3.8-0.4c-0.5-0.3-0.9-0.8-1.1-1.4c-0.3-0.9-0.3-1.8,0-2.7c0.4-1.2,1.2-2.3,2.3-2.9
		c0.8-0.7,1.8-1.3,2.7-1.7c0.5-0.2,1-0.3,1.5-0.5c0.2-0.1,0.5-0.1,0.7,0.1c0.5,0.4,0.9,0.8,1.3,1.2c0.2,0.3,0.3,0.6,0.3,0.9
		c-0.2,0.8-0.4,1.5-1.3,1.8c-0.5,0.2-1.1-0.2-1.2-0.7c0-0.1,0-0.1,0-0.2c0,0,0-0.1,0-0.1l0.8-1c0.1,0,0.1-0.1,0.1-0.2s-0.1,0-0.2,0
		c-1.1,0.3-2.2,0.8-3.1,1.5c-0.8,0.5-1.6,1.2-2.2,2c-0.3,0.4-0.5,0.8-0.7,1.3c-0.1,0.4,0.1,0.8,0.4,1c0.6,0.4,1.3,0.6,2,0.4
		c0.8-0.1,1.6-0.1,2.4-0.2c0.2,0,0.4-0.1,0.6-0.2c0.7-0.2,1.5-0.4,2.2-0.5c0.3-0.1,0.6-0.2,0.9-0.3l-0.3,0.3c-0.1,0-0.1,0.1-0.1,0.2
		c0.1,0,0.1,0.1,0.2,0.1c0.2,0,0.4,0,0.6-0.1c0.6-0.2,1.2-0.5,1.8-0.8c0.2-0.1,0.5-0.1,0.7-0.1C210.4,57.3,210.6,57.1,210.9,57.1z
		 M206.4,58.2c-0.2,0.1-0.5,0.1-0.8,0.2c0,0,0,0.1,0.1,0.1L206.4,58.2L206.4,58.2C206.5,58.2,206.5,58.2,206.4,58.2 M213.9,55.4
		l-2.2,1.7c0,0-0.1,0-0.2,0l-0.1-0.1c0,0,0-0.1,0.1-0.1c0.3-0.2,0.6-0.4,0.9-0.6c0.2-0.2,0.5-0.2,0.4-0.7c0,0,0.1-0.1,0.1-0.1
		c0.3-0.2,0.5-0.3,0.8-0.5c0.1,0,0.1,0,0.2,0S213.9,55.2,213.9,55.4L213.9,55.4z M212.7,55.4c0.2-0.1,0.4-0.2,0.7-0.3
		C213.2,55.2,213,55.2,212.7,55.4L212.7,55.4z M214,54.9c0,0-0.1,0-0.1,0l0,0H214z"/>
	<path class="st0" d="M224.2,46.9c0.1,0,0.2,0.1,0.2,0.1c-0.1,0.1-0.1,0.1-0.2,0.2c-0.1,0.1-0.3,0.1-0.5,0.1c-1,0-1.9,0-2.9-0.1
		c-0.9,0-1.6,0-2.4,0.1c-0.1,0-0.3,0.1-0.3,0.2c-0.1,0.3-0.3,0.6-0.3,0.9c-0.1,0.2-0.2,0.4-0.3,0.6c-0.4,0.4-0.6,0.9-0.6,1.5
		c0,0.1-0.1,0.2-0.2,0.3c-0.3,0.5-0.6,1-0.7,1.6c0,0.1,0,0.2-0.1,0.3c-0.8,1.6-1.4,3.3-1.8,5.1c-0.3,0.8-0.5,1.6-0.7,2.4
		c-0.1,0.6-0.2,1.2-0.1,1.8c0,0.3,0.1,0.4,0.5,0.4s0.7-0.2,1-0.3l0.7-0.4c0,0,0.1-0.1,0.1-0.1c0.2-0.5,0.7-0.6,1.1-0.9l0.3-0.3
		l1.1-0.9c0.3-0.2,0.6-0.4,0.9-0.6c-0.2,0.2-0.4,0.5-0.6,0.8c0,0.1,0,0.1,0,0.2c0.1,0,0.1,0,0.2,0c1.2-0.9,2.3-1.9,3.3-3.1
		c0.1-0.1,0.2-0.2,0.3-0.3c0.1,0,0.2-0.2,0.3-0.2s0.1,0.3,0,0.5c-0.5,0.7-0.9,1.4-1.4,2c-0.4,0.5-0.9,1-1.3,1.4
		c-0.3,0.3-0.6,0.6-0.8,0.9l-0.2,0.3c-0.1,0.1-0.1,0.3-0.2,0.3c-0.3,0.1-0.5,0.3-0.7,0.5c-0.5,0.5-0.9,0.9-1.5,1.4
		c-0.5,0.3-1.1,0.6-1.7,0.6c-0.1,0-0.3,0-0.4,0c-0.1,0-0.3,0-0.3,0c-0.5-0.4-1.2-0.7-1.5-1.3c-0.3-0.4-0.5-0.9-0.5-1.5
		c-0.2-1.1-0.2-2.2,0.2-3.3c0.1-0.1,0.1-0.1,0.1-0.2c0,0.1,0,0.1,0,0.2c-0.1,0.3-0.2,0.7-0.2,1c-0.1,0,0,0.1,0,0.2
		c0-0.1,0.1-0.1,0.2-0.2l0.1-0.6c0.4-1.7,1-3.2,1.6-4.8c0.3-0.9,0.7-1.8,1.1-2.6s0.7-1.7,1-2.5c0-0.1,0-0.1,0-0.2l-0.1,0.2
		c-0.2,0.4-0.4,0.8-0.6,1.3l-1,2.2c-0.2,0.6-0.4,1.2-0.6,1.8c-0.1,0.4-0.3,0.7-0.6,1c0-0.1,0-0.3,0-0.4c0.4-1.1,0.8-2.1,1.3-3.2
		s1.1-2.4,1.5-3.6c0.2-0.4,0.1-0.4-0.2-0.4c-0.9,0-1.8,0.2-2.7,0.4c-0.7,0.2-1.3,0.4-2,0.6c-0.9,0.3-1.8,0.3-2.6,0
		c-0.3-0.1-0.4-0.2-0.3-0.6c0-0.3,0.1-0.5,0.2-0.8c0.1-0.2,0.2-0.5,0.4-0.6c0.7-0.5,1.5-0.9,2.3-1c0.4,0,0.8-0.1,1.2-0.2
		c0.2,0,0.2,0.1,0.2,0.2c0.1,0,0.2,0,0.3,0c0.1,0,0.1,0,0.2,0c-0.1,0-0.1,0-0.2-0.1v-0.1c0.2,0.1,0.6-0.3,0.8,0.1
		c0,0.1,0.3,0.1,0.5,0.1c0.6,0,1.1,0,1.6,0c0.3,0,0.7,0,1,0c0.2,0,0.3,0,0.4-0.3c0.7-1.5,1.5-3,2.2-4.5l0.3-0.6
		c0.1-0.3,0.2-0.7,0.2-1c-0.1-0.5,0.1-0.7,0.6-0.5s0.9,0.3,1.4,0.5c0.3,0.1,0.4,0.5,0.3,0.8c-0.3,0.7-0.7,1.5-1.1,2.1
		c-0.2,0.3-0.4,0.7-0.5,1.1c-0.4,0.8-0.8,1.7-1.2,2.5c-0.1,0.2-0.2,0.4,0.2,0.3c0.1-0.1,0.3-0.1,0.4,0c0,0,0,0.1,0,0.1l0,0l-0.1-0.1
		c0.2-0.1,0.3,0,0.5,0.1s0.4,0.2,0.6-0.1c0.1,0.1,0.1,0.2,0.2,0.2s0.2,0.1,0.3-0.1s0.1-0.1,0.1-0.1s0.2,0,0.2,0
		c-0.1,0.4,0.1,0.1,0.2,0.1c0.5,0,1-0.3,1.5,0.2c-0.1,0-0.2,0.1,0,0.2S224,46.7,224.2,46.9z M212.8,55.6c0.1-0.2,0.2-0.4,0.3-0.7
		c-0.1,0.3-0.1,0.7-0.2,1.1l-0.3,1.2c0,0.1,0,0.2-0.1,0.4c-0.1,0.1-0.2,0.2-0.2,0.2v-0.3L212.8,55.6z M219.1,58.8l0.3-0.3
		C219.4,58.7,219.3,58.8,219.1,58.8z M219.5,58.4c0.1,0,0.1-0.1,0.1-0.1s0,0,0,0.1S219.5,58.5,219.5,58.4
		C219.4,58.5,219.4,58.5,219.5,58.4C219.3,58.5,219.4,58.4,219.5,58.4z M222.4,55.2c0.1,0,0.2,0,0.2,0.1c0,0-0.1,0.1-0.1,0.1
		C222.4,55.4,222.4,55.3,222.4,55.2C222.4,55.3,222.4,55.2,222.4,55.2z M222.9,54.4h0.2v0.2c-0.2,0.2-0.4,0.3-0.6,0.5h-0.1
		c0,0,0-0.1,0.1-0.1C222.7,54.7,222.8,54.6,222.9,54.4z M222.9,46.3C222.9,46.3,222.9,46.2,222.9,46.3c-0.1-0.1-0.1-0.1-0.1-0.1
		S222.8,46.3,222.9,46.3L222.9,46.3z M223.8,46.3c-0.1-0.1-0.3-0.1-0.4-0.1c0.1-0.1,0.2-0.2,0.3-0.2c0.1,0,0.2,0,0.3,0
		c0,0.1,0.1,0.2,0.2,0.3H223.8z"/>
	<path class="st0" d="M229.6,57.3l-0.3,0.6c0.2-0.1,0.4-0.2,0.6-0.3c0.4-0.3,0.8-0.6,1.2-0.9c0.1,0,0.1,0,0.1-0.1
		c0.1,0,0.2-0.1,0.2-0.2c0,0.1,0,0.3-0.1,0.4l-1.3,1.4c-0.2,0.2-0.4,0.4-0.7,0.5c-0.1,0.2-0.3,0.3-0.4,0.5c-0.6,0.5-1.1,1-1.6,1.4
		c-0.7,0.5-1.5,0.8-2.4,0.8c-1,0-2-0.6-2.3-1.6c-0.3-0.9-0.4-2-0.1-2.9c0.3-1,0.6-2,1.1-3c0.1-0.3,0.3-0.6,0.5-0.8
		c0.5-0.9,1-1.8,1.5-2.7c0.2-0.4,0.4-0.5,0.8-0.2c0.3,0.2,0.5,0.4,0.9,0.5c0.3,0,0.4,0.3,0.4,0.6c0,0.1-0.1,0.2-0.2,0.3
		c-1,1.2-1.9,2.5-2.6,3.8c-0.2,0.5-0.4,1.1-0.6,1.6c-0.2,0.8-0.4,1.6-0.5,2.4c-0.1,0.5,0,0.6,0.5,0.5c0.6-0.2,1.2-0.4,1.7-0.6
		c0.3-0.2,0.6-0.2,1-0.4c0.5,0,0.9-0.5,1.3-0.8l1.3-1c0.1,0,0.1,0,0.2,0C229.4,57.3,229.4,57.3,229.6,57.3z M232.1,54.8
		c0,0.4-0.3,0.8-0.7,0.9c-0.3,0.5-0.7,0.8-1.1,1.1c-0.2,0.2-0.4,0.3-0.6,0.4c0-0.1,0-0.2,0.1-0.3h-0.2c0.6-0.5,1.1-1,1.8-1.5
		C231.5,55.2,231.7,54.9,232.1,54.8z M231,40.6c-0.3-0.3-0.4-0.7-0.2-1.1c0.3-0.8,0.8-1.4,1.5-1.8c0.3-0.2,0.6-0.3,0.9-0.2
		c0.4,0.2,0.7,0.6,0.8,1.1c-0.1,0.2-0.2,0.4-0.3,0.6c-0.5,0.5-1,1-1.5,1.5c-0.2,0.3-0.6,0.3-0.9,0.1C231.1,40.7,231,40.7,231,40.6z
		 M232,54.8L232,54.8z M232,54.8c0.2-0.2,0.4-0.4,0.7-0.6C232.5,54.4,232.3,54.6,232,54.8L232,54.8z M233.4,53.5c0,0,0.1,0,0.2,0
		l-0.1,0.1c-0.1,0.1-0.1,0.1-0.2,0.2l-0.6,0.4c0.2-0.2,0.4-0.3,0.6-0.5S233.4,53.5,233.4,53.5L233.4,53.5z"/>
	<path class="st0" d="M247,54.2C247,54.2,246.9,54.2,247,54.2c-0.5,0.6-1.1,1.1-1.8,1.3c-0.5,0.2-1.1,0.4-1.6,0.5
		c-1.4,0.3-2.9,0.1-4.2-0.3c-0.2-0.1-0.4,0-0.4,0.2c-0.3,1.3-0.9,2.5-1.8,3.4c-0.5,0.6-1,1-1.6,1.4c-0.5,0.4-1.1,0.6-1.7,0.7
		c-0.7,0-1.3-0.3-1.8-0.8c-1-1.1-1.1-2.7-0.4-3.9c0.1-0.6,0.4-1.1,0.9-1.4c0-0.4,0.2-0.7,0.5-1c0.5-0.6,0.9-1.1,1.3-1.8
		c0.5-0.6,1.1-1.1,1.8-1.4c0.2-0.1,0.4-0.1,0.6,0c0.6,0.2,1.2,0.5,1.6,0.9c0,0,0,0.2,0,0.2c-0.3,0.3-0.6,0.6-1,0.8
		c-1.3,0.7-2.4,1.7-3.2,3c-0.7,0.9-1.3,2-1.5,3.2c0,0.5,0.1,0.6,0.5,0.5c0.8-0.3,1.6-0.9,2.1-1.6l1-1.1c0.2-0.2,0.4-0.4,0.4-0.7
		c0-0.3,0.1-0.1,0.2,0s0.1,0,0.1,0c0.2-0.5,0.3-1.1,0.2-1.6c-0.3-0.1-0.2-0.6-0.4-0.8c0.1,0,0.1-0.1,0.2-0.1
		c0.6,0.1,1.2,0.3,1.7,0.6c0.9,0.5,1.8,0.6,2.8,0.5c0.9,0,1.9-0.2,2.7-0.3l2.2-0.4h0.5C246.9,54.1,247,54.1,247,54.2z M237.2,54.7
		L237.2,54.7z"/>
	<path class="st0" d="M260.4,57.5c0.1-0.1,0.2-0.1,0.3-0.1c0,0.1,0,0.2,0,0.3c-0.2,0.3-0.4,0.6-0.6,0.8c-0.4,0.6-1,1.2-1.6,1.6
		c-0.3,0.2-0.7,0.4-1,0.6c-0.8,0.5-1.8,0.6-2.6,0.2c-0.8-0.3-1.4-0.8-1.8-1.5c-0.3-0.6-0.5-1.1-0.6-1.7c-0.1-0.7-0.2-1.4-0.4-2.1
		c0,0,0,0,0-0.1c-0.2-0.8-0.6-0.9-1.3-0.6c-0.6,0.2-1.1,0.5-1.5,0.9c-0.4,0.4-0.9,0.7-1.4,1s-1,1-1.5,1.6c-0.7,0.7-1.2,1.5-1.9,2.2
		c-0.2,0.3-0.5,0.5-0.9,0.5c-0.4,0.1-0.7,0-0.9-0.3c-0.1-0.3-0.2-0.5-0.4-0.8c-0.1-0.2-0.1-0.5,0.1-0.7c0.3-0.7,0.6-1.3,0.9-1.9
		c1.2-2.1,2.3-4.3,3.2-6.5c0.1-0.3,0.2-0.6,0.3-0.8s0.3-0.5,0.1-0.8s0.1-0.4,0.3-0.4c0.6,0.2,1.1,0.5,1.5,1c0.2,0.3,0.2,0.6,0.1,0.9
		l-0.8,1.6c-0.1,0.2-0.2,0.4-0.3,0.6c-0.3,0.5-0.5,1-0.8,1.6c0,0,0,0.1,0,0.2c0.1,0,0.2,0,0.2-0.1c0.1,0,0.1-0.1,0.2,0
		s0.3,0,0.5-0.1l0.5-0.1c-0.2,0.2-0.5,0.5-0.7,0.7c-0.1,0-0.1,0.1-0.1,0.2h0.1c0.1,0.1,0.1,0.2,0.1,0.1c0.2-0.2,0.5-0.4,0.7-0.6
		c0.1,0,0.2,0,0.3-0.1l0.8-0.6c0,0,0-0.1,0.1-0.1h-0.2c-0.1,0-0.2,0.1-0.4,0.2s-0.1,0-0.2,0c-0.1-0.1-0.1-0.1-0.1-0.2
		c0.2-0.1,0.3-0.1,0.5-0.1l0,0c0,0,0,0,0-0.1v-0.1l0.4-0.3c0.4-0.1,0.8-0.1,1.2,0.1c1,0.4,1.8,1.2,2.3,2.2c0.1,0.4,0.2,0.8,0.2,1.1
		l0.1,0.8c0,0.1,0,0.2-0.1,0.4s0.1,0.3,0.1,0.5s0.1,0.1,0.1,0.1c0-0.1,0-0.2,0-0.2v-0.1c0,0,0.1,0,0.1,0l0.3,0.8c0,0,0,0.1,0,0.1
		c0,0-0.1,0-0.1,0c-0.1-0.2-0.1-0.3-0.2-0.5c0.1,0.8,0.1,0.8,0.9,0.8c0.5,0,1.1-0.1,1.5-0.4c0.4-0.2,0.9-0.3,1.3-0.5s1-0.6,1.5-0.8
		c0,0,0.1,0,0.2,0c-0.1,0.1,0,0.1,0.1,0.2c0,0.1,0,0.2-0.1,0.3c0,0,0,0.1,0,0.1c0.1,0,0.1,0,0.2-0.1C259.6,58.1,260,57.8,260.4,57.5
		z M247.2,55.8c0.1-0.1,0.3-0.2,0.4-0.3c-0.2-0.1-0.3,0.2-0.4,0.1s-0.2-0.1-0.2,0.1C247,55.7,247.2,55.8,247.2,55.8z M248.5,54.5
		C248.5,54.5,248.4,54.5,248.5,54.5c-0.1-0.1-0.1-0.2-0.1-0.2l0.2,0.1C248.6,54.4,248.5,54.5,248.5,54.5z"/>
	<path class="st0" d="M311,25.6c-4.4,1.5-7.5,5.5-8,10.1c-0.5,6.1,5.7,13.9,9.6,17.4c4,3.5,10.8,9.2,10.8,9.2v3.3l-27.4-19.4
		l-15.6,28.3h-1.6V49.6h14.3v-5.3l-10.8-7.9c-0.6-0.5-1.5-0.6-2.2-0.3c-1.4,0.6-0.9,2-1.5,2.4s-1.8-1.8-1.2-3.8s2.3-3.6,5.7-4.5
		c2.5-0.5,5.2-0.5,7.7,0.1c0.9,0.2,3.1,1,3.1,1c-1.1-2.3-3-4.1-5.3-5.2c-0.7-0.3-1.6-0.5-2.1-0.7L311,25.6z"/>
	<polygon class="st0" points="339.3,44 343.4,44 343.4,36.9 350.2,36.9 350.2,33.2 343.4,33.2 343.4,29.5 351.2,29.5 351.2,25.8 
		339.3,25.8 	"/>
	<path class="st0" d="M364,25.7h-3.8L353.7,44h4.1l1.3-3.9h5.9l1.3,3.9h4.2L364,25.8V25.7z M363.7,36.5h-3.4l1.7-5L363.7,36.5z"/>
	<polygon class="st0" points="379.6,25.8 375.5,25.8 375.5,44 386.8,44 386.8,40.2 379.6,40.2 	"/>
	<polygon class="st0" points="406.7,25.8 401.8,25.8 396.3,33.1 396.3,25.8 392.2,25.8 392.2,44 396.3,44 396.3,38.6 397.7,36.8 
		402,43.9 402.1,44 406.9,44 400.5,33.5 	"/>
	<polygon class="st0" points="415.7,36.7 422.5,36.7 422.5,33 415.7,33 415.7,29.5 423.5,29.5 423.5,25.8 411.6,25.8 411.6,44 
		423.6,44 423.6,40.3 415.7,40.3 	"/>
	<polygon class="st0" points="439.6,35.7 433.1,25.9 433.1,25.8 429.4,25.8 429.4,44 433.4,44 433.4,33.6 440.2,44 443.6,44 
		443.6,25.8 439.6,25.8 	"/>
	<path class="st0" d="M456.9,33.1c-2.8-1.2-3.3-1.6-3.3-2.5s0.7-1.4,1.9-1.4c1.4,0.1,2.7,0.7,3.7,1.6l0.2,0.1l2.3-3.1l-0.1-0.1
		c-1.6-1.5-3.7-2.3-5.9-2.2c-3.5,0-6,2.2-6,5.4v0c0,3,1.8,4.3,5.2,5.7c2.5,1,2.9,1.5,2.9,2.3s-0.8,1.6-2.1,1.6
		c-1.6-0.1-3.2-0.8-4.3-2l-0.1-0.1l-2.4,3l0.1,0.1c1.8,1.7,4.2,2.7,6.7,2.7c3.7,0,6.2-2.2,6.2-5.5l0,0
		C461.8,35.6,459.9,34.3,456.9,33.1z"/>
	<polygon class="st0" points="466,29.6 470.4,29.6 470.4,44 474.5,44 474.5,29.6 479,29.6 479,25.8 466,25.8 	"/>
	<polygon class="st0" points="488.4,36.7 495.3,36.7 495.3,33 488.4,33 488.4,29.5 496.2,29.5 496.2,25.8 484.4,25.8 484.4,44 
		496.3,44 496.3,40.3 488.4,40.3 	"/>
	<rect x="502.3" y="25.8" class="st0" width="4.1" height="18.2"/>
	<polygon class="st0" points="523.2,35.7 516.7,25.9 516.7,25.8 513,25.8 513,44 517,44 517,33.6 523.7,44 527.2,44 527.2,25.8 
		523.2,25.8 	"/>
	<polygon class="st0" points="537.7,36.7 544.6,36.7 544.6,33 537.7,33 537.7,29.5 545.5,29.5 545.5,25.8 533.7,25.8 533.7,44 
		545.6,44 545.6,40.3 537.7,40.3 	"/>
	<path class="st0" d="M561.6,37.2c2.1-0.9,3.4-3.1,3.2-5.3v-0.1c0.1-1.6-0.5-3.1-1.6-4.3c-1.4-1.2-3.2-1.9-5-1.8h-6.9V44h4.1v-5.9h2
		l3.2,5.8l0,0.1h4.7L561.6,37.2z M555.5,29.5h2.5c1.3,0,2.8,0.4,2.8,2.5c0.1,1.3-0.9,2.4-2.3,2.5c-0.1,0-0.3,0-0.4,0h-2.5
		L555.5,29.5z"/>
	<path class="st0" d="M339.4,56.3h1.6v6.8h7.3v-6.8h1.6v15.2h-1.6v-6.9h-7.3v6.9h-1.6L339.4,56.3z"/>
	<path class="st0" d="M355.9,64v-0.2c0-4.4,2.7-7.7,6.5-7.7s6.5,3.3,6.5,7.7V64c0,4.4-2.6,7.7-6.5,7.7S355.9,68.5,355.9,64z
		 M367.2,64v-0.2c0-3.7-2-6.3-4.8-6.3s-4.8,2.6-4.8,6.2V64c0,3.7,2.1,6.3,4.9,6.3S367.2,67.7,367.2,64L367.2,64z"/>
	<path class="st0" d="M377.2,57.8H373v-1.5h10.2v1.5h-4.3v13.7h-1.6L377.2,57.8z"/>
	<path class="st0" d="M388.6,56.3h9.3v1.5h-7.6v5.3h6.8v1.5h-6.9V70h7.7v1.5h-9.4L388.6,56.3z"/>
	<path class="st0" d="M403.6,56.3h1.6V70h7v1.5h-8.6V56.3z"/>
	<path class="st0" d="M433.3,69.5c-1,1.4-2.7,2.2-4.4,2.2c-2.2,0.1-4.2-1.6-4.3-3.8c0-0.1,0-0.2,0-0.3v-0.1c0-1.9,1.2-3.4,3.3-4.5
		c-0.9-1-1.4-2.2-1.5-3.5v-0.1c0-1.9,1.5-3.4,3.4-3.4c0.1,0,0.1,0,0.2,0c1.8-0.1,3.3,1.3,3.4,3.1c0,0,0,0.1,0,0.1v0.1
		c0,1.8-1.2,3-3.2,4l3.1,3.7c0.6-1,1.1-2.1,1.5-3.3l1.3,0.5c-0.5,1.4-1.1,2.7-1.8,3.9l2.3,2.6l-1.2,0.9L433.3,69.5z M432.3,68.4
		l-3.6-4.3c-1.4,0.5-2.4,1.8-2.5,3.4v0.1c-0.1,1.5,1.1,2.7,2.6,2.8c0.1,0,0.1,0,0.2,0C430.4,70.2,431.6,69.5,432.3,68.4z
		 M431.9,59.5L431.9,59.5c0.1-1-0.7-1.9-1.8-2c0,0-0.1,0-0.1,0c-1.1,0-2,0.8-2.1,1.9c0,0,0,0.1,0,0.1l0,0c0,0.9,0.4,1.6,1.4,2.9
		C431,61.7,431.9,60.7,431.9,59.5z"/>
	<path class="st0" d="M448.5,69.6l1-1.2c1.1,1.2,2.7,1.9,4.3,1.9c1.8,0,3-1.1,3-2.5l0,0c0-1.3-0.6-2.1-3.4-3
		c-3.1-1.2-4.4-2.3-4.4-4.4l0,0c0-2.3,1.9-4,4.5-4c1.7,0,3.3,0.6,4.5,1.7l-1,1.3c-1-0.9-2.3-1.5-3.6-1.5c-1.7,0-2.9,1.1-2.9,2.4l0,0
		c0,1.3,0.7,2.1,3.5,3.1c3.1,1.1,4.2,2.4,4.2,4.4l0,0c0,2.4-2,4.1-4.7,4.1C451.8,71.7,449.9,71,448.5,69.6z"/>
	<path class="st0" d="M464.2,56.3h4.6c3.2,0,5.3,1.8,5.3,4.8l0,0c0,3.2-2.4,4.9-5.5,5h-2.7v5.3h-1.6V56.3z M468.6,64.7
		c2.4,0,3.9-1.4,3.9-3.4l0,0c0-2.2-1.5-3.3-3.8-3.3h-2.8v6.8L468.6,64.7z"/>
	<path class="st0" d="M482.8,56.2h1.6l5.8,15.3h-1.7l-1.5-4h-6.8l-1.5,4H477L482.8,56.2z M486.5,66.1l-2.9-7.7l-2.9,7.7H486.5z"/>
	<path class="st0" d="M502.1,69.6l1.1-1c0.5,1,1.6,1.6,2.8,1.6c1.4,0,2.4-1,2.4-3.1V56.3h1.6v10.8c0.1,1.3-0.3,2.5-1.2,3.5
		c-0.8,0.7-1.8,1.1-2.9,1.1C504.4,71.7,502.9,70.9,502.1,69.6z"/>
	<path class="st0" d="M516.3,56.3h9.3v1.5h-7.7v5.3h6.8v1.5h-6.8V70h7.7v1.5h-9.4V56.3z"/>
	<path class="st0" d="M530.3,69.6l1-1.2c1.1,1.2,2.7,1.8,4.3,1.9c1.8,0,3-1.1,3-2.5l0,0c0-1.3-0.6-2.1-3.4-3
		c-3.1-1.2-4.3-2.3-4.3-4.4l0,0c0-2.3,1.9-4,4.5-4c1.7,0,3.3,0.6,4.5,1.7l-1,1.3c-1-0.9-2.3-1.5-3.6-1.5c-1.7,0-2.9,1.1-2.9,2.4l0,0
		c0,1.3,0.7,2.1,3.5,3.1c3.1,1.1,4.2,2.4,4.2,4.4l0,0c0,2.4-2,4.1-4.7,4.1C533.6,71.7,531.7,70.9,530.3,69.6z"/>
	<path class="st0" d="M545.4,64v-0.2c0-4.4,2.7-7.7,6.5-7.7s6.5,3.3,6.5,7.7V64c0,4.4-2.6,7.7-6.5,7.7S545.4,68.5,545.4,64z
		 M556.8,64v-0.2c0-3.7-2.1-6.3-4.8-6.3s-4.8,2.6-4.8,6.2V64c0,3.7,2,6.3,4.8,6.3S556.8,67.7,556.8,64L556.8,64z"/>
	<path class="st0" d="M564.3,56.3h1.7V70h7v1.5h-8.7L564.3,56.3z"/>
	<path class="st0" d="M577,64v-0.2c0-4.4,2.7-7.7,6.5-7.7s6.5,3.3,6.5,7.7V64c0,4.4-2.6,7.7-6.5,7.7S577,68.5,577,64z M588.3,64
		v-0.2c0-3.7-2.1-6.3-4.8-6.3s-4.8,2.6-4.8,6.2V64c0,3.7,2.1,6.3,4.8,6.3S588.3,67.7,588.3,64L588.3,64z"/>
</g>
</svg>
