<?xml version="1.0" encoding="utf-8"?>
<!-- Generator: Adobe Illustrator 28.3.0, SVG Export Plug-In . SVG Version: 6.00 Build 0)  -->
<svg version="1.1" id="Ebene_1" xmlns="http://www.w3.org/2000/svg" xmlns:xlink="http://www.w3.org/1999/xlink" x="0px" y="0px"
	 viewBox="0 0 608.5 60" style="enable-background:new 0 0 608.5 60;" xml:space="preserve">
<style type="text/css">
	.st0{fill:#00366D;}
</style>
<g>
	<path class="st0" d="M25.7,18c0.1,0.7,0,1.3-0.2,2s-0.4,1.4-0.6,2.1c-0.1,0.2-0.1,0.4-0.3,0.6c-0.1,0.2-0.3,0.4-0.2,0.6
		c0,0,0,0.1-0.1,0.1c-0.5,0.4-0.5,1.1-1,1.6c-0.1,0.2-0.3,0.4-0.4,0.6h-0.1c0,0.5-0.5,0.7-0.7,1.1c-0.1,0.3-0.3,0.6-0.5,0.8
		c-0.2,0.3-0.4,0.6-0.6,0.8c-0.5,0.5-1,1.1-1.5,1.7c-0.3,0.4-0.7,0.7-1.1,1.1c-0.3,0.3-0.7,0.5-0.9,1c0,0.1-0.3,0.1-0.4,0.2
		l-0.7,0.6c-0.4,0-0.5,0.5-0.9,0.7c0,0,0,0.2-0.2,0.1c-0.1,0-0.2,0-0.2,0.1c-0.2,0.2-0.4,0.5-0.7,0.6c-0.3,0-0.5,0.2-0.7,0.5
		c-0.1,0-0.1,0-0.2,0C13.2,35,13,35,12.8,35.2c-0.2,0.1-0.3,0.2-0.5,0.2c-0.9,0.3-1.7,0.6-2.6,0.8c-1.1,0.1-2.3-0.1-3.2-0.7
		c-0.8-0.5-1.5-1.2-2-2c-0.1-0.1-0.2-0.1-0.2,0L4,34.4c-0.2,0.6-0.4,1.2-0.5,1.7c-0.3,1-0.5,2-0.7,2.9c-0.2,1.4-0.5,2.8-0.7,4.3
		c-0.2,1.5,0.1,3.2-0.1,4.8c0,1,0,1.8,0,2.7c0,0.2,0,0.5,0,0.7s-0.1,0.3-0.3,0.2S1,51.5,0.9,51.2S0.5,51,0.4,50.7
		C0,49.8-0.1,48.9,0,48s0.1-1.8,0.1-2.6c0.1-1.3,0.2-2.7,0.3-4c0.1-0.4,0.2-0.9,0.4-1.3c0-0.1,0.3-0.3-0.1-0.4v-0.1
		c0.3-0.6,0.5-1.3,0.5-2l0.3-1c0-0.1,0.1-0.1,0.2-0.2c0-0.1-0.1-0.1-0.1-0.2c0.3-0.4,0.2-1,0.4-1.4l0.4-1.1h0.1v0.2V34h0.1v-0.2
		l-0.1-0.1v-0.3c0.1-0.2,0.3-0.4,0-0.5c-0.1-0.2-0.1-0.4,0.1-0.5l0.2,0.5h0.1v-0.4c0.1-0.1,0.4-0.2,0-0.3v0.3c-0.1,0-0.2,0-0.3-0.1
		c0.1-0.7,0.3-1.4,0.6-2c0-0.1-0.1-0.2-0.1-0.3s0.1-0.5,0.2-0.7l0.3-1.2c0-0.1,0.1-0.1,0.2-0.2l0.3-1.2l0,0l0,0l0,0L4.8,25
		c0-0.2,0.1-0.4,0.1-0.5l0.4-1.2c0-0.1,0.1-0.2,0.2-0.3l0.3-1.2l0.1-0.5C6,21,6.1,20.8,6.1,20.6s0.1-0.3,0.2-0.3s0.2-0.2,0.1-0.4
		c0-0.2,0-0.5,0-0.7c0.1-0.3,0.3-0.6,0.4-0.9c0-0.1,0-0.3,0-0.4c0,0.1-0.1,0.2-0.2,0.4S6.5,19,6.2,19.2v-0.5
		c0.3-0.6,0.5-1.2,0.6-1.8c0-0.5,0.2-0.9,0.5-1.3c0-0.1,0.1-0.3,0.1-0.4c-0.2-0.3,0.1-0.4,0.1-0.6l0.2-0.7l0,0
		c0.4-1,0.7-1.9,0.9-2.9c0.1-0.5,0.3-1,0.4-1.5c0.1-0.3,0.1-0.6,0.1-0.8c0-0.4,0-0.4,0.4-0.2c0.5,0.2,1,0.4,1.4,0.5
		c0.2,0.2,0.3,0.5,0.2,0.8c-0.3,0.7-0.6,1.4-0.9,2.1c-0.4,1.2-0.9,2.5-1.3,3.7L7,21.3l-1.1,3.6c-0.2,0.6-0.4,1.2-0.6,1.8
		c-0.3,0.9-0.5,1.8-0.8,2.7l-0.6,2c-0.1,0.3-0.1,0.6,0,0.9c0,0,0,0.2-0.1,0.3c-0.3,0-0.2,0.2-0.1,0.4c-0.1,0.2-0.3,0.3-0.1,0.5
		l-0.1,0.4c0.3-0.1,0.1-0.3,0.1-0.4L4,33.3l0.1-0.2v0.2c0,0.1,0,0.1,0,0.2l0.1-0.1c0.1-0.2,0.1-0.5,0.1-0.8s0.1-0.6,0.3-0.9
		c0.4-0.6,0.7-1.2,1-1.8s0.7-1.5,1.1-2.2c0.5-0.9,1.1-1.8,1.7-2.6c0.8-1.2,1.6-2.3,2.5-3.3l2.8-3c0.2-0.2,0.5-0.4,0.7-0.6
		c0.4-0.5,0.9-0.8,1.4-1.2s1-0.7,1.5-1s0.7-0.5,1.1-0.8c0.6-0.3,1.2-0.5,1.9-0.8c0.5-0.1,0.9-0.2,1.3-0.3c0,0,0.1,0,0.1-0.1h-0.1
		c-0.6,0.1-1.2,0.2-1.8,0.3c-0.9,0.3-1.8,0.7-2.6,1l0.4-0.4c0.5-0.3,1.1-0.6,1.7-0.8c0.9-0.4,1.9-0.5,2.8-0.5c0.3,0,0.7,0.1,1,0.2
		c0.3,0.1,0.6,0.3,0.9,0.5c0.3,0.1,0.6,0.3,0.7,0.7c0,0.1,0.2,0.1,0.2,0.2c0.3,0.3,0.4,0.7,0.5,1.1c0,0.1,0,0.2,0.1,0.3
		C25.7,17.2,25.8,17.6,25.7,18z M1.2,44.2l-0.1-0.3V44C1.1,44.1,1.1,44.2,1.2,44.2L1.2,44.2z M3.2,33.7C3.5,32.9,3.8,32,4,31.2
		c0.1-0.3,0.1-0.5,0.2-0.8c0,0,0-0.1-0.1-0.1s0,0-0.1,0l-0.1,0.4c-0.1,0.5-0.2,1-0.3,1.4c-0.4,1.3-0.8,2.7-1.1,4.1
		c-0.3,1-0.5,2.1-0.6,3.1c-0.3,1.4-0.4,2.8-0.7,4.3l0.1,0.2v-0.2c0.2-1,0.3-2.1,0.5-3.1s0.4-2.2,0.7-3.4L3.2,33.7z M2.5,32.8v0.5
		C2.4,33.2,2.2,33,2.5,32.8L2.5,32.8z M3.2,31.5L3.2,31.5l0.3-0.4c0-0.1-0.1-0.1-0.1-0.2s-0.1,0-0.1,0.1L3.2,31.5z M3.5,30.7
		c0-0.1,0.1-0.1,0.1-0.2L4,28.9c-0.1,0-0.1,0.1-0.2,0.2l-0.3,1c0,0.1,0,0.2,0,0.3C3.5,30.4,3.5,30.6,3.5,30.7L3.5,30.7z M4.1,28.8
		c0.1-0.3,0.3-0.7,0.4-1c0,0,0-0.1,0-0.2s-0.1,0-0.1,0.1C4.1,28.1,4.1,28.4,4.1,28.8L4.1,28.8z M6.5,22.4c-0.2,0.5-0.4,1-0.6,1.6
		s-0.5,1.4-0.7,2.1v0.1C5.1,26.6,5,27,4.9,27.5l-0.7,2.3v0.1c0,0,0.1,0,0.1-0.1L5,27.5l1.3-4.2C6.4,23,6.5,22.7,6.5,22.4 M4.4,27.3
		L4.4,27.3c0.1,0.1,0.2,0,0.2,0L5,25.7C4.7,26.1,4.7,26.8,4.4,27.3z M5.2,22.9c-0.1,0.1-0.1,0.2-0.1,0.3L5,23
		C4.9,22.8,5,22.8,5.2,22.9z M5.1,25.4c0.1-0.2,0.2-0.3,0.3-0.5v-0.1l-0.1,0.1L5.1,25.4z M21.1,26.9v-0.2c0.4-0.2,0.5-0.6,0.6-0.9
		h-0.2c0.3-0.4,0.5-0.8,0.8-1.3c0.1-0.2,0.2-0.5,0.3-0.8c-0.3,0.4-0.6,0.8-0.9,1.2c-0.1,0.2-0.1,0.3-0.4,0.3l0.8-1.3
		c0.5-0.8,0.9-1.7,1.3-2.5c0.3-1,0.6-1.9,0.8-2.9c0.1-0.3,0.1-0.6,0-0.8c0-0.7-0.1-1.3-0.2-2c0-0.3-0.2-0.5-0.5-0.7
		c-0.5-0.3-1.2-0.4-1.8-0.4c-1.2,0.1-2.3,0.5-3.4,1.1c-1,0.6-2,1.3-2.9,2c-1.2,0.9-2.3,2-3.4,3.1c-1.1,1.3-2.2,2.7-3.2,4.2
		c-1.5,2.1-2.7,4.4-3.8,6.8C5,31.9,5,32,5,32c0.1,0,0.2,0,0.3,0c0,0,0.1-0.1,0.2-0.1l0.9-0.6h0.2c0,0,0,0.1,0,0.2
		c-0.1,0.2-0.3,0.4,0.1,0.6c0,0,0,0.1,0.1,0.2c0,0.3-0.2,0.4-0.3,0.6C6.2,33.2,6,33.6,6.1,34c0.3,0.6,0.8,1,1.4,1.2
		c1,0.1,2.1,0,3-0.4c1.3-0.5,2.5-1.2,3.6-2.2c0.6-0.5,1.2-1,1.8-1.5H16c0.1-0.3,0.3-0.5,0.6-0.5l0,0c0.5-0.6,1-1.2,1.5-1.7
		c0.1,0,0.2,0,0.2,0c-0.1,0.1-0.2,0.2-0.2,0.3c-0.2,0.3-0.5,0.5-0.8,0.9c-0.6,0.8-1.3,1.6-2.1,2.2c-0.4,0.4-0.9,0.8-1.4,1.1
		c-0.2,0.2-0.4,0.3-0.6,0.4c-0.5,0.3-1,0.6-1.5,0.8s-1,0.5-1.6,0.6c-0.5,0.1-1,0.2-1.5,0.3l-0.1,0.1c0.1,0,0.1,0.1,0.1,0.1
		c0.4,0.1,0.7,0.1,1.1,0c0.6-0.1,1.1-0.3,1.7-0.5c1.1-0.3,2.1-0.8,2.9-1.5l0,0c0.2-0.2,0.5-0.4,0.7-0.6l1.4-1.3l0.1-0.2
		c0.1,0,0.3,0,0.4-0.1c0.4-0.5,0.9-0.9,1.3-1.5c0.3,0,0.4-0.3,0.6-0.5s0.3-0.4,0.5-0.5s0.5-0.4,0.5-0.5c0.2-0.3,0.4-0.5,0.6-0.8
		C20.6,27.5,20.9,27.2,21.1,26.9 M5.9,21.2c-0.2,0.2-0.4,0.5-0.4,0.8c-0.1,0.3-0.2,0.5-0.3,0.9c0-0.2,0-0.4,0-0.6
		c0.1-0.4,0.2-0.8,0.4-1.2L5.7,21c-0.1-0.4,0.2-0.6,0.3-0.9c0.1-0.3,0.2-0.7,0.4-1l0,0c0.1,0.3,0,0.7-0.2,0.9
		C6,20.4,5.8,20.8,5.9,21.2z M6.5,21C6.5,21,6.5,21,6.5,21l0.2-0.2v-0.2l-0.1,0.1C6.6,20.7,6.5,20.9,6.5,21z M6.8,21.6
		c0,0.1,0,0.2-0.1,0.3V22h0.1V21.6C6.9,21.7,6.9,21.6,6.8,21.6L6.8,21.6z M7.3,16.4L7.3,16.4L7.6,16l0.1-0.1c0,0,0-0.1-0.1-0.1
		s-0.1,0-0.1,0L7.3,16.4z M17.3,15.4L17.3,15.4l-0.5,0.4v-0.1C16.9,15.5,17,15.3,17.3,15.4L17.3,15.4z M18.6,30.7
		C18.6,30.6,18.6,30.6,18.6,30.7l-0.3,0.2c0,0,0,0,0,0.1L18.6,30.7z M19.2,28l-0.8,0.8c0.1-0.4,0.3-0.7,0.6-0.9l0.2-0.1
		C19.2,27.9,19.2,27.9,19.2,28L19.2,28z M18.9,30.2L18.9,30.2c-0.1,0-0.1,0.1-0.1,0.2L18.9,30.2C18.9,30.3,18.9,30.2,18.9,30.2
		L18.9,30.2z M20.2,28.8L20.2,28.8c-0.3,0.4-0.8,0.6-0.9,1.1l0.3-0.3c0.2-0.2,0.3-0.4,0.5-0.6C20.1,28.9,20.2,28.8,20.2,28.8
		L20.2,28.8z M21.2,27.5c-0.2,0.1-0.4,0.3-0.4,0.5l-0.3,0.2c-0.1,0.1-0.1,0.2-0.2,0.4c0.1-0.1,0.3-0.2,0.4-0.3
		c0.1,0,0.1-0.2,0.1-0.3S21.2,27.7,21.2,27.5L21.2,27.5z M21.9,26.6c-0.1,0-0.1,0-0.1,0l-0.4,0.6L21.9,26.6
		C21.9,26.8,21.9,26.6,21.9,26.6L21.9,26.6z M24.5,21.6c-0.2,0.1-0.3,0.2-0.4,0.3l0,0v-0.3c-0.1,0.1-0.3,0.1-0.3,0.2
		c-0.1,0.4-0.2,0.7-0.3,1.1h0.2c0,0.1,0,0.2,0,0.3l-1.2,2.3c-0.1,0.3-0.2,0.5-0.4,0.8c0.2-0.2,0.5-0.5,0.7-0.6l0.4-0.7
		c0.2-0.4,0.4-0.8,0.7-1.2 M23.7,23.9l0.3-0.5l0.2-0.5L23.7,23.9z M23.1,23.8l-0.3,0.5v0.1c0,0,0,0,0,0.1h0.1L23.1,23.8
		C23.1,23.9,23.1,23.8,23.1,23.8L23.1,23.8z M23.7,23l0.5-1.1C24,22.2,24.1,22.7,23.7,23L23.7,23z M24.9,20.1c0-0.1,0-0.2,0-0.4
		L24.8,20c-0.1,0.3-0.1,0.6-0.4,0.9c0,0-0.2,0-0.2-0.1l0.1-0.4l0.3-1.6c0,0,0-0.1,0-0.2l-0.1,0.1L23.9,21v0.1c0.1,0,0.2,0,0.4-0.1
		c0,0,0-0.2,0-0.3l0.3,0.7c0.1,0,0.1-0.1,0.1-0.2V21C24.7,20.7,24.8,20.3,24.9,20.1L24.9,20.1z M24.5,17.7V18l0,0v-0.1
		c0-0.1,0-0.3,0-0.5l-0.1-0.5C24.5,17.3,24.5,17.5,24.5,17.7L24.5,17.7z M25.1,19C25,18.9,25,18.8,25,18.7c0,0.1-0.1,0.1-0.1,0.2
		c0,0.2,0,0.3,0,0.5l0,0L25.1,19z M25.5,18.3L25.5,18.3v-0.6c0-0.1-0.1-0.1-0.1-0.2v0.1c0,0.6,0,1.3-0.1,1.8v0.2c0,0,0,0.1,0.1,0.1
		l0.1-0.1V18.3z"/>
	<path class="st0" d="M33.9,33.4c-0.4,0.5-0.8,0.6-1.3,0.2c-0.3-0.2-0.6-0.5-0.9-0.8c-0.8-1-2.3-1.1-3.3-0.3
		c-0.9,0.6-1.6,1.4-2.2,2.3c-0.8,1.3-1.5,2.7-2.3,4.1c-0.3,0.6-0.6,1.2-0.9,1.9c-0.2,0.4-0.3,0.8-0.5,1.2c-0.1,0.3-0.3,0.3-0.6,0.1
		c-0.4-0.3-0.7-0.7-0.7-1.2c-0.2-0.7-0.1-1.4,0.3-2.1c0.4-0.8,0.7-1.8,1.1-2.7c0.2-0.4,0.4-0.9,0.5-1.4c0.1-0.2,0.2-0.5,0.3-0.7
		c0.2-0.5,0.5-1,0.7-1.6c0.7-1.6,1.3-3.3,1.7-5c0-0.2,0.2-0.5-0.2-0.6h-0.1c0.1-0.1,0.2-0.3,0.3-0.4c0.1-0.1,0.2-0.1,0.4-0.1
		c0,0,0,0,0.1,0.1c0.3,0.3,0.7,0.6,1.2,0.8c0.3,0.2,0.4,0.5,0.4,0.8c0,0.2-0.1,0.4-0.2,0.5c-0.3,0.8-0.6,1.6-0.9,2.4v0.2
		c0.1,0,0.2,0,0.2,0h0.1c0.4,0.2,0.8,0,1-0.3c0.1-0.1,0.1-0.1,0.3,0s0.2,0.1,0.2,0.1c0.4-0.2,0.9-0.1,1.3,0.1
		c0.9,0.4,1.7,1.1,2.3,1.8c0.3,0.3,0.8,0.5,1.2,0.6C33.6,33.4,33.8,33.4,33.9,33.4C33.9,33.5,33.9,33.4,33.9,33.4z M27.2,32.2
		C27.1,32.2,27.1,32.1,27.2,32.2c-0.1-0.1-0.2-0.1-0.3-0.1c-0.1,0.1-0.2,0.3-0.3,0.5v0.2c0.1,0,0.1,0,0.2-0.1
		C26.9,32.6,27.1,32.4,27.2,32.2z M28.1,31.4c-0.2,0.1-0.4,0.2-0.6,0.4c-0.1,0-0.1,0.2-0.2,0.3s0.2,0,0.3-0.1
		c0.2-0.1,0.5-0.3,0.7-0.4C28.4,31.4,28.2,31.4,28.1,31.4"/>
	<path class="st0" d="M41.1,27.8l0.2-0.1c0-0.4,0.3-0.3,0.4-0.2c0.6,0.3,1.2,0.7,1.8,1l0.1-0.1c0,0,0,0,0,0.1s0.2,0,0.2,0.2
		c0.1,0.3,0.1,0.7,0,1c-0.5,1.5-1.4,2.9-2.6,4.1c-1.2,1.3-3.2,2-5.2,1.6c-0.2,0-0.4,0-0.4,0.2c-0.3,1-0.4,2.1-0.2,3.1
		c0.1,0.3,0.2,0.7,0.4,1c0.1,0.3,0.4,0.5,0.7,0.6c0.9,0.3,1.8,0.2,2.7-0.1c0.3-0.1,0.7-0.1,1-0.2c0.1,0,0.1-0.1,0.2-0.2
		c0.3-0.2,0.6-0.3,0.9-0.5c0.6-0.4,1.2-0.8,1.8-1.2L43,38.5c0,0,0.1,0,0.2-0.1c0.1-0.1,0.2-0.2,0.3-0.3h-0.4c0-0.2,0.1-0.4,0.2-0.5
		c0.2-0.2,0.4-0.4,0.6-0.6l0.7-0.7h0.2l-0.1,0.1c-0.2,0.2-0.4,0.5-0.6,0.7s-0.3,0.4-0.4,0.6c0,0.1-0.1,0.1,0,0.2
		c0.1,0,0.2,0.1,0.2,0c0.1,0,0.2-0.1,0.2-0.1c0.5-0.5,1-1,1.4-1.5h0.1v0.1c0,0.1-0.1,0.3-0.2,0.4l1.4-1.3c0.6-0.6,1.2-1.1,1.8-1.7
		s0.8-0.9,1.2-1.3s1-1,1.5-1.5s1.2-1,1.7-1.5c0.2-0.2,0.3-0.4,0.4-0.6l-0.1-0.1c0-0.1,0-0.1,0.1-0.2c0,0,0.1,0.1,0.2,0.2l0.2-0.3
		c0,0,0,0-0.1,0c-0.1-0.1-0.1-0.1-0.1-0.2c0-0.1,0.1-0.1,0.2-0.1c0.1,0,0.1,0,0.2,0c0.5,0.2,0.9,0.5,1.3,0.8
		c0.1,0.1,0.2,0.3,0.2,0.4c0,0.5-0.1,0.9-0.3,1.4l-0.8,1.8c0,0.1,0,0.2,0,0.2s0.1-0.1,0.2-0.1s0-0.1,0-0.1c0.1-0.1,0.2-0.1,0.4-0.1
		c0.1,0.2-0.1,0.2-0.2,0.3s0,0.2,0,0.3h-0.2v0.1c0.1,0,0.1-0.1,0.2-0.1c0.3-0.2,0.6-0.4,0.8-0.7c0.3-0.2,0.5-0.4,0.8-0.6v-0.2
		c0,0,0.2,0,0.3,0c0.4,0.2,0.8,0.3,1.1,0.5c0.2,0.1,0.4,0.3,0.5,0.5c0.3,0.8,0.3,1.7,0.2,2.5c0,0.3,0,0.6-0.1,0.9l0.7-0.6
		c0.3-0.3,0.6-0.5,1-0.8c0.3,0.2,0.2-0.2,0.3-0.2c0.1-0.1,0.3-0.1,0.4-0.2c0.1-0.1,0.2-0.2,0-0.2c0.1-0.2,0.2-0.3,0.3-0.5
		c0,0,0,0,0,0.1l0,0H61c0-0.2,0-0.4,0.3-0.2c0,0,0.1-0.1,0.2-0.2c0.1,0,0.1,0,0.1-0.1c0.1-0.1,0.3-0.3,0.4-0.3
		c0.2,0,0.5,0.1,0.7,0.3c0.2,0.1,0.4,0.3,0.6,0.4c0.4,0.3,0.7,0.8,0.8,1.3c0.3,1.6,0.7,3.1,1.3,4.6c0.2,0.5,0.4,0.6,0.9,0.4
		c0.9-0.5,1.8-1,2.7-1.6v0.1l0,0v-0.1l0.1-0.1c0.3,0.2,0.4-0.1,0.5-0.2H70c-0.2,0.4-0.4,0.9-0.7,1.3c-0.1,0.2-0.4,0.3-0.3,0.6v0.1
		c0.4,0.5-0.1,0.6-0.4,0.8c-0.2,0.2-0.5,0.3-0.8,0.4c-0.8,0.3-1.7,0.1-2.3-0.4c-0.8-0.7-1.3-1.6-1.6-2.6c-0.2-0.8-0.4-1.8-0.6-2.6
		c-0.1-0.4-0.2-0.8-0.4-1.2c0-0.1,0-0.1-0.1,0c-0.8,0.6-1.5,1.3-2,2.1c-0.7,0.9-1.3,1.8-2,2.6c-0.2,0.2-0.5,0.4-0.8,0.6
		c-0.2,0-0.3,0-0.5,0s-0.2-0.1-0.3-0.3l-0.5-0.6c-0.3-0.3-0.2-0.8-0.2-1.2c0-0.1,0.2-0.3,0.2-0.5s0-0.3,0.1-0.5l0,0
		c-0.4-0.3,0-0.6,0-1l0.1,0.1c0,0,0,0.1,0.1,0.1v-0.1c0-0.3,0-0.5,0-0.8c0-0.1,0-0.1,0-0.2c0,0.1,0,0.1,0,0.2c0,0.1,0,0.2,0,0.2
		c0-0.1-0.1-0.1,0-0.2c0.1-0.4,0.1-0.8,0.2-1.1l-0.1-0.3c0-0.2-0.1-0.2-0.2,0c-0.3,0.3-0.6,0.6-0.8,0.9c-0.7,0.9-1.4,1.8-2.1,2.7
		c-0.3,0.3-0.5,0.8-0.8,1.1s-0.6,0.8-1.1,1.1c-0.4,0.3-0.9,0.1-1.2-0.3c0-0.1-0.1-0.1-0.1-0.2c-0.1-0.2-0.1-0.4-0.2-0.6
		s-0.3-0.4,0.1-0.5c0.1,0,0.1-0.1,0.1-0.2c0.3-1.1,0.6-2.1,1.2-3c0-0.2,0-0.3,0.1-0.4l0.8-1.4c0-0.2,0-0.4-0.1-0.5l0,0
		c0.2-0.5,0.4-0.9,0.6-1.4v-0.2c-0.1,0-0.2,0-0.2,0.1c-0.5,0.4-1,0.8-1.5,1.3s-0.9,1-1.4,1.5c-0.8,0.8-1.5,1.6-2.2,2.3
		c-1.4,1.5-2.9,2.9-4.4,4.2c-0.9,0.8-2,1.5-3.1,1.9c-1.2,0.5-2.5,0.4-3.6-0.1c-0.8-0.4-1.5-1.1-2-1.9c-0.7-1-0.9-2.1-0.6-3.3
		c0-0.2,0.1-0.4-0.2-0.5c0,0,0-0.4,0.1-0.5c0.1-0.3,0.1-0.6,0-0.9c0-0.3,0-0.5,0-0.8c0.1-0.1,0.2-0.2,0.3-0.2c0.3,0,0.5-0.2,0.6-0.5
		c0.4-0.9,1-1.8,1.7-2.5c0.5-0.6,1-1.1,1.7-1.6c0.3-0.1,0.6-0.5,1-0.7c0.2-0.1,0.5-0.3,0.8-0.4l0.9-0.4c0.2-0.1,0.3,0,0.3,0.2V28
		 M35.2,33.6l1.2-2c0.1-0.2,0.1-0.3,0.2-0.5c-0.1,0.1-0.3,0.2-0.4,0.3c-0.4,0.6-0.7,1.1-1.1,1.8C35,33.3,35,33.4,35,33.6
		c0,0,0,0.1,0,0.2C35.1,33.8,35.1,33.7,35.2,33.6L35.2,33.6z M40.9,31.4c0.2-0.1,0.4-0.3,0.4-0.5c0-0.1,0-0.1,0.1-0.1
		c0.5,0.2,0.3-0.2,0.4-0.4c0-0.1,0-0.1,0.1-0.1c0.2,0,0.2-0.2,0.2-0.4c0-0.1,0-0.3,0.1-0.4c0.1-0.2,0.2-0.5,0.3-0.8
		c0,0,0-0.1-0.1-0.1c-0.4,0-0.8-0.2-1,0.2c-0.1,0.1-0.2,0.1-0.3,0.2c-0.6,0.4-1.1,0.8-1.7,1.2s-0.7,0.6-1,0.9
		c-0.8,0.7-1.5,1.6-1.9,2.6c-0.1,0.2,0,0.3,0.2,0.2c0.6,0,1.1-0.2,1.7-0.5c0.3-0.2,0.6-0.4,0.9-0.6C40.1,32.4,40.6,31.9,40.9,31.4
		 M45.3,36c0.1-0.1,0.2-0.2,0.3-0.3l0,0c-0.1,0.5-0.2,0.5-0.6,0.4L45.3,36z M45.6,35.7L45.6,35.7c0.1-0.1,0.2-0.2,0.3-0.3v0.1
		c-0.2,0.2-0.4,0.2-0.5,0.2H45.6z M57.1,36.1L57.1,36.1L57.1,36.1c-0.2,0.1-0.2,0.1-0.2,0H57.1z"/>
	<path class="st0" d="M77.5,36.8c0.1-0.1,0.2-0.1,0.3-0.1c0,0.1,0,0.2-0.1,0.3s-0.2,0.2-0.3,0.3c-0.1,0.2-0.2,0.3-0.3,0.5L77,38
		c-0.2,0.2-0.5,0.3-0.7,0.5s-0.5,0.4-0.8,0.6c-0.7,0.5-1.4,1-2.1,1.5c-0.5,0.3-1,0.6-1.5,0.7c-0.5,0.1-1,0-1.4-0.3
		c-1.1-0.7-1.7-2.1-1.3-3.4c0.2-1.5,0.8-3,1.6-4.2l1.2-2c0.1-0.1,0.2-0.3-0.1-0.4s0-0.3,0.1-0.4c0.2-0.4,0.2-0.3,0.5-0.2l1.1,0.7
		c0.4,0.2,0.5,0.6,0.3,0.9c-0.6,1-1.3,2.1-1.9,3.1c-0.7,1.1-1.2,2.4-1.5,3.7c-0.1,0.8,0,0.9,0.8,0.7c0.5-0.2,1-0.4,1.6-0.6
		c0.3-0.1,0.7-0.4,1-0.4s0.4-0.1,0.6-0.3s0.8-0.1,1-0.4c0.1-0.1,0.4-0.2,0.5-0.3s0.2-0.2,0.3-0.2C76.9,37.4,77.2,37.1,77.5,36.8z
		 M75.4,23.7l-0.6-0.3c0.1-0.2,0.2-0.3,0.3-0.5c0.7-0.5,1.3-1,2-1.4c0.5-0.3,1.1-0.4,1.7-0.1c0.3,0.1,0.5,0.5,0.5,0.8
		s-0.2,0.5-0.5,0.6c-0.6,0.2-1.2,0.4-1.8,0.6C76.5,23.6,75.9,23.7,75.4,23.7z M79.9,34c0,0.1,0,0.2-0.1,0.2
		c-0.2,0.3-0.5,0.5-0.7,0.8s-0.2,0.1-0.2,0.2c-0.1,0.1-0.1,0.3-0.2,0.4c-0.1,0,0-0.3-0.3-0.2v-0.1l1-0.8l0.1-0.3l0.1-0.2
		C79.7,34,79.8,34,79.9,34z"/>
	<path class="st0" d="M95.8,35.4c-0.3,0.3-0.6,0.7-0.9,1.1c-0.3,0.6-0.7,1.1-1.2,1.5c-0.4,0.4-1,0.7-1.5,0.9c-0.5,0.3-1,0.4-1.5,0.5
		s-0.9,0-1.4-0.2c-1.3-0.4-2.2-1.6-2.2-3c0-0.4,0-0.8,0-1.1c0-0.1,0-0.2,0-0.3c0,0.1-0.1,0.2-0.2,0.2c-0.5,0.3-0.5,1-0.9,1.4
		s-0.8,0.8-1.2,1.2c-0.4,0.5-0.8,1-1.2,1.4c-0.7,0.9-1.6,1.6-2.7,2c-0.5,0.3-1.1,0.2-1.5-0.2c-0.1-0.1-0.4-0.1-0.5-0.3
		c-0.7-0.6-1.1-1.5-0.9-2.4c0.2-0.7,0.4-1.4,0.7-2.1c0.2-0.8,0.6-1.6,1-2.3c0.3-0.4,0.5-0.9,0.8-1.3c0.2-0.7,0.8-1.3,0.7-2.1
		c0.1-0.3,0.1-0.5,0.3-0.7c0.1-0.1,0.2-0.1,0.3,0c0.3,0.3,0.8,0.5,1.2,0.4c0.4,0,0.7,0.5,0.5,0.8c-0.1,0.3-0.2,0.6-0.4,0.9
		c-0.6,1-1.2,2-1.7,3.1c-0.4,0.9-0.8,1.8-1.2,2.7c-0.2,0.6-0.4,1.2-0.5,1.9c0,0.1,0,0.2,0,0.3c0.1-0.1,0.2-0.1,0.3-0.1
		c0.6-0.4,1.2-0.9,1.8-1.4c0.2-0.2,0.5-0.3,0.8-0.5S83,37,83.5,37c0.1,0,0.1,0,0.1-0.1c0-0.4,0.5-0.5,0.7-0.8s0.5-0.5,0.8-0.8
		c0.4-0.3,0.7-0.7,1-1.1c0,0,0-0.2,0-0.3c0.2-0.1,0.3-0.2,0.5-0.2h-0.1c0.4-0.5,0.8-0.9,1.1-1.5c0.2-0.2,0.3-0.5,0.4-0.8
		c0.2-0.3,0.2-0.2,0.4-0.1s0.6,0.3,0.7,0.6c0.1,0.1,0.2,0.2,0.3,0.3c0.3,0.1,0.3,0.4,0.2,0.6c-0.1,0.2-0.2,0.5-0.3,0.7
		c-0.5,1.1-0.8,2.4-0.9,3.6v0.1c0.1,0.7,0.3,0.9,0.9,0.7s1.3-0.6,2-0.8c0.2-0.1,0.4-0.2,0.6-0.3c0.2,0,0.3-0.3,0.6-0.2h0.1
		c0.3-0.5,0.8-0.6,1.3-0.9l0,0H94c0.1,0,0.2,0,0.2,0s0.1-0.1,0.2-0.2c-0.3-0.1-0.1-0.1,0-0.2c0.1,0,0.2,0,0.3,0l0,0l0.3-0.4h0.2
		l-0.1,0.2c0.1,0,0.2,0,0.3,0s0.2-0.2,0.3,0C96,35.2,95.9,35.3,95.8,35.4z"/>
	<path class="st0" d="M101.6,32.4c0.1-0.1,0.3-0.2,0.3-0.3c0-0.3,0.2-0.3,0.4-0.3c0.1-0.4,0.5-0.4,0.8-0.7c0.2-0.2,0.4-0.3,0.6-0.5
		c-0.3-0.2-0.5,0.2-0.7,0.2c-0.2,0.1-0.4,0.1-0.7,0.2c0.1-0.1,0.3-0.4,0.5-0.5c0.4-0.2,0.8-0.4,1.2-0.5c0.3,0,0.5,0,0.8,0.1l0.8,0.3
		c0.2,0.1,0.3,0.2,0.5,0.4c0.3,0.5,0.4,1.1,0.3,1.6c-0.3,1.1-0.8,2.1-1.3,3.1c-0.4,0.8-0.8,1.7-1.1,2.5c0,0.1,0,0.2,0,0.3
		c0.1-0.1,0.2-0.1,0.2-0.2l1.2-1.2c0.5-0.5,1.1-1,1.6-1.6s1-1.1,1.4-1.7c0.2-0.3,0.5-0.4,0.8-0.1c0.2,0.2,0.4,0.3,0.7,0.2
		c0.3-0.1,0.5,0.1,0.6,0.3s0.1,0.5,0.1,0.7c0,1-0.1,2-0.3,3c0,0.3,0,0.7,0,1s0,0.4,0.4,0.3c0.4-0.1,0.7-0.2,1-0.4
		c0.6-0.4,1.1-0.8,1.6-1.3c0.6-0.5,1.1-0.9,1.7-1.4l-0.1-0.1h0.2l0.3-0.1c0,0.1,0,0.2,0,0.3c-0.1,0.2-0.2,0.3-0.3,0.5l-0.4,1
		c-0.2,0.8-0.7,1.5-1.4,1.9c-0.3,0.1-0.4,0.4-0.7,0.5c-0.9,0.5-2,0.4-2.8-0.2c-0.8-0.5-1.2-1.4-1-2.4c0-0.5,0.1-1,0.2-1.5
		c0-0.1,0-0.2-0.1-0.2c0,0.1,0,0.1,0,0.2c-0.2,0.2-0.5,0.5-0.7,0.7s-0.2,0.3-0.3,0.4c-0.7,0.9-1.4,1.7-2.3,2.5
		c-0.3,0.3-0.7,0.6-1,0.8s-0.7,0.2-1,0.1c-0.6-0.2-1-0.6-1.1-1.2c0-0.2,0-0.3,0-0.5c0.2-0.7,0.4-1.3,0.7-2c0.2-0.2,0.2-0.6,0.1-0.8
		H103c0.3,0,0.3-0.2,0.3-0.4c0-0.4,0.1-0.7,0.3-1c0.4-0.8,0.7-1.7,0.9-2.6v-0.2c-0.1,0-0.2,0-0.2,0c-0.4,0.3-0.8,0.6-1.2,0.9
		c-0.2,0.2-0.5,0.4-0.8,0.7c-0.4,0.4-0.8,0.8-1.2,1.2c-1.5,1.5-2.9,3.1-4.3,4.7c-0.5,0.6-1.1,1.1-1.7,1.8c-0.2,0.2-0.4,0.4-0.7,0.5
		c-0.2,0-0.3,0.3-0.5,0.2s-0.5-0.3-0.7-0.5c-0.1-0.1-0.1-0.4-0.2-0.6s0-0.2-0.1-0.2c-0.4,0-0.3-0.2-0.2-0.4c0.3-0.6,0.6-1.3,0.9-1.9
		c0.5-0.9,1-1.8,1.5-2.8c0.7-1.3,1.3-2.5,1.9-3.8c0.1-0.3,0.3-0.7,0.4-1c0-0.1,0-0.3,0-0.4c0-0.2,0-0.4,0.1-0.6
		c0-0.2,0.2-0.3,0.5-0.2s0.9,0.2,1.4,0.4c0.4,0.2,0.6,0.7,0.4,1.1c0,0.1-0.1,0.1-0.1,0.2l-1.8,3.6c-0.2,0.3-0.4,0.6-0.6,0.9v0.2
		c0,0,0.1,0,0.2-0.1l1-1c0.1-0.2,0.3-0.3,0.6-0.3C99,34.3,99,34.4,99,34.4c-0.1,0.1-0.1,0.2-0.1,0.2c0.1,0,0.2,0,0.3,0
		s0.2-0.1,0.2-0.2c0.3-0.3,0.6-0.6,0.8-0.8l0.1-0.2c0.1-0.1,0.2-0.1,0.3,0C100.8,33.2,101.2,32.8,101.6,32.4 M94.5,37.1L94.5,37.1
		c-0.1,0.2-0.1,0.2-0.1,0.3c-0.3,0-0.2,0.3-0.2,0.5l-0.8,1.3c-0.1,0.1-0.2,0.3-0.2,0.5c0.2-0.1,0.3-0.3,0.5-0.4
		c0.1-0.2,0.2-0.5,0.3-0.8l0.1-0.6c0.1-0.2,0.1-0.3,0.2-0.5l0.1-0.1C94.4,37.3,94.5,37.2,94.5,37.1z M100.6,32.6L100.6,32.6
		c-0.1-0.1,0-0.2,0.1-0.2c0,0,0.1,0,0.2,0.1L100.6,32.6z"/>
	<path class="st0" d="M145.6,41.6l-0.3,0.3c-0.3,0.1-0.6,0.1-0.8,0.6c-0.2,0.2-0.4,0.4-0.6,0.5c-0.8,0.5-1.6,0.9-2.3,1.4
		c-1.1,0.7-2.3,1.3-3.5,1.8c-1.2,0.6-2.5,0.8-3.8,0.7c-0.9,0-1.8-0.2-2.6-0.6c-1-0.6-1.8-1.3-2.5-2.2c-1.3-1.6-2-3.5-2.2-5.6
		c-0.3-2-0.1-3.9,0.5-5.8c0.2-0.7,0.5-1.4,0.8-2c0.4-0.8,0.8-1.6,1.2-2.4c0.3-0.5,0.7-1,1.1-1.6l0.7-1l0,0l0.2-0.2
		c0.1-0.3,0.3-0.6,0.5-0.8c0.8-0.8,1.6-1.6,2.3-2.5c0.9-0.9,1.9-1.7,2.9-2.5c0.8-0.6,1.6-1.1,2.4-1.6c1.5-1,3.1-1.7,4.9-2
		c0.6-0.1,1.1-0.1,1.7-0.1c0.1,0,0.1,0,0.2,0.1l0.9,0.3h0.1l1.3,1c0.2,0.2,0.4,0.4,0.6,0.6c0.5,0.5,0.7,1.1,0.8,1.8
		c0.2,1,0.2,2-0.1,3c-0.2,1-0.6,2-1,2.9c-0.4,0.8-0.8,1.6-1.2,2.3c-0.3,0.5-0.7,0.9-1.1,1.3c-0.4,0.4-1,0.4-1.5,0.2
		c-0.8-0.3-1.4-0.8-1.8-1.6c-0.2-0.4-0.2-0.8-0.2-1.2l0.2-0.2l0.1,0.2c0.2,0.4,0.4,0.9,0.6,1.3c0.1,0.3,0.5,0.3,0.7,0.1
		c0.8-0.9,1.5-1.9,2-3c0.3-0.6,0.7-1.3,0.9-1.9c0.3-0.9,0.6-1.8,0.7-2.7c0-0.1,0-0.3-0.1-0.4c-0.1-0.1,0-0.3,0.1-0.4
		c0.1-0.1,0.1-0.2,0-0.2s-0.1-0.1-0.1-0.1c0-0.6-0.2-1.3-0.6-1.8c-0.1-0.1-0.2-0.2-0.3-0.3c-1.3-0.3-2.7-0.1-4,0.4
		c-2.2,0.9-4.2,2.2-6,3.7s-3.5,3.3-4.9,5.2c-0.7,1-1.4,2-1.9,3c-0.5,0.8-0.9,1.7-1.3,2.6c-0.3,0.7-0.5,1.4-0.7,2.1
		c-0.2,0.8-0.3,1.6-0.3,2.4c0,0.9,0,1.7,0.1,2.6c0,0.5,0.1,1.1,0.2,1.6c0.1,0.6,0.3,1.2,0.6,1.8c0,0.2,0,0.3,0.2,0.4
		s0.2,0.2,0.3,0.4s0.2,0.2,0.3,0.4c0.7,1,1.9,1.6,3.1,1.6c1.3,0,2.6-0.3,3.8-0.8c0.5-0.2,1-0.4,1.5-0.7c0.8-0.4,1.6-0.8,2.4-1.2
		c0.6-0.3,1.1-0.7,1.6-1.1c0.2-0.1,0.3-0.2,0.5-0.3c-0.1,0.4,0.2,0.3,0.4,0.2c-0.1,0.1-0.1,0.3,0.1,0.2c0.2-0.1,0.4-0.2,0.6-0.3
		l1.3-0.8l0,0c0.8-0.6,1.5-1.1,2.3-1.6c0.2-0.1,0.4-0.2,0.6-0.2l1.7-1.5c0.9-0.8,1.9-1.5,2.8-2.3c0.1,0.1,0.3,0.2,0.1,0.4l-0.3,0.4
		l-0.1,0.2c0.3,0.4-0.1,0.5-0.3,0.6c-0.4,0.3-0.7,0.6-1.1,0.9c-0.1,0-0.2,0.1-0.2,0.2c0,0.3-0.2,0.4-0.5,0.5
		c-0.4,0.1-0.5,0.6-0.9,0.8l-0.1-0.1c-0.2,0.3-0.8,0.2-0.9,0.7c0,0.1-0.2,0.1-0.3,0.2l-1.8,1.2c-0.1,0.1-0.3,0.3-0.5,0.4
		C145.8,41.6,145.6,41.6,145.6,41.6 M128.1,40.2l0.1-0.6c0-0.1,0-0.1-0.1-0.2l0,0v-1.2c0-0.1,0-0.2,0-0.2c0,0.1,0,0.2,0,0.3V39
		l0.1,0.4v0.1L128.1,40.2L128.1,40.2z M131.6,25.8L131.6,25.8L131.6,25.8L131.6,25.8z M135.6,20.6h-0.1v-0.1l0.9-0.8
		c0,0.2-0.1,0.4-0.3,0.5S135.7,20.5,135.6,20.6L135.6,20.6z M136.8,19.5l-0.4,0.2L136.8,19.5c0-0.1,0.1-0.2,0.2-0.2
		C137,19.5,136.9,19.5,136.8,19.5L136.8,19.5z M136.9,19.3c0.5-0.4,1.1-0.8,1.6-1.1c0.7-0.5,1.4-0.9,2.1-1.3c1.1-0.6,2.3-1,3.5-1.2
		c0.4-0.1,0.8-0.1,1.1,0c0.2,0,0.3,0.1,0.4,0.2c0.1,0,0.1,0.1,0.1,0.1c-0.1,0-0.1,0-0.2,0c-0.7-0.1-1.4,0-2,0.2
		c-1.1,0.3-2.3,0.8-3.3,1.3c-0.2,0.1-0.5-0.1-0.5,0.2c-0.3,0.3-0.6,0.5-1,0.6c-0.3,0.1-0.5,0.2-0.7,0.4
		C137.8,19.1,137.4,19.3,136.9,19.3L136.9,19.3z M143.3,42C143.3,42,143.3,41.9,143.3,42l-0.2-0.1l-1.3,1V43h0.1L143.3,42
		C143.3,42.1,143.4,42.1,143.3,42L143.3,42z M143.4,41.3h-0.3C143.1,41.2,143.3,41.2,143.4,41.3L143.4,41.3z M143.5,41.5l-0.1-0.1
		C143.5,41.4,143.5,41.4,143.5,41.5L143.5,41.5z M143.5,41.6L143.5,41.6c0.1-0.2,0.3-0.3,0-0.5c0.2-0.3,0.8-0.3,0.9-0.7l0.1,0.1
		c0,0.1,0,0.2,0,0.3C144.1,40.9,144.1,41.6,143.5,41.6L143.5,41.6z M145.2,40.1L145.2,40.1c0-0.3,0.3-0.1,0.5-0.2c0,0.1,0,0.2,0,0.2
		c-0.2,0.2-0.4,0.4-0.6,0.5H145v-0.1c0-0.1,0-0.2,0-0.3C145,40.1,145.1,40,145.2,40.1z M145.6,39.8c0.1-0.1,0.1-0.2,0.2-0.3l0.1,0.1
		C145.9,39.8,145.8,39.9,145.6,39.8L145.6,39.8z M145.6,41.6l0.1-0.1L145.6,41.6z M146.1,39.3c0.1,0,0.2,0,0.3,0H146.1L146.1,39.3z
		 M146.6,39v0.2l-0.1,0.2h-0.1C146.4,39.2,146.4,39.1,146.6,39L146.6,39z M146.9,39.3l-0.1-0.3h-0.1c0,0,0-0.1,0.1-0.2h0.1V39
		C146.9,39,147.2,39.2,146.9,39.3L146.9,39.3z M148,38.3c0.1,0.6-0.7,0.3-0.7,0.7h-0.1c0-0.1,0-0.2,0-0.3c0.1-0.1,0.2-0.2,0.2-0.3
		c0.2,0.2,0.2,0,0.3-0.2c0.1-0.1,0.2-0.3,0.3-0.4l0.2,0.2C148.2,38,148.2,38.1,148,38.3C148,38.3,148,38.2,148,38.3L148,38.3z
		 M148.2,38.1l0.1-0.3l0,0l0,0c-0.1-0.3,0.5,0,0.3-0.3c0,0,0.2-0.2,0.4-0.3l0.1-0.2c0.1,0.1,0.1,0.1,0.2,0.2
		c-0.1,0.1-0.1,0.3-0.3,0.3v-0.2l0,0l0.1,0.1C148.8,37.6,148.7,37.9,148.2,38.1L148.2,38.1z M149.9,36.7c-0.1,0.1-0.3,0-0.4,0v-0.1
		l1.1-0.8c-0.1,0.2-0.4,0.3-0.1,0.6l-0.1,0.1h-0.2l0,0 M151.2,35.3c-0.1,0.1-0.5,0.3,0,0.5L151,36l0,0c-0.2,0.2-0.2,0.5-0.6,0.5
		v-0.2c0.3-0.2,0.3-0.2,0.1-0.6c0-0.1,0.1-0.2,0.2-0.3l1-0.8c0,0.1,0,0.2,0,0.3s0,0.1,0,0.1l0.1,0.1h0.1
		C151.7,35.6,151.6,35.6,151.2,35.3L151.2,35.3 M153.1,33.6c-0.2,0.7-0.7,1.2-1.3,1.6l-0.1-0.1c0-0.1,0.4-0.3,0-0.4l0.4-0.5
		c0.2-0.2,0.4-0.5,0.7-0.7c0.1,0,0.2,0,0.3,0C153.2,33.5,153.2,33.5,153.1,33.6L153.1,33.6z M152.3,34.2L152.3,34.2l-0.1,0.1
		C152.2,34.4,152.4,34.3,152.3,34.2L152.3,34.2z"/>
	<path class="st0" d="M166.2,34.2L166.2,34.2c-0.5,0.6-1.1,1.1-1.8,1.3c-0.5,0.2-1.1,0.4-1.6,0.5c-1.4,0.3-2.9,0.1-4.2-0.3
		c-0.2-0.1-0.4,0-0.4,0.2c-0.3,1.3-0.9,2.5-1.8,3.4c-0.5,0.6-1,1-1.6,1.4c-0.5,0.4-1.1,0.6-1.7,0.7c-0.7,0-1.3-0.2-1.8-0.8
		c-1-1.1-1.1-2.7-0.4-3.9c0.1-0.6,0.4-1.1,0.9-1.4c0-0.4,0.2-0.7,0.5-1c0.5-0.6,0.9-1.1,1.3-1.8c0.5-0.6,1.1-1.1,1.8-1.4
		c0.2-0.1,0.4-0.1,0.6,0c0.6,0.2,1.2,0.5,1.6,0.9v0.2c-0.3,0.3-0.6,0.6-1,0.8c-1.3,0.7-2.4,1.7-3.2,3c-0.7,0.9-1.3,2-1.5,3.2
		c0,0.5,0.1,0.6,0.5,0.5c0.8-0.3,1.6-0.9,2.1-1.6l1-1.1c0.2-0.2,0.4-0.4,0.4-0.7s0.1-0.1,0.2,0s0.1,0,0.1,0c0.2-0.5,0.3-1.1,0.2-1.6
		c-0.3-0.1-0.2-0.6-0.4-0.8c0.1,0,0.1-0.1,0.2-0.1c0.6,0.1,1.2,0.3,1.7,0.6c0.9,0.5,1.8,0.6,2.8,0.5c0.9,0,1.9-0.2,2.7-0.3l2.2-0.4
		L166.2,34.2C166.2,34.1,166.2,34.1,166.2,34.2z M156.5,34.7L156.5,34.7z"/>
	<path class="st0" d="M164.8,38c0,0.3,0,0.7,0,1v0.1c0,0,0-0.1-0.1-0.1C164.7,38.6,164.6,38.2,164.8,38z M164.9,37.5
		c0,0,0,0.1-0.1,0.2C164.8,37.6,164.8,37.5,164.9,37.5c-0.1-0.1-0.1-0.2-0.1-0.3C164.9,37.3,164.9,37.4,164.9,37.5L164.9,37.5z
		 M164.9,36.8C164.9,36.8,164.8,36.7,164.9,36.8c0.1-0.4,0.2-0.8,0.3-1.1c-0.1,0.3-0.1,0.7-0.2,1C165,36.8,165,36.8,164.9,36.8
		L164.9,36.8z M177.2,28c0.1-0.2,0.3-0.3,0.1-0.6c-0.1-0.1,0.1-0.3,0.3-0.4s0.3-0.2,0.2-0.4c-0.1-0.4,0.1-0.6,0.3-0.8l0.1-0.2
		c0,0,0.1-0.1,0.1-0.2l0,0l0.5-0.9l0,0c0.1-0.1,0.2-0.2,0.2-0.4l0.1-0.2v0.2c0-0.1,0-0.2,0.1-0.2h0.1c0-0.1,0-0.2-0.1-0.2l0.1-0.2
		v-0.1v0.1l0.1-0.3V23c0.1-0.3,0.2-0.6,0.4-0.9c0.1-0.1,0.1-0.1,0.2-0.1s0.3-0.1,0-0.3l0,0c0.1-0.2,0.2-0.3,0.3-0.5
		c0.1-0.3,0.3-0.5,0.4-0.7l0,0l0.8-1.3c0.2-0.5,0.5-0.9,0.8-1.3v-0.1c-0.1,0-0.1,0-0.2,0c-0.3,0.4-0.6,0.8-0.8,1.2l-1,1.5
		c-0.3,0.6-0.7,1.2-1,1.8c0,0,0,0.1-0.1,0.2c0,0-0.1,0.1-0.2,0.1v-0.1c0.3-0.7,0.6-1.4,1.1-2c0.4-0.5,0.7-1.2,1-1.8c0,0,0-0.1,0-0.2
		c0.8-1.4,1.8-2.7,2.8-3.9l0.1-0.1c0.2-0.2,0.4-0.4,0.6-0.4s0.3,0.2,0.5,0.3l0.7,0.4c0.1,0.1,0.2,0.1,0.3,0.1
		c0.5,0.1,0.9,0.3,1.2,0.7c0.2,0.3,0.4,0.7,0.4,1.1c0.2,0.9,0.2,1.8,0,2.7c-0.2,1.3-0.6,2.6-1,3.8c-0.2,0.6-0.4,1.2-0.7,1.7l-1,2.3
		c-0.2,0.6-0.5,1.1-0.8,1.6c-0.4,0.5-0.7,1-1,1.5c-0.1,0.2-0.2,0.3-0.2,0.5l0,0c0,0.1-0.1,0.1-0.1,0.2c-0.1,0.1-0.2,0.2-0.3,0.3
		c-0.5,0.8-1.1,1.5-1.6,2.2c-0.4,0.6-0.8,1.1-1.2,1.6c-0.2,0.2,0,0.4-0.3,0.6s-0.3,0.4-0.5,0.6l-0.4,0.6c-0.1,0.1-0.2,0.3-0.3,0.4
		l-2.1,2.3c-0.1,0.2-0.3,0.1-0.4,0.2l0,0c0,0.2,0,0.4-0.3,0.5s-0.4,0.4-0.6,0.6c-0.5,0.4-0.7,0.9-0.6,1.5c0,0.1,0,0.1-0.1,0.2
		c0.1,0.2,0.2,0.4,0.2,0.6c0.2,1.1,0.4,2.2,0.9,3.2v0.1c-0.1,0-0.2,0-0.2,0.2l0.3,0.7c0.2,0.3,0.4,0.5,0.6,0.8
		c0.1,0.1,0.2,0.1,0.3,0l0,0c0.5,0.3,1.1,0.4,1.6,0.1c0,0,0.1,0,0.2,0s-0.3,0.2,0,0.4c0.2,0.1,0.3,0.3,0.4,0.5v0.1
		c-0.3,0.1-0.6,0.1-0.9,0.2s-0.1-0.2-0.2-0.2s-0.2,0.1-0.3,0.1s-0.2,0-0.2-0.1c-0.4-0.3-0.9-0.6-1.3-0.9c-0.2-0.2-0.4-0.5-0.6-0.7
		c-0.5-0.8-0.9-1.6-1.1-2.4c0-0.1,0-0.3,0-0.4s0-0.1,0.1-0.2v-0.1c-0.1,0-0.1,0.1-0.1,0.1v0.2c-0.1-0.4-0.2-0.8-0.3-1.1
		c0-0.4-0.1-0.8-0.2-1.2c0,0,0,0-0.1,0l0,0c-0.3,0.5-0.6,0.9-1.1,1.2c-0.2,0.2-0.4,0.4-0.7,0.4c0.1-0.1,0.1-0.2,0.2-0.3l-0.4,0.3
		h0.2c0,0.1,0,0.2-0.1,0.2c-0.6,0.5-1.3,0.9-2,1.2c-0.4,0.2-0.9,0.2-1.4,0.2c-0.1,0-0.2,0-0.3-0.1c-1.5-0.6-2.6-2-2.9-3.6
		c-0.2-0.9-0.2-1.9-0.1-2.8c0.1-1.1,0.3-2.2,0.6-3.2c0-0.1,0-0.2,0-0.2c0.2-0.3,0.2-0.4-0.1-0.6l-0.1-0.2c0.2-0.3,0.1-0.6,0-0.9
		c0-0.1,0-0.3,0.2-0.2s0.3,0,0.3-0.2c0.3-0.9,0.7-1.8,1.1-2.7c0.1-0.3,0.2-0.6,0.3-0.9c0-0.1,0.1-0.2,0.2-0.2
		c0.3-0.6,0.6-1.3,0.9-1.9c0.6-1.1,1.2-2.2,1.8-3.2c0.3-0.5,0.8-1,1.1-1.5l0.6-0.8c0.1-0.3,0.4-0.4,0.6-0.6c0.3-0.4,0.7-0.8,1-1.1
		l0.6-0.7h0.1c0.1-0.1,0.3-0.3,0.5-0.4h0.3c0.2,0.1,0.5,0.2,0.7,0.3l0,0c0.2,0.3,0.5,0.4,0.8,0.4c0.9,0.1,1.3,0.6,1,1.5
		c-0.2,0.5-0.4,1-0.6,1.5s-0.6,1.2-0.9,1.7c-0.1,0.2-0.3,0.5-0.4,0.7s-0.4,0.7-0.7,1.1s-0.4,0.5-0.6,0.7c-0.6,0.9-1.3,1.8-2,2.7
		c-0.9,1-1.7,2-2.6,3c-0.3,0.3-0.5,0.6-0.8,0.8c-0.4,0.4-0.9,0.7-1.4,1c-0.3,0.2-0.4,0.3-0.5,0.6s-0.3,0.8-0.5,1.3
		c-0.4,1.6-0.6,3.3-0.5,5c0,0.2,0.1,0.4,0.2,0.6c0.2,0.5,0.2,1.1,0.8,1.5c0.2,0.1,0.4,0.2,0.6,0.2c0.7,0,1.4-0.2,2-0.4
		c0.2-0.1,0.4,0,0.6,0c0.3-0.2,0.6,0,0.9-0.2h0.1c0.5-0.4,1-0.7,1.5-1.2c0.2-0.2,0.5-0.4,0.7-0.6c0.2-0.2,0.4-0.5,0.4-0.8
		c0-0.8,0.1-1.6,0.3-2.4l0,0c0.1-1,0.3-2,0.5-2.9c0.1-0.5,0.2-0.9,0.4-1.3c0.1-0.3,0.2-0.6,0.4-0.8v-0.1l0,0l0.1-0.4l0.1-0.2h-0.1
		c0-0.3,0.1-0.5,0.2-0.8c0.2-0.4,0.3-0.7,0.4-1.1c0-0.4,0.3-0.6,0.3-0.9c0.1-0.3,0.2-0.7,0.4-1 M176.8,29c0.1-0.2,0.2-0.3,0.3-0.5
		 M165.2,36c-0.1-0.2,0-0.3,0.1-0.4s0.1-0.1,0.1-0.1v0.2c-0.1,0-0.2,0.1-0.3,0.1L165.2,36z M165.9,37.2c0-0.1-0.1-0.2-0.1-0.3
		C165.9,37,165.9,37,165.9,37.2c-0.2,0.1-0.2,0.2-0.2,0.3V38c0.1-0.1,0.1-0.3,0.1-0.4L165.9,37.2z M166,36.5
		C166,36.5,166.1,36.5,166,36.5c0.1-0.2,0.1-0.3,0.2-0.4h-0.1H166v0.1 M166.3,33.4c0.1-0.1,0.1-0.1,0.2-0.1c0,0,0-0.1,0.1-0.2
		c0.2-0.5,0.4-0.9,0.6-1.4c0.3-0.8,0.6-1.5,1-2.3c0.2-0.6,0.6-1.1,0.8-1.6s0.6-1,0.9-1.5c0.4-0.7,0.8-1.4,1.2-2
		c0.1-0.2,0.2-0.5,0.3-0.7c-0.2,0.2-0.4,0.3-0.5,0.5c-0.7,0.9-1.2,2-1.9,2.9c-0.4,0.6-0.7,1.3-0.9,2c-0.1,0.2-0.1,0.5-0.4,0.6
		c0,0.2-0.1,0.5-0.1,0.7l-0.8,1.8c-0.1,0.3-0.3,0.7-0.4,1.1C166.3,33.3,166.3,33.4,166.3,33.4L166.3,33.4z M168,31.4
		c0.1-0.3,0.3-0.5,0.4-0.8c0.2-0.3,0.3-0.7,0.3-1c0.4-0.5,0.7-1,0.9-1.6c0.1-0.1,0.1-0.3,0.2-0.4c0.1,0,0.2-0.1,0.1-0.3
		c0,0.1,0,0.2-0.1,0.3c-0.2,0.1-0.3,0.3-0.2,0.4c-0.4,0.4-0.7,1-0.9,1.6c-0.1,0-0.1,0.1-0.2,0.2c-0.3,0.5-0.5,1-0.7,1.5
		s-0.3,0.7-0.5,1.1v0.1c0.1,0,0.1,0,0.2-0.1C167.7,32.1,167.8,31.8,168,31.4L168,31.4z M171.7,25.3c-0.5,0.7-1,1.5-1.4,2.3
		c-0.3,0.6-0.5,1.1-0.9,1.6c-0.3,0.8-0.7,1.5-1.1,2.3h0.2c0,0.1-0.1,0.3-0.1,0.4l0.2-0.3l0.1-0.1c1.1-1.2,2.1-2.4,3.1-3.6
		c0.3-0.4,0.5-0.8,0.9-1l-0.1,0.2c-0.2,0.2-0.4,0.5-0.6,0.8c-0.3,0.3-0.5,0.7-0.8,1.1c-0.3,0.4-0.6,0.9-0.9,1.3v0.2
		c0.1,0,0.1,0,0.2-0.1c0.2-0.2,0.4-0.4,0.5-0.6c0.2-0.3,0.5-0.5,0.8-0.8c0.5-0.6,1-1.2,1.4-1.9c0.4-0.4,0.7-0.9,1-1.4
		c0.2-0.4,0.5-0.8,0.8-1.2h-0.1c0.3-0.4,0.5-0.8,0.7-1.2c0.3-0.5,0.5-1.2,0.7-1.7c0.1-0.3,0.1-0.6,0.1-0.8c0-0.1-0.1-0.2-0.1-0.2
		c-0.1,0.1-0.2,0.1-0.2,0.2l-0.4,0.8c0-0.2,0.1-0.4,0.2-0.6s0-0.2,0-0.2c-0.1-0.1-0.1-0.1-0.2,0l0,0c-0.5,0.2-0.9,0.4-1.3,0.8
		C173.6,22.7,172.6,24,171.7,25.3L171.7,25.3z M170,27.1h0.1c0.1-0.1,0.1-0.3,0.2-0.5L170,27.1L170,27.1z M170.3,26.5l0.4-0.7
		c0,0,0-0.1,0.1-0.1l0,0v0.1C170.5,25.9,170.4,26.2,170.3,26.5L170.3,26.5z M171.2,25.1l0.1-0.1L171.2,25.1l-0.1,0.1
		C171.1,25.2,171.2,25.2,171.2,25.1L171.2,25.1z M173.2,42.5c-0.1,0-0.1,0-0.2,0c-0.3,0.3-0.6,0.6-0.9,0.8
		C172.6,43.1,173,42.9,173.2,42.5L173.2,42.5z M172.9,27L172.9,27L172.9,27L172.9,27z M173.2,26.5c-0.1,0.1-0.2,0.2-0.2,0.3
		C172.9,26.7,173,26.6,173.2,26.5L173.2,26.5z M173.7,42.2c0,0,0-0.1-0.1-0.1s-0.1,0.1-0.1,0.1H173.7z M174.6,43.1L174.6,43.1
		l0.1-0.2c-0.1,0-0.1,0-0.1,0C174.6,43,174.6,43,174.6,43.1c-0.2-0.3-0.2-0.7-0.2-1.1c0-0.1,0-0.1,0-0.2l-0.1,0.1
		c-0.2,0.3,0,0.7,0,1.1c0,0.5,0.1,1,0.3,1.5v-0.8c0-0.1,0-0.2,0.1-0.2s0.1,0,0.2,0L174.6,43.1z M176,32c-0.3,0.8-0.5,1.7-0.7,2.6
		c-0.5,1.9-0.9,3.8-1,5.8c0,0.1,0,0.3,0,0.4c0.1-0.1,0.2-0.2,0.2-0.3s0-0.2,0-0.3c0.1-0.8,0.2-1.6,0.3-2.4c0.1-0.4,0.2-0.8,0.2-1.1
		s0.2-0.1,0.3-0.2c0,0.1,0.1,0.1,0.1,0.2c-0.1,0.7-0.2,1.4-0.3,2.2c0,0.2-0.1,0.5-0.2,0.7v-0.3l-0.1,0.1c0,0,0.1,0.1,0.1,0.2
		c0,0.1,0,0.2,0,0.3s0,0.1,0.1,0.2l0.1-0.1c0.4-0.3,0.7-0.6,1-1l1-1.2c0.4-0.4,0.8-0.8,1.2-1.3c0.6-0.7,1.1-1.5,1.7-2.2
		s1.2-1.6,1.7-2.4s1.2-1.7,1.7-2.6s0.9-1.7,1.3-2.5l0.9-1.9h-0.1c0.1-0.1,0.1-0.2,0.2-0.3c0.2,0.1,0.2,0,0.3-0.1
		c0.1-0.3,0.3-0.6,0.4-0.9c0-0.3,0.1-0.6,0.2-0.9c0.3-0.4,0.4-0.9,0.4-1.4l0,0c0,0,0,0,0-0.1l0.1-1.1c0.1-0.4,0.2-0.7,0.2-1.1
		c0-0.4,0-0.7,0-1.1c0-0.3,0.1-0.6,0-0.9s-0.1-0.9-0.4-1.3c-0.1-0.1-0.1-0.1-0.2-0.1c0,0.1,0,0.2,0,0.2s0,0.4,0,0.6
		c0,0.1,0,0.1,0,0.2c0-0.1,0-0.1-0.1-0.2c0-0.2-0.1-0.5-0.2-0.7c0-0.1-0.2-0.2-0.2-0.2c-0.4,0-0.7,0.1-1,0.3c-1.1,1.2-2.1,2.6-2.9,4
		c-0.3,0.5-0.5,0.9-0.8,1.4c-0.6,1.1-1.2,2.1-1.8,3.2c-0.4,0.8-0.7,1.6-1.1,2.4c0,0.1-0.1,0.1-0.2,0.3c-0.1-0.2,0-0.4,0.2-0.6
		c0.2-0.4,0.3-0.8,0.4-1.2c0.6-1.3,1.2-2.6,2-3.9c0.3-0.5,0.6-1,0.9-1.5s0.6-1.2,1-1.8c-0.3,0-0.2,0.3-0.4,0.5
		c-0.4,0.6-0.8,1.3-1.2,2l-0.7,1.2c-0.1,0.3-0.3,0.6-0.4,0.9c-0.6,1-1.1,2.1-1.6,3.2l-0.6,1.4c-0.2,0.5-0.5,1-0.7,1.5l-1.1,3.2
		C176.1,32,176,32,176,32 M174.8,43.7v0.5c0,0.2,0,0.4,0.2,0.3s0.1-0.3,0-0.4S174.9,43.8,174.8,43.7z M175,44.8c0,0.1,0,0.1,0,0.2
		c0.1,0.6,0.3,1.1,0.6,1.6c0-0.2,0.1-0.5,0-0.6s0-0.5-0.1-0.5s-0.1-0.3-0.2-0.3c0-0.1,0-0.2,0.1-0.2C175.3,44.9,175.1,44.8,175,44.8
		L175,44.8z M175.2,33.2L175.2,33.2l-0.2,0.1C175.1,33.2,175.2,33.2,175.2,33.2z M175.2,36.1c0-0.1,0.1-0.2,0.2-0.3l0.1,0.3h0.1
		c0,0.1-0.1,0.1-0.1,0.2C175.3,36.2,175.2,36.1,175.2,36.1z M177.4,29.5c0.1-0.1,0.2-0.3,0.3-0.4c0,0.2-0.1,0.4-0.2,0.5
		c-0.2,0.6-0.4,1.2-0.7,1.7c-0.5,1.2-0.6,2.5-1.1,3.7c-0.1,0.2,0,0.6-0.3,0.8h-0.2c0.1-0.4,0.2-0.7,0.3-1c0-0.1,0-0.2,0.1-0.3
		c0-0.3,0.2-0.6,0.2-0.9s0.2-0.6,0.3-0.9s0.3-0.7,0.4-1.1c0.1-0.1,0.1-0.2,0.1-0.3c0.1-0.5,0.3-1,0.6-1.5
		C177.4,29.7,177.4,29.5,177.4,29.5z M176.7,28c-0.1,0.1-0.1,0.2-0.2,0.3L176.7,28z M176.8,27.4L176.8,27.4c0.1,0.2,0,0.3,0,0.4
		l-0.1-0.1C176.7,27.6,176.8,27.5,176.8,27.4z M177.2,28v0.2C176.9,28,177.1,28.1,177.2,28L177.2,28z M177.2,28.2L177.2,28.2
		L177.2,28.2z M177.3,26.4l0.1-0.2v0.1L177.3,26.4C177.3,26.4,177.2,26.4,177.3,26.4L177.3,26.4z M177.9,26.6l-0.1,0.1h-0.1
		c0,0,0-0.1,0.1-0.1S177.8,26.6,177.9,26.6L177.9,26.6z M178.6,27.1c0,0.1,0,0.3,0,0.4c-0.2,0.4-0.4,0.8-0.6,1.3h-0.1h-0.1
		c-0.1-0.1-0.1-0.3,0.1-0.4c0.1,0,0.1-0.1,0.2-0.1c-0.1-0.5,0.3-0.7,0.3-1.1C178.3,27,178.4,27,178.6,27.1L178.6,27.1z M178,25.1
		L178,25.1c0.1-0.4,0.3-0.6,0.4-0.9l0.1-0.1v0.1c-0.1,0.3-0.3,0.6-0.4,0.8L178,25.1z M179,23.1l-0.1,0.1c0-0.1,0-0.1,0-0.2
		c0-0.1,0.1-0.3,0.2-0.4h0.1v0.1C179.1,22.8,179,23,179,23.1L179,23.1z M179.2,23.8L179.2,23.8v-0.2V23.8z M180.2,21.5L180.2,21.5z
		 M186.9,21.5c0,0,0,0.1,0,0.2l-0.1,0.3l-0.1-0.1C186.8,21.7,186.8,21.6,186.9,21.5L186.9,21.5z"/>
	<path class="st0" d="M200.1,33.9c0.1,0,0.2,0,0.3,0c-0.1,0.3-0.3,0.5-0.5,0.7c-0.5,0.3-0.7,1-1.4,1c-0.1,0-0.3-0.1-0.2,0.1
		c-0.3,0.3-0.6,0.7-1,1c-0.3,0.3-0.6,0.5-0.9,0.7c-0.4,0.2-0.9,0.5-1.2,0.7c-0.1,0-0.1,0.1-0.2,0.1c-0.3,0.1-0.6,0.4-0.9,0.5
		c-0.2,0-0.4,0.2-0.5,0.3c-0.4,0.2-0.8,0.5-1.3,0.7c-0.7,0.4-1.5,0.7-2.3,1c-0.9,0.4-1.9,0.6-2.9,0.6c-1-0.1-1.9-0.5-2.5-1.2
		c-0.4-0.4-0.7-0.9-0.9-1.5c-0.3-1.2-0.1-2.4,0.5-3.5c0.5-0.9,1.1-1.8,1.8-2.6c0.4-0.4,0.9-0.8,1.3-1.2c0.1-0.1,0.3-0.1,0.1-0.3
		s-0.1-0.4,0-0.5c0.2-0.2,0.6-0.2,0.8-0.1c0.2,0.1,0.5,0.1,0.8,0.1c0.4,0,0.7,0.3,1,0.5c0.1,0.8,0.9,1.4,0.6,2.2
		c-0.1,0.9-0.7,1.8-1.5,2.3c-0.4,0.2-0.8,0.5-1.2,0.8c-0.1,0.1-0.3,0.1-0.5,0.2l-1.3,0.6c-0.4,0.2-0.9,0.3-1.3,0.1
		c-0.2,0-0.3,0-0.3,0.2c0,0.4,0,0.9,0.1,1.3c0.1,0.5,0.6,0.9,1.1,0.9c0.6,0.1,1.3,0.1,1.9,0c0.7-0.2,1.3-0.4,1.9-0.7
		c0.3-0.1,0.7-0.3,1-0.5c0.2-0.1,0.3-0.1,0.5-0.1c0.8-0.1,1.6-0.4,2.3-0.8c0.6-0.2,1.1-0.5,1.6-0.8c0.3-0.1,0.7-0.2,1-0.4v0.1
		c0.1,0,0.1,0.1,0.1,0.1l0,0v-0.1h-0.1c0-0.1,0.1-0.2,0.2-0.2c0.8-0.4,1.6-0.9,2.4-1.4l0.8-0.4L200.1,33.9z M184.8,36.9
		c0,0,0.1,0,0.2,0c-0.1-0.2,0.1-0.2,0.3-0.3c0.2,0,0.3-0.2,0.2-0.4l0,0c-0.1,0,0-0.1,0.1-0.2c0.9-0.7,1.8-1.5,2.5-2.4
		c0.4-0.4,0.6-0.9,0.7-1.5c0-0.4,0-0.5-0.4-0.3c-0.1,0-0.2,0.1-0.2,0.2c-0.4,0.4-0.8,0.8-1.2,1.2c-0.6,0.8-1.2,1.5-1.8,2.2
		c-0.3,0.4-0.5,0.8-0.5,1.3C184.7,36.8,184.7,36.9,184.8,36.9L184.8,36.9z M200.1,33.6L200.1,33.6h0.1H200.1L200.1,33.6z
		 M200.5,33.4c-0.1,0-0.1,0-0.2,0.1C200.3,33.5,200.4,33.4,200.5,33.4L200.5,33.4z M200.6,33.7c-0.1,0.1-0.2,0.1-0.2,0.1
		C200.4,33.8,200.5,33.8,200.6,33.7L200.6,33.7z"/>
	<path class="st0" d="M210.9,37.1c0.1,0,0.2,0,0.3,0.1l-0.2,0.2c-0.5,0.4-1,0.8-1.7,0.9c-0.8,0.3-1.6,0.7-2.4,0.9
		c-1.3,0.4-2.6,0.8-4,1.2c-1.3,0.3-2.6,0.2-3.8-0.4c-0.5-0.3-0.9-0.8-1.1-1.4c-0.3-0.9-0.3-1.8,0-2.7c0.4-1.2,1.2-2.3,2.3-2.9
		c0.8-0.7,1.8-1.3,2.7-1.7c0.5-0.2,1-0.3,1.5-0.5c0.2-0.1,0.5-0.1,0.7,0.1c0.5,0.4,0.9,0.8,1.3,1.2c0.2,0.3,0.3,0.6,0.3,0.9
		c-0.2,0.8-0.4,1.5-1.3,1.8c-0.5,0.2-1.1-0.2-1.2-0.7c0-0.1,0-0.1,0-0.2v-0.1l0.8-1c0.1,0,0.1-0.1,0.1-0.2s-0.1,0-0.2,0
		c-1.1,0.3-2.2,0.8-3.1,1.5c-0.8,0.5-1.6,1.2-2.2,2c-0.3,0.4-0.5,0.8-0.7,1.3c-0.1,0.4,0.1,0.8,0.4,1c0.6,0.4,1.3,0.6,2,0.4
		c0.8-0.1,1.6-0.1,2.4-0.2c0.2,0,0.4-0.1,0.6-0.2c0.7-0.2,1.5-0.4,2.2-0.5c0.3-0.1,0.6-0.2,0.9-0.3l-0.3,0.3c-0.1,0-0.1,0.1-0.1,0.2
		c0.1,0,0.1,0.1,0.2,0.1c0.2,0,0.4,0,0.6-0.1c0.6-0.2,1.2-0.5,1.8-0.8c0.2-0.1,0.5-0.1,0.7-0.1C210.4,37.3,210.6,37.1,210.9,37.1z
		 M206.4,38.2c-0.2,0.1-0.5,0.1-0.8,0.2c0,0,0,0.1,0.1,0.1L206.4,38.2L206.4,38.2C206.5,38.2,206.5,38.2,206.4,38.2 M213.9,35.4
		l-2.2,1.7c0,0-0.1,0-0.2,0l-0.1-0.1c0,0,0-0.1,0.1-0.1c0.3-0.2,0.6-0.4,0.9-0.6c0.2-0.2,0.5-0.2,0.4-0.7l0.1-0.1
		c0.3-0.2,0.5-0.3,0.8-0.5c0.1,0,0.1,0,0.2,0S213.9,35.2,213.9,35.4L213.9,35.4z M212.7,35.4c0.2-0.1,0.4-0.2,0.7-0.3
		C213.2,35.2,213,35.2,212.7,35.4L212.7,35.4z M214,34.9h-0.1l0,0H214z"/>
	<path class="st0" d="M224.2,26.9c0.1,0,0.2,0.1,0.2,0.1c-0.1,0.1-0.1,0.1-0.2,0.2c-0.1,0.1-0.3,0.1-0.5,0.1c-1,0-1.9,0-2.9-0.1
		c-0.9,0-1.6,0-2.4,0.1c-0.1,0-0.3,0.1-0.3,0.2c-0.1,0.3-0.3,0.6-0.3,0.9c-0.1,0.2-0.2,0.4-0.3,0.6c-0.4,0.4-0.6,0.9-0.6,1.5
		c0,0.1-0.1,0.2-0.2,0.3c-0.3,0.5-0.6,1-0.7,1.6c0,0.1,0,0.2-0.1,0.3c-0.8,1.6-1.4,3.3-1.8,5.1c-0.3,0.8-0.5,1.6-0.7,2.4
		c-0.1,0.6-0.2,1.2-0.1,1.8c0,0.3,0.1,0.4,0.5,0.4s0.7-0.2,1-0.3l0.7-0.4l0.1-0.1c0.2-0.5,0.7-0.6,1.1-0.9l0.3-0.3l1.1-0.9
		c0.3-0.2,0.6-0.4,0.9-0.6c-0.2,0.2-0.4,0.5-0.6,0.8c0,0.1,0,0.1,0,0.2c0.1,0,0.1,0,0.2,0c1.2-0.9,2.3-1.9,3.3-3.1
		c0.1-0.1,0.2-0.2,0.3-0.3c0.1,0,0.2-0.2,0.3-0.2s0.1,0.3,0,0.5c-0.5,0.7-0.9,1.4-1.4,2c-0.4,0.5-0.9,1-1.3,1.4
		c-0.3,0.3-0.6,0.6-0.8,0.9l-0.2,0.3c-0.1,0.1-0.1,0.3-0.2,0.3c-0.3,0.1-0.5,0.3-0.7,0.5c-0.5,0.5-0.9,0.9-1.5,1.4
		c-0.5,0.3-1.1,0.6-1.7,0.6c-0.1,0-0.3,0-0.4,0c-0.1,0-0.3,0-0.3,0c-0.5-0.4-1.2-0.7-1.5-1.3c-0.3-0.4-0.5-0.9-0.5-1.5
		c-0.2-1.1-0.2-2.2,0.2-3.3c0.1-0.1,0.1-0.1,0.1-0.2c0,0.1,0,0.1,0,0.2c-0.1,0.3-0.2,0.7-0.2,1c-0.1,0,0,0.1,0,0.2
		c0-0.1,0.1-0.1,0.2-0.2l0.1-0.6c0.4-1.7,1-3.2,1.6-4.8c0.3-0.9,0.7-1.8,1.1-2.6s0.7-1.7,1-2.5c0-0.1,0-0.1,0-0.2l-0.1,0.2
		c-0.2,0.4-0.4,0.8-0.6,1.3l-1,2.2c-0.2,0.6-0.4,1.2-0.6,1.8c-0.1,0.4-0.3,0.7-0.6,1c0-0.1,0-0.3,0-0.4c0.4-1.1,0.8-2.1,1.3-3.2
		s1.1-2.4,1.5-3.6c0.2-0.4,0.1-0.4-0.2-0.4c-0.9,0-1.8,0.2-2.7,0.4c-0.7,0.2-1.3,0.4-2,0.6c-0.9,0.3-1.8,0.3-2.6,0
		c-0.3-0.1-0.4-0.2-0.3-0.6c0-0.3,0.1-0.5,0.2-0.8c0.1-0.2,0.2-0.5,0.4-0.6c0.7-0.5,1.5-0.9,2.3-1c0.4,0,0.8-0.1,1.2-0.2
		c0.2,0,0.2,0.1,0.2,0.2c0.1,0,0.2,0,0.3,0s0.1,0,0.2,0c-0.1,0-0.1,0-0.2-0.1v-0.1c0.2,0.1,0.6-0.3,0.8,0.1c0,0.1,0.3,0.1,0.5,0.1
		c0.6,0,1.1,0,1.6,0c0.3,0,0.7,0,1,0c0.2,0,0.3,0,0.4-0.3c0.7-1.5,1.5-3,2.2-4.5l0.3-0.6c0.1-0.3,0.2-0.7,0.2-1
		c-0.1-0.5,0.1-0.7,0.6-0.5s0.9,0.3,1.4,0.5c0.3,0.1,0.4,0.5,0.3,0.8c-0.3,0.7-0.7,1.5-1.1,2.1c-0.2,0.3-0.4,0.7-0.5,1.1
		c-0.4,0.8-0.8,1.7-1.2,2.5c-0.1,0.2-0.2,0.4,0.2,0.3c0.1-0.1,0.3-0.1,0.4,0v0.1l0,0l-0.1-0.1c0.2-0.1,0.3,0,0.5,0.1
		s0.4,0.2,0.6-0.1c0.1,0.1,0.1,0.2,0.2,0.2s0.2,0.1,0.3-0.1s0.1-0.1,0.1-0.1h0.2c-0.1,0.4,0.1,0.1,0.2,0.1c0.5,0,1-0.3,1.5,0.2
		c-0.1,0-0.2,0.1,0,0.2S224,26.7,224.2,26.9z M212.8,35.6c0.1-0.2,0.2-0.4,0.3-0.7c-0.1,0.3-0.1,0.7-0.2,1.1l-0.3,1.2
		c0,0.1,0,0.2-0.1,0.4c-0.1,0.1-0.2,0.2-0.2,0.2v-0.3L212.8,35.6z M219.1,38.8l0.3-0.3C219.4,38.7,219.3,38.8,219.1,38.8z
		 M219.5,38.4c0.1,0,0.1-0.1,0.1-0.1s0,0,0,0.1S219.5,38.5,219.5,38.4C219.4,38.5,219.4,38.5,219.5,38.4
		C219.3,38.5,219.4,38.4,219.5,38.4z M222.4,35.2c0.1,0,0.2,0,0.2,0.1l-0.1,0.1C222.4,35.4,222.4,35.3,222.4,35.2
		C222.4,35.3,222.4,35.2,222.4,35.2z M222.9,34.4h0.2v0.2c-0.2,0.2-0.4,0.3-0.6,0.5h-0.1c0,0,0-0.1,0.1-0.1
		C222.7,34.7,222.8,34.6,222.9,34.4z M222.9,26.3C222.9,26.3,222.9,26.2,222.9,26.3c-0.1-0.1-0.1-0.1-0.1-0.1S222.8,26.3,222.9,26.3
		L222.9,26.3z M223.8,26.3c-0.1-0.1-0.3-0.1-0.4-0.1c0.1-0.1,0.2-0.2,0.3-0.2s0.2,0,0.3,0c0,0.1,0.1,0.2,0.2,0.3H223.8z"/>
	<path class="st0" d="M229.6,37.3l-0.3,0.6c0.2-0.1,0.4-0.2,0.6-0.3c0.4-0.3,0.8-0.6,1.2-0.9c0.1,0,0.1,0,0.1-0.1
		c0.1,0,0.2-0.1,0.2-0.2c0,0.1,0,0.3-0.1,0.4l-1.3,1.4c-0.2,0.2-0.4,0.4-0.7,0.5c-0.1,0.2-0.3,0.3-0.4,0.5c-0.6,0.5-1.1,1-1.6,1.4
		c-0.7,0.5-1.5,0.8-2.4,0.8c-1,0-2-0.6-2.3-1.6c-0.3-0.9-0.4-2-0.1-2.9c0.3-1,0.6-2,1.1-3c0.1-0.3,0.3-0.6,0.5-0.8
		c0.5-0.9,1-1.8,1.5-2.7c0.2-0.4,0.4-0.5,0.8-0.2c0.3,0.2,0.5,0.4,0.9,0.5c0.3,0,0.4,0.3,0.4,0.6c0,0.1-0.1,0.2-0.2,0.3
		c-1,1.2-1.9,2.5-2.6,3.8c-0.2,0.5-0.4,1.1-0.6,1.6c-0.2,0.8-0.4,1.6-0.5,2.4c-0.1,0.5,0,0.6,0.5,0.5c0.6-0.2,1.2-0.4,1.7-0.6
		c0.3-0.2,0.6-0.2,1-0.4c0.5,0,0.9-0.5,1.3-0.8l1.3-1c0.1,0,0.1,0,0.2,0C229.4,37.3,229.4,37.3,229.6,37.3z M232.1,34.8
		c0,0.4-0.3,0.8-0.7,0.9c-0.3,0.5-0.7,0.8-1.1,1.1c-0.2,0.2-0.4,0.3-0.6,0.4c0-0.1,0-0.2,0.1-0.3h-0.2c0.6-0.5,1.1-1,1.8-1.5
		C231.5,35.2,231.7,34.9,232.1,34.8z M231,20.6c-0.3-0.3-0.4-0.7-0.2-1.1c0.3-0.8,0.8-1.4,1.5-1.8c0.3-0.2,0.6-0.3,0.9-0.2
		c0.4,0.2,0.7,0.6,0.8,1.1c-0.1,0.2-0.2,0.4-0.3,0.6c-0.5,0.5-1,1-1.5,1.5c-0.2,0.3-0.6,0.3-0.9,0.1C231.1,20.7,231,20.7,231,20.6z
		 M232,34.8L232,34.8z M232,34.8c0.2-0.2,0.4-0.4,0.7-0.6C232.5,34.4,232.3,34.6,232,34.8L232,34.8z M233.4,33.5c0,0,0.1,0,0.2,0
		H233.4c0,0.2,0,0.2-0.1,0.3l-0.6,0.4c0.2-0.2,0.4-0.3,0.6-0.5S233.4,33.5,233.4,33.5L233.4,33.5z"/>
	<path class="st0" d="M247,34.2C247,34.2,246.9,34.2,247,34.2c-0.5,0.6-1.1,1.1-1.8,1.3c-0.5,0.2-1.1,0.4-1.6,0.5
		c-1.4,0.3-2.9,0.1-4.2-0.3c-0.2-0.1-0.4,0-0.4,0.2c-0.3,1.3-0.9,2.5-1.8,3.4c-0.5,0.6-1,1-1.6,1.4c-0.5,0.4-1.1,0.6-1.7,0.7
		c-0.7,0-1.3-0.3-1.8-0.8c-1-1.1-1.1-2.7-0.4-3.9c0.1-0.6,0.4-1.1,0.9-1.4c0-0.4,0.2-0.7,0.5-1c0.5-0.6,0.9-1.1,1.3-1.8
		c0.5-0.6,1.1-1.1,1.8-1.4c0.2-0.1,0.4-0.1,0.6,0c0.6,0.2,1.2,0.5,1.6,0.9v0.2c-0.3,0.3-0.6,0.6-1,0.8c-1.3,0.7-2.4,1.7-3.2,3
		c-0.7,0.9-1.3,2-1.5,3.2c0,0.5,0.1,0.6,0.5,0.5c0.8-0.3,1.6-0.9,2.1-1.6l1-1.1c0.2-0.2,0.4-0.4,0.4-0.7s0.1-0.1,0.2,0s0.1,0,0.1,0
		c0.2-0.5,0.3-1.1,0.2-1.6c-0.3-0.1-0.2-0.6-0.4-0.8c0.1,0,0.1-0.1,0.2-0.1c0.6,0.1,1.2,0.3,1.7,0.6c0.9,0.5,1.8,0.6,2.8,0.5
		c0.9,0,1.9-0.2,2.7-0.3l2.2-0.4L247,34.2C246.9,34.1,247,34.1,247,34.2z M237.2,34.7L237.2,34.7z"/>
	<path class="st0" d="M260.4,37.5c0.1-0.1,0.2-0.1,0.3-0.1c0,0.1,0,0.2,0,0.3c-0.2,0.3-0.4,0.6-0.6,0.8c-0.4,0.6-1,1.2-1.6,1.6
		c-0.3,0.2-0.7,0.4-1,0.6c-0.8,0.5-1.8,0.6-2.6,0.2c-0.8-0.3-1.4-0.8-1.8-1.5c-0.3-0.6-0.5-1.1-0.6-1.7c-0.1-0.7-0.2-1.4-0.4-2.1
		c0,0,0,0,0-0.1c-0.2-0.8-0.6-0.9-1.3-0.6c-0.6,0.2-1.1,0.5-1.5,0.9s-0.9,0.7-1.4,1s-1,1-1.5,1.6c-0.7,0.7-1.2,1.5-1.9,2.2
		c-0.2,0.3-0.5,0.5-0.9,0.5c-0.4,0.1-0.7,0-0.9-0.3c-0.1-0.3-0.2-0.5-0.4-0.8c-0.1-0.2-0.1-0.5,0.1-0.7c0.3-0.7,0.6-1.3,0.9-1.9
		c1.2-2.1,2.3-4.3,3.2-6.5c0.1-0.3,0.2-0.6,0.3-0.8s0.3-0.5,0.1-0.8s0.1-0.4,0.3-0.4c0.6,0.2,1.1,0.5,1.5,1c0.2,0.3,0.2,0.6,0.1,0.9
		l-0.8,1.6c-0.1,0.2-0.2,0.4-0.3,0.6c-0.3,0.5-0.5,1-0.8,1.6c0,0,0,0.1,0,0.2c0.1,0,0.2,0,0.2-0.1c0.1,0,0.1-0.1,0.2,0
		s0.3,0,0.5-0.1l0.5-0.1c-0.2,0.2-0.5,0.5-0.7,0.7c-0.1,0-0.1,0.1-0.1,0.2h0.1c0.1,0.1,0.1,0.2,0.1,0.1c0.2-0.2,0.5-0.4,0.7-0.6
		c0.1,0,0.2,0,0.3-0.1l0.8-0.6c0,0,0-0.1,0.1-0.1h-0.2c-0.1,0-0.2,0.1-0.4,0.2s-0.1,0-0.2,0c-0.1-0.1-0.1-0.1-0.1-0.2
		c0.2-0.1,0.3-0.1,0.5-0.1l0,0c0,0,0,0,0-0.1v-0.1l0.4-0.3c0.4-0.1,0.8-0.1,1.2,0.1c1,0.4,1.8,1.2,2.3,2.2c0.1,0.4,0.2,0.8,0.2,1.1
		l0.1,0.8c0,0.1,0,0.2-0.1,0.4s0.1,0.3,0.1,0.5s0.1,0.1,0.1,0.1c0-0.1,0-0.2,0-0.2v-0.1h0.1l0.3,0.8v0.1h-0.1
		c-0.1-0.2-0.1-0.3-0.2-0.5c0.1,0.8,0.1,0.8,0.9,0.8c0.5,0,1.1-0.1,1.5-0.4c0.4-0.2,0.9-0.3,1.3-0.5s1-0.6,1.5-0.8c0,0,0.1,0,0.2,0
		c-0.1,0.1,0,0.1,0.1,0.2c0,0.1,0,0.2-0.1,0.3v0.1c0.1,0,0.1,0,0.2-0.1C259.6,38.1,260,37.8,260.4,37.5z M247.2,35.8
		c0.1-0.1,0.3-0.2,0.4-0.3c-0.2-0.1-0.3,0.2-0.4,0.1s-0.2-0.1-0.2,0.1C247,35.7,247.2,35.8,247.2,35.8z M248.5,34.5
		C248.5,34.5,248.4,34.5,248.5,34.5c-0.1-0.1-0.1-0.2-0.1-0.2l0.2,0.1C248.6,34.4,248.5,34.5,248.5,34.5z"/>
	<path class="st0" d="M311,5.6c-4.4,1.5-7.5,5.5-8,10.1c-0.5,6.1,5.7,13.9,9.6,17.4c4,3.5,10.8,9.2,10.8,9.2v3.3L296,26.2
		l-15.6,28.3h-1.6V29.6h14.3v-5.3l-10.8-7.9c-0.6-0.5-1.5-0.6-2.2-0.3c-1.4,0.6-0.9,2-1.5,2.4s-1.8-1.8-1.2-3.8s2.3-3.6,5.7-4.5
		c2.5-0.5,5.2-0.5,7.7,0.1c0.9,0.2,3.1,1,3.1,1c-1.1-2.3-3-4.1-5.3-5.2c-0.7-0.3-1.6-0.5-2.1-0.7L311,5.6z"/>
	<polygon class="st0" points="339.3,24 343.4,24 343.4,16.9 350.2,16.9 350.2,13.2 343.4,13.2 343.4,9.5 351.2,9.5 351.2,5.8 
		339.3,5.8 	"/>
	<path class="st0" d="M364,5.7h-3.8L353.7,24h4.1l1.3-3.9h5.9l1.3,3.9h4.2L364,5.7L364,5.7z M363.7,16.5h-3.4l1.7-5L363.7,16.5z"/>
	<polygon class="st0" points="379.6,5.8 375.5,5.8 375.5,24 386.8,24 386.8,20.2 379.6,20.2 	"/>
	<polygon class="st0" points="406.7,5.8 401.8,5.8 396.3,13.1 396.3,5.8 392.2,5.8 392.2,24 396.3,24 396.3,18.6 397.7,16.8 
		402,23.9 402.1,24 406.9,24 400.5,13.5 	"/>
	<polygon class="st0" points="415.7,16.7 422.5,16.7 422.5,13 415.7,13 415.7,9.5 423.5,9.5 423.5,5.8 411.6,5.8 411.6,24 423.6,24 
		423.6,20.3 415.7,20.3 	"/>
	<polygon class="st0" points="439.6,15.7 433.1,5.9 433.1,5.8 429.4,5.8 429.4,24 433.4,24 433.4,13.6 440.2,24 443.6,24 443.6,5.8 
		439.6,5.8 	"/>
	<path class="st0" d="M456.9,13.1c-2.8-1.2-3.3-1.6-3.3-2.5s0.7-1.4,1.9-1.4c1.4,0.1,2.7,0.7,3.7,1.6l0.2,0.1l2.3-3.1l-0.1-0.1
		c-1.6-1.5-3.7-2.3-5.9-2.2c-3.5,0-6,2.2-6,5.4l0,0c0,3,1.8,4.3,5.2,5.7c2.5,1,2.9,1.5,2.9,2.3s-0.8,1.6-2.1,1.6
		c-1.6-0.1-3.2-0.8-4.3-2l-0.1-0.1l-2.4,3l0.1,0.1c1.8,1.7,4.2,2.7,6.7,2.7c3.7,0,6.2-2.2,6.2-5.5l0,0
		C461.8,15.6,459.9,14.3,456.9,13.1z"/>
	<polygon class="st0" points="466,9.6 470.4,9.6 470.4,24 474.5,24 474.5,9.6 479,9.6 479,5.8 466,5.8 	"/>
	<polygon class="st0" points="488.4,16.7 495.3,16.7 495.3,13 488.4,13 488.4,9.5 496.2,9.5 496.2,5.8 484.4,5.8 484.4,24 496.3,24 
		496.3,20.3 488.4,20.3 	"/>
	<rect x="502.3" y="5.8" class="st0" width="4.1" height="18.2"/>
	<polygon class="st0" points="523.2,15.7 516.7,5.9 516.7,5.8 513,5.8 513,24 517,24 517,13.6 523.7,24 527.2,24 527.2,5.8 
		523.2,5.8 	"/>
	<polygon class="st0" points="537.7,16.7 544.6,16.7 544.6,13 537.7,13 537.7,9.5 545.5,9.5 545.5,5.8 533.7,5.8 533.7,24 545.6,24 
		545.6,20.3 537.7,20.3 	"/>
	<path class="st0" d="M561.6,17.2c2.1-0.9,3.4-3.1,3.2-5.3v-0.1c0.1-1.6-0.5-3.1-1.6-4.3c-1.4-1.2-3.2-1.9-5-1.8h-6.9V24h4.1v-5.9h2
		l3.2,5.8V24h4.7L561.6,17.2z M555.5,9.5h2.5c1.3,0,2.8,0.4,2.8,2.5c0.1,1.3-0.9,2.4-2.3,2.5c-0.1,0-0.3,0-0.4,0h-2.5L555.5,9.5z"/>
	<path class="st0" d="M339.4,36.3h1.6v6.8h7.3v-6.8h1.6v15.2h-1.6v-6.9H341v6.9h-1.6V36.3z"/>
	<path class="st0" d="M355.9,44v-0.2c0-4.4,2.7-7.7,6.5-7.7s6.5,3.3,6.5,7.7V44c0,4.4-2.6,7.7-6.5,7.7S355.9,48.5,355.9,44z
		 M367.2,44v-0.2c0-3.7-2-6.3-4.8-6.3s-4.8,2.6-4.8,6.2V44c0,3.7,2.1,6.3,4.9,6.3S367.2,47.7,367.2,44L367.2,44z"/>
	<path class="st0" d="M377.2,37.8H373v-1.5h10.2v1.5h-4.3v13.7h-1.6L377.2,37.8z"/>
	<path class="st0" d="M388.6,36.3h9.3v1.5h-7.6v5.3h6.8v1.5h-6.9V50h7.7v1.5h-9.4L388.6,36.3z"/>
	<path class="st0" d="M403.6,36.3h1.6V50h7v1.5h-8.6V36.3z"/>
	<path class="st0" d="M433.3,49.5c-1,1.4-2.7,2.2-4.4,2.2c-2.2,0.1-4.2-1.6-4.3-3.8c0-0.1,0-0.2,0-0.3v-0.1c0-1.9,1.2-3.4,3.3-4.5
		c-0.9-1-1.4-2.2-1.5-3.5v-0.1c0-1.9,1.5-3.4,3.4-3.4c0.1,0,0.1,0,0.2,0c1.8-0.1,3.3,1.3,3.4,3.1v0.1v0.1c0,1.8-1.2,3-3.2,4l3.1,3.7
		c0.6-1,1.1-2.1,1.5-3.3l1.3,0.5c-0.5,1.4-1.1,2.7-1.8,3.9l2.3,2.6l-1.2,0.9L433.3,49.5z M432.3,48.4l-3.6-4.3
		c-1.4,0.5-2.4,1.8-2.5,3.4v0.1c-0.1,1.5,1.1,2.7,2.6,2.8c0.1,0,0.1,0,0.2,0C430.4,50.2,431.6,49.5,432.3,48.4z M431.9,39.5
		L431.9,39.5c0.1-1-0.7-1.9-1.8-2H430c-1.1,0-2,0.8-2.1,1.9v0.1l0,0c0,0.9,0.4,1.6,1.4,2.9C431,41.7,431.9,40.7,431.9,39.5z"/>
	<path class="st0" d="M448.5,49.6l1-1.2c1.1,1.2,2.7,1.9,4.3,1.9c1.8,0,3-1.1,3-2.5l0,0c0-1.3-0.6-2.1-3.4-3
		c-3.1-1.2-4.4-2.3-4.4-4.4l0,0c0-2.3,1.9-4,4.5-4c1.7,0,3.3,0.6,4.5,1.7l-1,1.3c-1-0.9-2.3-1.5-3.6-1.5c-1.7,0-2.9,1.1-2.9,2.4l0,0
		c0,1.3,0.7,2.1,3.5,3.1c3.1,1.1,4.2,2.4,4.2,4.4l0,0c0,2.4-2,4.1-4.7,4.1C451.8,51.7,449.9,51,448.5,49.6z"/>
	<path class="st0" d="M464.2,36.3h4.6c3.2,0,5.3,1.8,5.3,4.8l0,0c0,3.2-2.4,4.9-5.5,5h-2.7v5.3h-1.6L464.2,36.3L464.2,36.3z
		 M468.6,44.7c2.4,0,3.9-1.4,3.9-3.4l0,0c0-2.2-1.5-3.3-3.8-3.3h-2.8v6.8L468.6,44.7z"/>
	<path class="st0" d="M482.8,36.2h1.6l5.8,15.3h-1.7l-1.5-4h-6.8l-1.5,4H477L482.8,36.2z M486.5,46.1l-2.9-7.7l-2.9,7.7H486.5z"/>
	<path class="st0" d="M502.1,49.6l1.1-1c0.5,1,1.6,1.6,2.8,1.6c1.4,0,2.4-1,2.4-3.1V36.3h1.6v10.8c0.1,1.3-0.3,2.5-1.2,3.5
		c-0.8,0.7-1.8,1.1-2.9,1.1C504.4,51.7,502.9,50.9,502.1,49.6z"/>
	<path class="st0" d="M516.3,36.3h9.3v1.5h-7.7v5.3h6.8v1.5h-6.8V50h7.7v1.5h-9.4V36.3H516.3z"/>
	<path class="st0" d="M530.3,49.6l1-1.2c1.1,1.2,2.7,1.8,4.3,1.9c1.8,0,3-1.1,3-2.5l0,0c0-1.3-0.6-2.1-3.4-3
		c-3.1-1.2-4.3-2.3-4.3-4.4l0,0c0-2.3,1.9-4,4.5-4c1.7,0,3.3,0.6,4.5,1.7l-1,1.3c-1-0.9-2.3-1.5-3.6-1.5c-1.7,0-2.9,1.1-2.9,2.4l0,0
		c0,1.3,0.7,2.1,3.5,3.1c3.1,1.1,4.2,2.4,4.2,4.4l0,0c0,2.4-2,4.1-4.7,4.1C533.6,51.7,531.7,50.9,530.3,49.6z"/>
	<path class="st0" d="M545.4,44v-0.2c0-4.4,2.7-7.7,6.5-7.7s6.5,3.3,6.5,7.7V44c0,4.4-2.6,7.7-6.5,7.7S545.4,48.5,545.4,44z
		 M556.8,44v-0.2c0-3.7-2.1-6.3-4.8-6.3s-4.8,2.6-4.8,6.2V44c0,3.7,2,6.3,4.8,6.3S556.8,47.7,556.8,44L556.8,44z"/>
	<path class="st0" d="M564.3,36.3h1.7V50h7v1.5h-8.7V36.3z"/>
	<path class="st0" d="M577,44v-0.2c0-4.4,2.7-7.7,6.5-7.7s6.5,3.3,6.5,7.7V44c0,4.4-2.6,7.7-6.5,7.7S577,48.5,577,44z M588.3,44
		v-0.2c0-3.7-2.1-6.3-4.8-6.3s-4.8,2.6-4.8,6.2V44c0,3.7,2.1,6.3,4.8,6.3S588.3,47.7,588.3,44L588.3,44z"/>
</g>
</svg>
